SplineFontDB: 3.2
FontName: KoreeneSans-Medium
FullName: Koreene Sans Medium
FamilyName: Koreene Sans Medium
Weight: Medium
Copyright: (C) Copyright HanYang I&C Co.,Ltd. All rights reserved.
Version: 2.50; ttfautohint (v1.8.4.7-5d5b-dirty)
ItalicAngle: 0
UnderlinePosition: -122
UnderlineWidth: 45
Ascent: 819
Descent: 205
InvalidEm: 0
sfntRevision: 0x00020147
LayerCount: 2
Layer: 0 1 "Back" 1
Layer: 1 1 "Fore" 0
XUID: [1021 531 -1996577725 14922474]
StyleMap: 0x0040
FSType: 0
OS2Version: 4
OS2_WeightWidthSlopeOnly: 0
OS2_UseTypoMetrics: 1
CreationTime: 1068260456
ModificationTime: 1702473897
PfmFamily: 81
TTFWeight: 500
TTFWidth: 5
LineGap: 256
VLineGap: 0
Panose: 0 0 0 0 0 0 0 0 0 0
OS2TypoAscent: 970
OS2TypoAOffset: 0
OS2TypoDescent: -235
OS2TypoDOffset: 0
OS2TypoLinegap: 256
OS2WinAscent: 1098
OS2WinAOffset: 0
OS2WinDescent: 363
OS2WinDOffset: 0
HheadAscent: 970
HheadAOffset: 0
HheadDescent: -235
HheadDOffset: 0
OS2SubXSize: 205
OS2SubYSize: 205
OS2SubXOff: 0
OS2SubYOff: 287
OS2SupXSize: 205
OS2SupYSize: 205
OS2SupXOff: 0
OS2SupYOff: 963
OS2StrikeYSize: 102
OS2StrikeYPos: 512
OS2CapHeight: 735
OS2XHeight: 531
OS2Vendor: 'HY  '
OS2CodePages: 2000019f.00000000
OS2UnicodeRanges: e10002ff.4000001b.00000000.00000000
Lookup: 1 0 0 "'aalt' Access All Alternates lookup 0" { "'aalt' Access All Alternates lookup 0 subtable"  } ['aalt' ('DFLT' <'dflt' > 'cyrl' <'dflt' > 'grek' <'dflt' > 'hang' <'dflt' > 'jamo' <'dflt' > 'latn' <'dflt' > ) ]
Lookup: 3 0 0 "'aalt' Access All Alternates lookup 1" { "'aalt' Access All Alternates lookup 1 subtable"  } ['aalt' ('DFLT' <'dflt' > 'cyrl' <'dflt' > 'grek' <'dflt' > 'hang' <'dflt' > 'jamo' <'dflt' > 'latn' <'dflt' > ) ]
Lookup: 1 0 0 "'locl' Localized Forms in Latin lookup 2" { "'locl' Localized Forms in Latin lookup 2 subtable"  } ['locl' ('latn' <'MOL ' > ) ]
Lookup: 1 0 0 "'locl' Localized Forms in Latin lookup 3" { "'locl' Localized Forms in Latin lookup 3 subtable"  } ['locl' ('latn' <'ROM ' > ) ]

StartChar: exclam
Encoding: 33 33 4
Width: 310
GlyphClass: 2
Flags: W
LayerCount: 2
Fore
SplineSet
88 -8 m 1,0,-1
 88 115 l 1,1,-1
 223 115 l 1,2,-1
 223 -8 l 1,3,-1
 88 -8 l 1,0,-1
198 205 m 1,4,-1
 113 205 l 1,5,-1
 104 737 l 1,6,-1
 206 737 l 1,7,-1
 198 205 l 1,4,-1
EndSplineSet
EndChar

StartChar: quotedbl
Encoding: 34 34 5
Width: 511
GlyphClass: 2
Flags: W
LayerCount: 2
Fore
SplineSet
276 530 m 1,0,-1
 359 822 l 1,1,-1
 477 822 l 1,2,-1
 349 530 l 1,3,-1
 276 530 l 1,0,-1
66 530 m 1,4,-1
 150 822 l 1,5,-1
 269 822 l 1,6,-1
 140 530 l 1,7,-1
 66 530 l 1,4,-1
EndSplineSet
EndChar

StartChar: numbersign
Encoding: 35 35 6
Width: 717
GlyphClass: 2
Flags: W
LayerCount: 2
Fore
SplineSet
49 196 m 1,0,-1
 49 266 l 1,1,-1
 174 266 l 1,2,-1
 199 449 l 1,3,-1
 80 449 l 1,4,-1
 80 518 l 1,5,-1
 208 518 l 1,6,-1
 234 712 l 1,7,-1
 317 712 l 1,8,-1
 291 518 l 1,9,-1
 471 518 l 1,10,-1
 496 712 l 1,11,-1
 579 712 l 1,12,-1
 553 518 l 1,13,-1
 669 518 l 1,14,-1
 669 449 l 1,15,-1
 544 449 l 1,16,-1
 520 266 l 1,17,-1
 639 266 l 1,18,-1
 639 196 l 1,19,-1
 512 196 l 1,20,-1
 486 2 l 1,21,-1
 401 2 l 1,22,-1
 428 196 l 1,23,-1
 249 196 l 1,24,-1
 223 2 l 1,25,-1
 139 2 l 1,26,-1
 165 196 l 1,27,-1
 49 196 l 1,0,-1
258 266 m 1,28,-1
 436 266 l 1,29,-1
 461 449 l 1,30,-1
 281 449 l 1,31,-1
 258 266 l 1,28,-1
EndSplineSet
EndChar

StartChar: dollar
Encoding: 36 36 7
Width: 585
GlyphClass: 2
Flags: W
LayerCount: 2
Fore
SplineSet
56 141 m 1,0,-1
 125 175 l 1,1,2
 154 131 154 131 201 104 c 128,-1,3
 248 77 248 77 297 77 c 0,4,5
 354 77 354 77 393 106.5 c 128,-1,6
 432 136 432 136 432 194 c 0,7,8
 432 217 432 217 423 236 c 128,-1,9
 414 255 414 255 404 267.5 c 128,-1,10
 394 280 394 280 368.5 294.5 c 128,-1,11
 343 309 343 309 327 317 c 128,-1,12
 311 325 311 325 272.5 340.5 c 128,-1,13
 234 356 234 356 215 365 c 0,14,15
 144 397 144 397 110 440.5 c 128,-1,16
 76 484 76 484 76 549 c 0,17,18
 76 613 76 613 122.5 666.5 c 128,-1,19
 169 720 169 720 252 730 c 1,20,-1
 252 812 l 1,21,-1
 337 812 l 1,22,-1
 337 729 l 1,23,24
 391 725 391 725 440 688.5 c 128,-1,25
 489 652 489 652 508 610 c 1,26,-1
 437 576 l 1,27,28
 381 657 381 657 295 657 c 0,29,30
 237 657 237 657 203 626 c 128,-1,31
 169 595 169 595 169 548 c 0,32,33
 169 520 169 520 177 501 c 128,-1,34
 185 482 185 482 216 462 c 128,-1,35
 247 442 247 442 261 436 c 128,-1,36
 275 430 275 430 330 407 c 0,37,38
 345 400 345 400 353 397 c 0,39,40
 389 382 389 382 415.5 367 c 128,-1,41
 442 352 442 352 469 329 c 128,-1,42
 496 306 496 306 510.5 273.5 c 128,-1,43
 525 241 525 241 525 201 c 0,44,45
 525 117 525 117 472.5 65 c 128,-1,46
 420 13 420 13 337 2 c 1,47,-1
 337 -74 l 1,48,-1
 252 -74 l 1,49,-1
 252 4 l 1,50,51
 196 9 196 9 140 46.5 c 128,-1,52
 84 84 84 84 56 141 c 1,0,-1
EndSplineSet
EndChar

StartChar: percent
Encoding: 37 37 8
Width: 982
GlyphClass: 2
Flags: W
LayerCount: 2
Fore
SplineSet
531 163 m 256,0,1
 531 242 531 242 585 292.5 c 128,-1,2
 639 343 639 343 723 343 c 0,3,4
 806 343 806 343 860.5 292.5 c 128,-1,5
 915 242 915 242 915 163 c 0,6,7
 915 82 915 82 860.5 32.5 c 128,-1,8
 806 -17 806 -17 723 -17 c 0,9,10
 641 -17 641 -17 586 33.5 c 128,-1,11
 531 84 531 84 531 163 c 256,0,1
617 163 m 256,12,13
 617 113 617 113 648.5 83 c 128,-1,14
 680 53 680 53 723 53 c 0,15,16
 767 53 767 53 797.5 83 c 128,-1,17
 828 113 828 113 828 163 c 256,18,19
 828 213 828 213 798 243 c 128,-1,20
 768 273 768 273 723 273 c 0,21,22
 679 273 679 273 648 243 c 128,-1,23
 617 213 617 213 617 163 c 256,12,13
67 572 m 0,24,25
 67 651 67 651 120.5 701.5 c 128,-1,26
 174 752 174 752 259 752 c 0,27,28
 343 752 343 752 397 701.5 c 128,-1,29
 451 651 451 651 451 572 c 0,30,31
 451 492 451 492 396.5 442 c 128,-1,32
 342 392 342 392 259 392 c 256,33,34
 176 392 176 392 121.5 442 c 128,-1,35
 67 492 67 492 67 572 c 0,24,25
154 572 m 256,36,37
 154 522 154 522 185 492 c 128,-1,38
 216 462 216 462 259 462 c 256,39,40
 302 462 302 462 333.5 492.5 c 128,-1,41
 365 523 365 523 365 572 c 0,42,43
 365 622 365 622 334.5 652 c 128,-1,44
 304 682 304 682 259 682 c 0,45,46
 215 682 215 682 184.5 652 c 128,-1,47
 154 622 154 622 154 572 c 256,36,37
182 -2 m 1,48,-1
 706 737 l 1,49,-1
 801 737 l 1,50,-1
 276 -2 l 1,51,-1
 182 -2 l 1,48,-1
EndSplineSet
EndChar

StartChar: ampersand
Encoding: 38 38 9
Width: 653
GlyphClass: 2
Flags: W
LayerCount: 2
Fore
SplineSet
148 189 m 0,0,1
 148 129 148 129 187 94.5 c 128,-1,2
 226 60 226 60 288 60 c 0,3,4
 371 60 371 60 438 138 c 1,5,-1
 265 370 l 1,6,7
 148 287 148 287 148 189 c 0,0,1
55 188 m 0,8,9
 55 328 55 328 219 434 c 1,10,11
 190 474 190 474 180.5 488.5 c 128,-1,12
 171 503 171 503 160 530.5 c 128,-1,13
 149 558 149 558 149 586 c 0,14,15
 149 652 149 652 198.5 697 c 128,-1,16
 248 742 248 742 334 742 c 0,17,18
 407 742 407 742 456.5 706 c 128,-1,19
 506 670 506 670 532 614 c 1,20,-1
 462 583 l 1,21,22
 444 617 444 617 412 641.5 c 128,-1,23
 380 666 380 666 341 666 c 0,24,25
 295 666 295 666 269 642 c 128,-1,26
 243 618 243 618 243 583 c 0,27,28
 243 546 243 546 297 466.5 c 128,-1,29
 351 387 351 387 485 213 c 1,30,31
 512 272 512 272 525 348 c 1,32,-1
 609 333 l 1,33,34
 592 227 592 227 541 140 c 1,35,-1
 650 0 l 1,36,-1
 542 0 l 1,37,-1
 488 69 l 1,38,39
 405 -17 405 -17 285 -17 c 0,40,41
 175 -17 175 -17 115 41.5 c 128,-1,42
 55 100 55 100 55 188 c 0,8,9
EndSplineSet
EndChar

StartChar: quotesingle
Encoding: 39 39 10
Width: 316
GlyphClass: 2
Flags: W
LayerCount: 2
Fore
SplineSet
79 530 m 1,0,-1
 162 822 l 1,1,-1
 280 822 l 1,2,-1
 152 530 l 1,3,-1
 79 530 l 1,0,-1
EndSplineSet
EndChar

StartChar: parenleft
Encoding: 40 40 11
Width: 444
GlyphClass: 2
Flags: W
LayerCount: 2
Fore
SplineSet
142 353 m 0,0,1
 142 632 142 632 312 852 c 1,2,-1
 378 815 l 1,3,4
 349 769 349 769 338 751.5 c 128,-1,5
 327 734 327 734 301.5 683 c 128,-1,6
 276 632 276 632 264.5 592 c 128,-1,7
 253 552 253 552 242.5 487.5 c 128,-1,8
 232 423 232 423 232 353 c 0,9,10
 232 270 232 270 243.5 200.5 c 128,-1,11
 255 131 255 131 279.5 72.5 c 128,-1,12
 304 14 304 14 324 -21.5 c 128,-1,13
 344 -57 344 -57 378 -109 c 1,14,-1
 312 -146 l 1,15,16
 234 -43 234 -43 188 75 c 128,-1,17
 142 193 142 193 142 353 c 0,0,1
EndSplineSet
Substitution2: "'sups' Superscript lookup 5 subtable" uni207D
Substitution2: "'aalt' Access All Alternates lookup 0 subtable" uni207D
EndChar

StartChar: parenright
Encoding: 41 41 12
Width: 444
GlyphClass: 2
Flags: W
LayerCount: 2
Fore
SplineSet
66 -109 m 1,0,1
 140 -1 140 -1 176 104.5 c 128,-1,2
 212 210 212 210 212 353 c 0,3,4
 212 435 212 435 200.5 504 c 128,-1,5
 189 573 189 573 165 631.5 c 128,-1,6
 141 690 141 690 120.5 726.5 c 128,-1,7
 100 763 100 763 66 815 c 1,8,-1
 133 852 l 1,9,10
 303 630 303 630 303 353 c 0,11,12
 303 193 303 193 257 74.5 c 128,-1,13
 211 -44 211 -44 133 -146 c 1,14,-1
 66 -109 l 1,0,1
EndSplineSet
Substitution2: "'sups' Superscript lookup 5 subtable" uni207E
Substitution2: "'aalt' Access All Alternates lookup 0 subtable" uni207E
EndChar

StartChar: asterisk
Encoding: 42 42 13
Width: 558
GlyphClass: 2
Flags: W
LayerCount: 2
Fore
SplineSet
21 411 m 1,0,-1
 54 486 l 1,1,-1
 243 413 l 1,2,-1
 235 603 l 1,3,-1
 322 603 l 1,4,-1
 315 413 l 1,5,-1
 504 486 l 1,6,-1
 536 411 l 1,7,-1
 335 344 l 1,8,-1
 486 179 l 1,9,-1
 417 129 l 1,10,-1
 278 305 l 1,11,-1
 140 129 l 1,12,-1
 72 179 l 1,13,-1
 223 344 l 1,14,-1
 21 411 l 1,0,-1
EndSplineSet
EndChar

StartChar: plus
Encoding: 43 43 14
Width: 558
GlyphClass: 2
Flags: W
LayerCount: 2
Fore
SplineSet
27 324 m 1,0,-1
 27 404 l 1,1,-1
 234 404 l 1,2,-1
 234 609 l 1,3,-1
 323 609 l 1,4,-1
 323 404 l 1,5,-1
 530 404 l 1,6,-1
 530 324 l 1,7,-1
 323 324 l 1,8,-1
 323 111 l 1,9,-1
 234 111 l 1,10,-1
 234 324 l 1,11,-1
 27 324 l 1,0,-1
EndSplineSet
Substitution2: "'sups' Superscript lookup 5 subtable" uni207A
Substitution2: "'aalt' Access All Alternates lookup 0 subtable" uni207A
EndChar

StartChar: comma
Encoding: 44 44 15
Width: 275
GlyphClass: 2
Flags: W
LayerCount: 2
Fore
SplineSet
10 -166 m 1,0,-1
 94 126 l 1,1,-1
 213 126 l 1,2,-1
 84 -166 l 1,3,-1
 10 -166 l 1,0,-1
EndSplineSet
EndChar

StartChar: hyphen
Encoding: 45 45 16
Width: 391
GlyphClass: 2
Flags: W
LayerCount: 2
Fore
SplineSet
33 324 m 1,0,-1
 33 404 l 1,1,-1
 357 404 l 1,2,-1
 357 324 l 1,3,-1
 33 324 l 1,0,-1
EndSplineSet
EndChar

StartChar: period
Encoding: 46 46 17
Width: 275
GlyphClass: 2
Flags: W
LayerCount: 2
Fore
SplineSet
71 0 m 1,0,-1
 71 126 l 1,1,-1
 206 126 l 1,2,-1
 206 0 l 1,3,-1
 71 0 l 1,0,-1
EndSplineSet
EndChar

StartChar: slash
Encoding: 47 47 18
Width: 351
GlyphClass: 2
Flags: W
LayerCount: 2
Fore
SplineSet
-13 -55 m 1,0,-1
 270 781 l 1,1,-1
 365 781 l 1,2,-1
 82 -55 l 1,3,-1
 -13 -55 l 1,0,-1
EndSplineSet
EndChar

StartChar: zero
Encoding: 48 48 19
Width: 550
GlyphClass: 2
Flags: W
LayerCount: 2
Fore
SplineSet
138 367 m 0,0,1
 138 276 138 276 151 210 c 128,-1,2
 164 144 164 144 195.5 102 c 128,-1,3
 227 60 227 60 276 60 c 0,4,5
 314 60 314 60 341.5 85 c 128,-1,6
 369 110 369 110 384 154.5 c 128,-1,7
 399 199 399 199 405.5 251 c 128,-1,8
 412 303 412 303 412 367 c 0,9,10
 412 507 412 507 378.5 591.5 c 128,-1,11
 345 676 345 676 274 676 c 0,12,13
 204 676 204 676 171 592.5 c 128,-1,14
 138 509 138 509 138 367 c 0,0,1
41 367 m 0,15,16
 41 472 41 472 61.5 550 c 128,-1,17
 82 628 82 628 116 670.5 c 128,-1,18
 150 713 150 713 189.5 732.5 c 128,-1,19
 229 752 229 752 274 752 c 0,20,21
 385 752 385 752 446.5 652 c 128,-1,22
 508 552 508 552 508 367 c 0,23,24
 508 194 508 194 450 88.5 c 128,-1,25
 392 -17 392 -17 276 -17 c 0,26,27
 231 -17 231 -17 191 3 c 128,-1,28
 151 23 151 23 116.5 66.5 c 128,-1,29
 82 110 82 110 61.5 187 c 128,-1,30
 41 264 41 264 41 367 c 0,15,16
EndSplineSet
EndChar

StartChar: one
Encoding: 49 49 20
Width: 550
GlyphClass: 2
Flags: W
LayerCount: 2
Fore
SplineSet
89 547 m 1,0,-1
 89 618 l 1,1,-1
 120 618 l 2,2,3
 204 618 204 618 236 645.5 c 128,-1,4
 268 673 268 673 268 722 c 2,5,-1
 268 743 l 1,6,-1
 349 743 l 1,7,-1
 349 -10 l 1,8,-1
 252 -10 l 1,9,-1
 252 547 l 1,10,-1
 89 547 l 1,0,-1
EndSplineSet
Substitution2: "'subs' Subscript lookup 6 subtable" uni2081
Substitution2: "'sups' Superscript lookup 5 subtable" onesuperior
Substitution2: "'sinf' Scientific Inferiors lookup 4 subtable" uni2081
AlternateSubs2: "'aalt' Access All Alternates lookup 1 subtable" uni2081 onesuperior
EndChar

StartChar: two
Encoding: 50 50 21
Width: 550
GlyphClass: 2
Flags: W
LayerCount: 2
Fore
SplineSet
44 564 m 1,0,1
 65 651 65 651 122.5 701.5 c 128,-1,2
 180 752 180 752 272 752 c 0,3,4
 368 752 368 752 429 697.5 c 128,-1,5
 490 643 490 643 490 546 c 0,6,7
 490 436 490 436 377 328 c 0,8,9
 367 318 367 318 338.5 291 c 128,-1,10
 310 264 310 264 301.5 255.5 c 128,-1,11
 293 247 293 247 270.5 225 c 128,-1,12
 248 203 248 203 240 193.5 c 128,-1,13
 232 184 232 184 216.5 165.5 c 128,-1,14
 201 147 201 147 193.5 135 c 128,-1,15
 186 123 186 123 177 107.5 c 128,-1,16
 168 92 168 92 162 77 c 1,17,-1
 489 77 l 1,18,-1
 489 0 l 1,19,-1
 49 0 l 1,20,21
 49 40 49 40 65 82.5 c 128,-1,22
 81 125 81 125 99.5 156 c 128,-1,23
 118 187 118 187 160 232.5 c 128,-1,24
 202 278 202 278 225.5 300.5 c 128,-1,25
 249 323 249 323 302 373 c 0,26,27
 394 460 394 460 394 548 c 0,28,29
 394 609 394 609 360 642.5 c 128,-1,30
 326 676 326 676 271 676 c 0,31,32
 214 676 214 676 177 640 c 128,-1,33
 140 604 140 604 125 541 c 1,34,-1
 44 564 l 1,0,1
EndSplineSet
Substitution2: "'subs' Subscript lookup 6 subtable" uni2082
Substitution2: "'sups' Superscript lookup 5 subtable" twosuperior
Substitution2: "'sinf' Scientific Inferiors lookup 4 subtable" uni2082
AlternateSubs2: "'aalt' Access All Alternates lookup 1 subtable" uni2082 twosuperior
EndChar

StartChar: three
Encoding: 51 51 22
Width: 550
GlyphClass: 2
Flags: W
LayerCount: 2
Fore
SplineSet
30 134 m 1,0,-1
 107 164 l 1,1,2
 157 60 157 60 263 60 c 0,3,4
 326 60 326 60 369 98 c 128,-1,5
 412 136 412 136 412 206 c 0,6,7
 412 272 412 272 365 310 c 128,-1,8
 318 348 318 348 248 348 c 0,9,10
 221 348 221 348 187 345 c 1,11,-1
 187 422 l 1,12,13
 209 420 209 420 245 420 c 0,14,15
 304 420 304 420 343.5 455 c 128,-1,16
 383 490 383 490 383 552 c 0,17,18
 383 606 383 606 348.5 641 c 128,-1,19
 314 676 314 676 259 676 c 0,20,21
 169 676 169 676 126 566 c 1,22,-1
 49 591 l 1,23,24
 71 663 71 663 125.5 707.5 c 128,-1,25
 180 752 180 752 264 752 c 0,26,27
 363 752 363 752 421.5 697.5 c 128,-1,28
 480 643 480 643 480 561 c 0,29,30
 480 499 480 499 447 454 c 128,-1,31
 414 409 414 409 368 389 c 1,32,33
 424 373 424 373 466 326.5 c 128,-1,34
 508 280 508 280 508 206 c 0,35,36
 508 100 508 100 441.5 41.5 c 128,-1,37
 375 -17 375 -17 264 -17 c 0,38,39
 177 -17 177 -17 115.5 26.5 c 128,-1,40
 54 70 54 70 30 134 c 1,0,-1
EndSplineSet
Substitution2: "'subs' Subscript lookup 6 subtable" uni2083
Substitution2: "'sups' Superscript lookup 5 subtable" threesuperior
Substitution2: "'sinf' Scientific Inferiors lookup 4 subtable" uni2083
AlternateSubs2: "'aalt' Access All Alternates lookup 1 subtable" uni2083 threesuperior
EndChar

StartChar: four
Encoding: 52 52 23
Width: 550
GlyphClass: 2
Flags: W
LayerCount: 2
Fore
SplineSet
109 239 m 1,0,-1
 341 239 l 1,1,-1
 341 493 l 2,2,3
 341 551 341 551 345 604 c 1,4,-1
 341 604 l 1,5,-1
 280 506 l 1,6,-1
 109 239 l 1,0,-1
18 237 m 1,7,-1
 351 744 l 1,8,-1
 434 744 l 1,9,-1
 434 239 l 1,10,-1
 535 239 l 1,11,-1
 535 162 l 1,12,-1
 434 162 l 1,13,-1
 434 -9 l 1,14,-1
 341 -9 l 1,15,-1
 341 162 l 1,16,-1
 18 162 l 1,17,-1
 18 237 l 1,7,-1
EndSplineSet
Substitution2: "'subs' Subscript lookup 6 subtable" uni2084
Substitution2: "'sups' Superscript lookup 5 subtable" uni2074
Substitution2: "'sinf' Scientific Inferiors lookup 4 subtable" uni2084
AlternateSubs2: "'aalt' Access All Alternates lookup 1 subtable" uni2084 uni2074
EndChar

StartChar: five
Encoding: 53 53 24
Width: 550
GlyphClass: 2
Flags: W
LayerCount: 2
Fore
SplineSet
39 125 m 1,0,-1
 117 153 l 1,1,2
 138 111 138 111 174.5 85.5 c 128,-1,3
 211 60 211 60 256 60 c 0,4,5
 324 60 324 60 363 105 c 128,-1,6
 402 150 402 150 402 223 c 256,7,8
 402 296 402 296 360.5 341.5 c 128,-1,9
 319 387 319 387 253 387 c 0,10,11
 176 387 176 387 119 322 c 1,12,-1
 62 344 l 1,13,-1
 100 735 l 1,14,-1
 455 735 l 1,15,-1
 455 658 l 1,16,-1
 186 658 l 1,17,-1
 161 426 l 1,18,19
 215 463 215 463 286 463 c 0,20,21
 379 463 379 463 438.5 398.5 c 128,-1,22
 498 334 498 334 498 225 c 0,23,24
 498 125 498 125 437.5 54 c 128,-1,25
 377 -17 377 -17 258 -17 c 0,26,27
 179 -17 179 -17 123.5 22 c 128,-1,28
 68 61 68 61 39 125 c 1,0,-1
EndSplineSet
EndChar

StartChar: six
Encoding: 54 54 25
Width: 550
GlyphClass: 2
Flags: W
LayerCount: 2
Fore
SplineSet
142 230 m 0,0,1
 142 155 142 155 181 107.5 c 128,-1,2
 220 60 220 60 282 60 c 0,3,4
 342 60 342 60 380.5 106.5 c 128,-1,5
 419 153 419 153 419 230 c 0,6,7
 419 309 419 309 380 356 c 128,-1,8
 341 403 341 403 280 403 c 0,9,10
 221 403 221 403 181.5 353.5 c 128,-1,11
 142 304 142 304 142 230 c 0,0,1
43 329 m 0,12,13
 43 411 43 411 57.5 484 c 128,-1,14
 72 557 72 557 102 618.5 c 128,-1,15
 132 680 132 680 184.5 716 c 128,-1,16
 237 752 237 752 306 752 c 0,17,18
 441 752 441 752 507 614 c 1,19,-1
 432 588 l 1,20,21
 382 676 382 676 306 676 c 0,22,23
 182 676 182 676 149 467 c 0,24,25
 140 414 140 414 138 380 c 1,26,27
 157 424 157 424 198 452 c 128,-1,28
 239 480 239 480 294 480 c 0,29,30
 391 480 391 480 452 409 c 128,-1,31
 513 338 513 338 513 231 c 256,32,33
 513 124 513 124 452.5 53.5 c 128,-1,34
 392 -17 392 -17 286 -17 c 0,35,36
 174 -17 174 -17 112 61 c 0,37,38
 43 143 43 143 43 329 c 0,12,13
EndSplineSet
EndChar

StartChar: seven
Encoding: 55 55 26
Width: 550
GlyphClass: 2
Flags: W
LayerCount: 2
Fore
SplineSet
37 655 m 1,0,-1
 37 735 l 1,1,-1
 496 735 l 1,2,-1
 496 671 l 1,3,4
 308 367 308 367 225 -9 c 1,5,-1
 129 -9 l 1,6,7
 196 321 196 321 387 655 c 1,8,-1
 37 655 l 1,0,-1
EndSplineSet
EndChar

StartChar: eight
Encoding: 56 56 27
Width: 550
GlyphClass: 2
Flags: W
LayerCount: 2
Fore
SplineSet
154 551 m 0,0,1
 154 495 154 495 188.5 461.5 c 128,-1,2
 223 428 223 428 274 428 c 0,3,4
 327 428 327 428 361.5 462.5 c 128,-1,5
 396 497 396 497 396 551 c 256,6,7
 396 605 396 605 361.5 640.5 c 128,-1,8
 327 676 327 676 274 676 c 0,9,10
 220 676 220 676 187 639.5 c 128,-1,11
 154 603 154 603 154 551 c 0,0,1
35 198 m 0,12,13
 35 276 35 276 74.5 324 c 128,-1,14
 114 372 114 372 171 391 c 1,15,16
 58 443 58 443 58 556 c 0,17,18
 58 640 58 640 119 696 c 128,-1,19
 180 752 180 752 274 752 c 0,20,21
 367 752 367 752 429.5 696.5 c 128,-1,22
 492 641 492 641 492 556 c 0,23,24
 492 493 492 493 459.5 452 c 128,-1,25
 427 411 427 411 378 391 c 1,26,27
 437 372 437 372 477 323 c 128,-1,28
 517 274 517 274 517 197 c 0,29,30
 517 103 517 103 448.5 43 c 128,-1,31
 380 -17 380 -17 274 -17 c 0,32,33
 173 -17 173 -17 104 41 c 128,-1,34
 35 99 35 99 35 198 c 0,12,13
131 203 m 0,35,36
 131 141 131 141 171.5 100.5 c 128,-1,37
 212 60 212 60 274 60 c 0,38,39
 337 60 337 60 378.5 101 c 128,-1,40
 420 142 420 142 420 203 c 0,41,42
 420 265 420 265 378 308.5 c 128,-1,43
 336 352 336 352 274 352 c 0,44,45
 214 352 214 352 172.5 309 c 128,-1,46
 131 266 131 266 131 203 c 0,35,36
EndSplineSet
EndChar

StartChar: nine
Encoding: 57 57 28
Width: 550
GlyphClass: 2
Flags: W
LayerCount: 2
Fore
SplineSet
129 506 m 0,0,1
 129 430 129 430 169.5 382.5 c 128,-1,2
 210 335 210 335 266 335 c 0,3,4
 324 335 324 335 363.5 383 c 128,-1,5
 403 431 403 431 403 505 c 0,6,7
 403 577 403 577 364.5 626.5 c 128,-1,8
 326 676 326 676 266 676 c 0,9,10
 207 676 207 676 168 628.5 c 128,-1,11
 129 581 129 581 129 506 c 0,0,1
38 124 m 1,12,-1
 115 150 l 1,13,14
 135 111 135 111 168.5 85.5 c 128,-1,15
 202 60 202 60 245 60 c 0,16,17
 289 60 289 60 321.5 84 c 128,-1,18
 354 108 354 108 372 150.5 c 128,-1,19
 390 193 390 193 398.5 242.5 c 128,-1,20
 407 292 407 292 408 350 c 1,21,22
 390 313 390 313 350 286 c 128,-1,23
 310 259 310 259 253 259 c 0,24,25
 164 259 164 259 99.5 325.5 c 128,-1,26
 35 392 35 392 35 505 c 0,27,28
 35 614 35 614 101 683 c 128,-1,29
 167 752 167 752 266 752 c 0,30,31
 350 752 350 752 408.5 697.5 c 128,-1,32
 467 643 467 643 486 557 c 0,33,34
 500 497 500 497 500 404 c 0,35,36
 500 206 500 206 438 94.5 c 128,-1,37
 376 -17 376 -17 244 -17 c 0,38,39
 170 -17 170 -17 116 25.5 c 128,-1,40
 62 68 62 68 38 124 c 1,12,-1
EndSplineSet
EndChar

StartChar: colon
Encoding: 58 58 29
Width: 275
GlyphClass: 2
Flags: W
LayerCount: 2
Fore
SplineSet
71 0 m 1,0,-1
 71 126 l 1,1,-1
 206 126 l 1,2,-1
 206 0 l 1,3,-1
 71 0 l 1,0,-1
71 390 m 1,4,-1
 71 516 l 1,5,-1
 206 516 l 1,6,-1
 206 390 l 1,7,-1
 71 390 l 1,4,-1
EndSplineSet
EndChar

StartChar: semicolon
Encoding: 59 59 30
Width: 275
GlyphClass: 2
Flags: W
LayerCount: 2
Fore
SplineSet
10 -166 m 1,0,-1
 94 126 l 1,1,-1
 213 126 l 1,2,-1
 84 -166 l 1,3,-1
 10 -166 l 1,0,-1
72 390 m 1,4,-1
 72 516 l 1,5,-1
 208 516 l 1,6,-1
 208 390 l 1,7,-1
 72 390 l 1,4,-1
EndSplineSet
EndChar

StartChar: less
Encoding: 60 60 31
Width: 558
GlyphClass: 2
Flags: W
LayerCount: 2
Fore
SplineSet
48 314 m 1,0,-1
 48 398 l 1,1,-1
 459 704 l 1,2,-1
 509 636 l 1,3,-1
 138 355 l 1,4,-1
 509 75 l 1,5,-1
 459 7 l 1,6,-1
 48 314 l 1,0,-1
EndSplineSet
EndChar

StartChar: equal
Encoding: 61 61 32
Width: 558
GlyphClass: 2
Flags: W
LayerCount: 2
Fore
SplineSet
47 224 m 1,0,-1
 47 304 l 1,1,-1
 510 304 l 1,2,-1
 510 224 l 1,3,-1
 47 224 l 1,0,-1
47 423 m 1,4,-1
 47 503 l 1,5,-1
 510 503 l 1,6,-1
 510 423 l 1,7,-1
 47 423 l 1,4,-1
EndSplineSet
Substitution2: "'sups' Superscript lookup 5 subtable" uni207C
Substitution2: "'aalt' Access All Alternates lookup 0 subtable" uni207C
EndChar

StartChar: greater
Encoding: 62 62 33
Width: 558
GlyphClass: 2
Flags: W
LayerCount: 2
Fore
SplineSet
97 7 m 1,0,-1
 50 75 l 1,1,-1
 420 355 l 1,2,-1
 50 636 l 1,3,-1
 97 704 l 1,4,-1
 511 398 l 1,5,-1
 511 314 l 1,6,-1
 97 7 l 1,0,-1
EndSplineSet
EndChar

StartChar: question
Encoding: 63 63 34
Width: 560
GlyphClass: 2
Flags: W
LayerCount: 2
Fore
SplineSet
62 588 m 1,0,1
 86 662 86 662 143.5 707.5 c 128,-1,2
 201 753 201 753 281 753 c 0,3,4
 376 753 376 753 433 698 c 128,-1,5
 490 643 490 643 490 552 c 0,6,7
 490 507 490 507 472.5 471 c 128,-1,8
 455 435 455 435 429.5 410 c 128,-1,9
 404 385 404 385 378.5 361 c 128,-1,10
 353 337 353 337 335 303.5 c 128,-1,11
 317 270 317 270 317 228 c 2,12,-1
 317 200 l 1,13,-1
 223 200 l 1,14,-1
 223 235 l 2,15,16
 223 282 223 282 241 320.5 c 128,-1,17
 259 359 259 359 284 384.5 c 128,-1,18
 309 410 309 410 334 434 c 128,-1,19
 359 458 359 458 377 488.5 c 128,-1,20
 395 519 395 519 395 555 c 0,21,22
 395 609 395 609 364.5 641.5 c 128,-1,23
 334 674 334 674 282 674 c 0,24,25
 191 674 191 674 144 560 c 1,26,-1
 62 588 l 1,0,1
202 -8 m 1,27,-1
 202 115 l 1,28,-1
 338 115 l 1,29,-1
 338 -8 l 1,30,-1
 202 -8 l 1,27,-1
EndSplineSet
EndChar

StartChar: at
Encoding: 64 64 35
Width: 941
GlyphClass: 2
Flags: W
LayerCount: 2
Fore
SplineSet
55 346 m 0,0,1
 55 531 55 531 176.5 648 c 128,-1,2
 298 765 298 765 491 765 c 0,3,4
 666 765 666 765 776 662 c 128,-1,5
 886 559 886 559 886 398 c 0,6,7
 886 255 886 255 826.5 185.5 c 128,-1,8
 767 116 767 116 690 116 c 0,9,10
 646 116 646 116 614 144 c 128,-1,11
 582 172 582 172 578 216 c 1,12,-1
 577 216 l 1,13,14
 562 178 562 178 522 147.5 c 128,-1,15
 482 117 482 117 430 117 c 0,16,17
 358 117 358 117 310.5 170.5 c 128,-1,18
 263 224 263 224 263 313 c 0,19,20
 263 432 263 432 324.5 499.5 c 128,-1,21
 386 567 386 567 471 567 c 0,22,23
 542 567 542 567 581 509 c 1,24,-1
 585 559 l 1,25,-1
 655 559 l 1,26,-1
 641 274 l 2,27,28
 641 269 641 269 641 264 c 0,29,30
 641 227 641 227 655 206 c 128,-1,31
 669 185 669 185 696 185 c 0,32,33
 743 185 743 185 774.5 240 c 128,-1,34
 806 295 806 295 806 392 c 0,35,36
 806 528 806 528 720.5 612.5 c 128,-1,37
 635 697 635 697 490 697 c 0,38,39
 335 697 335 697 235.5 599 c 128,-1,40
 136 501 136 501 136 346 c 0,41,42
 136 183 136 183 232 89 c 128,-1,43
 328 -5 328 -5 480 -5 c 0,44,45
 591 -5 591 -5 695 25 c 1,46,-1
 709 -38 l 1,47,48
 607 -72 607 -72 480 -72 c 0,49,50
 287 -72 287 -72 171 44 c 128,-1,51
 55 160 55 160 55 346 c 0,0,1
348 314 m 0,52,53
 348 261 348 261 373.5 225.5 c 128,-1,54
 399 190 399 190 440 190 c 0,55,56
 487 190 487 190 527 239 c 128,-1,57
 567 288 567 288 567 399 c 0,58,59
 567 440 567 440 544.5 469.5 c 128,-1,60
 522 499 522 499 476 499 c 0,61,62
 428 499 428 499 388 448.5 c 128,-1,63
 348 398 348 398 348 314 c 0,52,53
EndSplineSet
EndChar

StartChar: A
Encoding: 65 65 36
Width: 644
GlyphClass: 2
Flags: W
LayerCount: 2
Fore
SplineSet
194 276 m 1,0,-1
 451 276 l 1,1,-1
 373 505 l 2,2,3
 367 522 367 522 350 573 c 128,-1,4
 333 624 333 624 326 647 c 1,5,-1
 320 647 l 1,6,7
 313 626 313 626 296 576 c 128,-1,8
 279 526 279 526 273 505 c 2,9,-1
 194 276 l 1,0,-1
-4 0 m 1,10,-1
 268 735 l 1,11,-1
 378 735 l 1,12,-1
 648 0 l 1,13,-1
 547 0 l 1,14,-1
 478 201 l 1,15,-1
 168 201 l 1,16,-1
 97 0 l 1,17,-1
 -4 0 l 1,10,-1
EndSplineSet
Substitution2: "Single Substitution lookup 12 subtable" ordfeminine
EndChar

StartChar: B
Encoding: 66 66 37
Width: 666
GlyphClass: 2
Flags: W
LayerCount: 2
Fore
SplineSet
95 0 m 1,0,-1
 95 735 l 1,1,-1
 369 735 l 2,2,3
 479 735 479 735 535.5 683.5 c 128,-1,4
 592 632 592 632 592 544 c 0,5,6
 592 487 592 487 564 447 c 128,-1,7
 536 407 536 407 491 386 c 1,8,9
 544 370 544 370 581.5 322.5 c 128,-1,10
 619 275 619 275 619 208 c 0,11,12
 619 121 619 121 562.5 60.5 c 128,-1,13
 506 0 506 0 405 0 c 2,14,-1
 95 0 l 1,0,-1
189 80 m 1,15,-1
 384 80 l 2,16,17
 443 80 443 80 483 113.5 c 128,-1,18
 523 147 523 147 523 207 c 0,19,20
 523 264 523 264 484.5 301.5 c 128,-1,21
 446 339 446 339 381 339 c 2,22,-1
 189 339 l 1,23,-1
 189 80 l 1,15,-1
189 417 m 1,24,-1
 355 417 l 2,25,26
 416 417 416 417 456 447.5 c 128,-1,27
 496 478 496 478 496 538 c 0,28,29
 496 591 496 591 463.5 623 c 128,-1,30
 431 655 431 655 359 655 c 2,31,-1
 189 655 l 1,32,-1
 189 417 l 1,24,-1
EndSplineSet
EndChar

StartChar: C
Encoding: 67 67 38
Width: 654
GlyphClass: 2
Flags: W
LayerCount: 2
Fore
SplineSet
47 367 m 0,0,1
 47 545 47 545 135 648.5 c 128,-1,2
 223 752 223 752 365 752 c 0,3,4
 454 752 454 752 516.5 703.5 c 128,-1,5
 579 655 579 655 610 586 c 1,6,-1
 530 559 l 1,7,8
 465 672 465 672 363 672 c 0,9,10
 262 672 262 672 203 589 c 128,-1,11
 144 506 144 506 144 367 c 0,12,13
 144 226 144 226 204 145 c 128,-1,14
 264 64 264 64 363 64 c 0,15,16
 427 64 427 64 474.5 100 c 128,-1,17
 522 136 522 136 545 189 c 1,18,-1
 629 162 l 1,19,20
 615 129 615 129 593 100 c 128,-1,21
 571 71 571 71 539.5 43 c 128,-1,22
 508 15 508 15 463 -1 c 128,-1,23
 418 -17 418 -17 365 -17 c 0,24,25
 225 -17 225 -17 136 85 c 128,-1,26
 47 187 47 187 47 367 c 0,0,1
EndSplineSet
EndChar

StartChar: D
Encoding: 68 68 39
Width: 687
GlyphClass: 2
Flags: W
LayerCount: 2
Fore
SplineSet
95 0 m 1,0,-1
 95 735 l 1,1,-1
 301 735 l 2,2,3
 461 735 461 735 552 640.5 c 128,-1,4
 643 546 643 546 643 367 c 0,5,6
 643 199 643 199 556.5 99.5 c 128,-1,7
 470 0 470 0 299 0 c 2,8,-1
 95 0 l 1,0,-1
189 79 m 1,9,-1
 286 79 l 2,10,11
 408 79 408 79 477.5 148 c 128,-1,12
 547 217 547 217 547 367 c 0,13,14
 547 655 547 655 288 655 c 2,15,-1
 189 655 l 1,16,-1
 189 79 l 1,9,-1
EndSplineSet
EndChar

StartChar: E
Encoding: 69 69 40
Width: 606
GlyphClass: 2
Flags: W
LayerCount: 2
Fore
SplineSet
95 0 m 1,0,-1
 95 735 l 1,1,-1
 563 735 l 1,2,-1
 563 655 l 1,3,-1
 189 655 l 1,4,-1
 189 419 l 1,5,-1
 526 419 l 1,6,-1
 526 341 l 1,7,-1
 189 341 l 1,8,-1
 189 80 l 1,9,-1
 571 80 l 1,10,-1
 571 0 l 1,11,-1
 95 0 l 1,0,-1
EndSplineSet
EndChar

StartChar: F
Encoding: 70 70 41
Width: 562
GlyphClass: 2
Flags: W
LayerCount: 2
Fore
SplineSet
95 0 m 1,0,-1
 95 735 l 1,1,-1
 549 735 l 1,2,-1
 549 655 l 1,3,-1
 189 655 l 1,4,-1
 189 409 l 1,5,-1
 512 409 l 1,6,-1
 512 330 l 1,7,-1
 189 330 l 1,8,-1
 189 0 l 1,9,-1
 95 0 l 1,0,-1
EndSplineSet
EndChar

StartChar: G
Encoding: 71 71 42
Width: 711
GlyphClass: 2
Flags: W
LayerCount: 2
Fore
SplineSet
47 367 m 0,0,1
 47 537 47 537 134.5 644.5 c 128,-1,2
 222 752 222 752 371 752 c 0,3,4
 423 752 423 752 467.5 736 c 128,-1,5
 512 720 512 720 542.5 693.5 c 128,-1,6
 573 667 573 667 592 641.5 c 128,-1,7
 611 616 611 616 623 590 c 1,8,-1
 543 563 l 1,9,10
 475 672 475 672 371 672 c 0,11,12
 263 672 263 672 203.5 588.5 c 128,-1,13
 144 505 144 505 144 367 c 0,14,15
 144 225 144 225 205.5 144.5 c 128,-1,16
 267 64 267 64 367 64 c 0,17,18
 457 64 457 64 506 120 c 128,-1,19
 555 176 555 176 557 256 c 0,20,21
 557 265 557 265 557.5 288.5 c 128,-1,22
 558 312 558 312 558 322 c 1,23,-1
 359 322 l 1,24,-1
 359 402 l 1,25,-1
 648 402 l 1,26,-1
 648 0 l 1,27,-1
 582 0 l 1,28,-1
 574 96 l 1,29,30
 514 -17 514 -17 364 -17 c 0,31,32
 224 -17 224 -17 135.5 86.5 c 128,-1,33
 47 190 47 190 47 367 c 0,0,1
EndSplineSet
EndChar

StartChar: H
Encoding: 72 72 43
Width: 716
GlyphClass: 2
Flags: W
LayerCount: 2
Fore
SplineSet
95 0 m 1,0,-1
 95 735 l 1,1,-1
 189 735 l 1,2,-1
 189 417 l 1,3,-1
 528 417 l 1,4,-1
 528 735 l 1,5,-1
 621 735 l 1,6,-1
 621 0 l 1,7,-1
 528 0 l 1,8,-1
 528 339 l 1,9,-1
 189 339 l 1,10,-1
 189 0 l 1,11,-1
 95 0 l 1,0,-1
EndSplineSet
EndChar

StartChar: I
Encoding: 73 73 44
Width: 283
GlyphClass: 2
Flags: W
LayerCount: 2
Fore
SplineSet
95 0 m 1,0,-1
 95 735 l 1,1,-1
 189 735 l 1,2,-1
 189 0 l 1,3,-1
 95 0 l 1,0,-1
EndSplineSet
EndChar

StartChar: J
Encoding: 74 74 45
Width: 502
GlyphClass: 2
Flags: W
LayerCount: 2
Fore
SplineSet
11 124 m 1,0,-1
 92 156 l 1,1,2
 104 115 104 115 134 89.5 c 128,-1,3
 164 64 164 64 204 64 c 0,4,5
 313 64 313 64 313 218 c 2,6,-1
 313 735 l 1,7,-1
 407 735 l 1,8,-1
 407 204 l 2,9,10
 407 96 407 96 355 39.5 c 128,-1,11
 303 -17 303 -17 206 -17 c 0,12,13
 127 -17 127 -17 78.5 23 c 128,-1,14
 30 63 30 63 11 124 c 1,0,-1
EndSplineSet
EndChar

StartChar: K
Encoding: 75 75 46
Width: 642
GlyphClass: 2
Flags: W
LayerCount: 2
Fore
SplineSet
95 0 m 1,0,-1
 95 735 l 1,1,-1
 189 735 l 1,2,-1
 189 366 l 1,3,-1
 191 366 l 1,4,-1
 508 735 l 1,5,-1
 630 735 l 1,6,-1
 349 416 l 1,7,-1
 643 0 l 1,8,-1
 527 0 l 1,9,-1
 289 349 l 1,10,-1
 189 235 l 1,11,-1
 189 0 l 1,12,-1
 95 0 l 1,0,-1
EndSplineSet
EndChar

StartChar: L
Encoding: 76 76 47
Width: 540
GlyphClass: 2
Flags: W
LayerCount: 2
Fore
SplineSet
95 0 m 1,0,-1
 95 735 l 1,1,-1
 189 735 l 1,2,-1
 189 80 l 1,3,-1
 533 80 l 1,4,-1
 533 0 l 1,5,-1
 95 0 l 1,0,-1
EndSplineSet
EndChar

StartChar: M
Encoding: 77 77 48
Width: 868
GlyphClass: 2
Flags: W
LayerCount: 2
Fore
SplineSet
95 0 m 1,0,-1
 95 735 l 1,1,-1
 214 735 l 1,2,-1
 364 358 l 2,3,4
 380 318 380 318 404 249 c 128,-1,5
 428 180 428 180 432 171 c 1,6,-1
 435 171 l 1,7,8
 440 185 440 185 506 358 c 2,9,-1
 654 735 l 1,10,-1
 774 735 l 1,11,-1
 774 0 l 1,12,-1
 681 0 l 1,13,-1
 681 387 l 2,14,15
 681 480 681 480 692 611 c 1,16,-1
 688 611 l 1,17,-1
 645 493 l 1,18,-1
 473 50 l 1,19,-1
 397 50 l 1,20,-1
 224 493 l 1,21,-1
 180 612 l 1,22,-1
 176 612 l 1,23,24
 189 461 189 461 189 387 c 2,25,-1
 189 0 l 1,26,-1
 95 0 l 1,0,-1
EndSplineSet
EndChar

StartChar: N
Encoding: 78 78 49
Width: 721
GlyphClass: 2
Flags: W
LayerCount: 2
Fore
SplineSet
95 0 m 1,0,-1
 95 735 l 1,1,-1
 198 735 l 1,2,-1
 453 288 l 1,3,-1
 538 136 l 1,4,-1
 544 136 l 1,5,6
 532 225 532 225 532 345 c 2,7,-1
 532 735 l 1,8,-1
 625 735 l 1,9,-1
 625 0 l 1,10,-1
 522 0 l 1,11,-1
 182 598 l 1,12,-1
 178 598 l 1,13,14
 189 498 189 498 189 389 c 2,15,-1
 189 0 l 1,16,-1
 95 0 l 1,0,-1
EndSplineSet
EndChar

StartChar: O
Encoding: 79 79 50
Width: 711
GlyphClass: 2
Flags: W
LayerCount: 2
Fore
SplineSet
47 367 m 0,0,1
 47 540 47 540 131.5 646 c 128,-1,2
 216 752 216 752 356 752 c 0,3,4
 498 752 498 752 581.5 646 c 128,-1,5
 665 540 665 540 665 366 c 0,6,7
 665 191 665 191 580.5 87 c 128,-1,8
 496 -17 496 -17 356 -17 c 256,9,10
 216 -17 216 -17 131.5 87.5 c 128,-1,11
 47 192 47 192 47 367 c 0,0,1
144 367 m 256,12,13
 144 227 144 227 201 145.5 c 128,-1,14
 258 64 258 64 356 64 c 256,15,16
 454 64 454 64 511 144 c 128,-1,17
 568 224 568 224 568 366 c 0,18,19
 568 506 568 506 512.5 589 c 128,-1,20
 457 672 457 672 356 672 c 0,21,22
 258 672 258 672 201 589.5 c 128,-1,23
 144 507 144 507 144 367 c 256,12,13
EndSplineSet
Substitution2: "Single Substitution lookup 12 subtable" ordmasculine
EndChar

StartChar: P
Encoding: 80 80 51
Width: 648
GlyphClass: 2
Flags: W
LayerCount: 2
Fore
SplineSet
95 0 m 1,0,-1
 95 735 l 1,1,-1
 376 735 l 2,2,3
 486 735 486 735 549 675.5 c 128,-1,4
 612 616 612 616 612 516 c 0,5,6
 612 415 612 415 547.5 356.5 c 128,-1,7
 483 298 483 298 377 298 c 2,8,-1
 189 298 l 1,9,-1
 189 0 l 1,10,-1
 95 0 l 1,0,-1
189 377 m 1,11,-1
 363 377 l 2,12,13
 435 377 435 377 475 412 c 128,-1,14
 515 447 515 447 515 516 c 0,15,16
 515 584 515 584 475.5 619.5 c 128,-1,17
 436 655 436 655 361 655 c 2,18,-1
 189 655 l 1,19,-1
 189 377 l 1,11,-1
EndSplineSet
EndChar

StartChar: Q
Encoding: 81 81 52
Width: 711
GlyphClass: 2
Flags: W
LayerCount: 2
Fore
SplineSet
47 366 m 0,0,1
 47 541 47 541 132 646.5 c 128,-1,2
 217 752 217 752 356 752 c 0,3,4
 497 752 497 752 581 645.5 c 128,-1,5
 665 539 665 539 665 366 c 0,6,7
 665 194 665 194 582 89 c 0,8,9
 581 88 581 88 581 87 c 2,10,-1
 665 1 l 1,11,-1
 607 -50 l 1,12,-1
 525 34 l 1,13,14
 454 -17 454 -17 356 -17 c 0,15,16
 215 -17 215 -17 131 88.5 c 128,-1,17
 47 194 47 194 47 366 c 0,0,1
336 226 m 1,18,-1
 394 278 l 1,19,-1
 516 153 l 1,20,21
 568 233 568 233 568 366 c 0,22,23
 568 510 568 510 511 591 c 128,-1,24
 454 672 454 672 356 672 c 0,25,26
 259 672 259 672 201.5 590 c 128,-1,27
 144 508 144 508 144 366 c 0,28,29
 144 226 144 226 201 145 c 128,-1,30
 258 64 258 64 356 64 c 0,31,32
 418 64 418 64 463 96 c 1,33,-1
 336 226 l 1,18,-1
EndSplineSet
EndChar

StartChar: R
Encoding: 82 82 53
Width: 665
GlyphClass: 2
Flags: W
LayerCount: 2
Fore
SplineSet
189 389 m 1,0,-1
 372 389 l 2,1,2
 442 389 442 389 479.5 425 c 128,-1,3
 517 461 517 461 517 524 c 0,4,5
 517 583 517 583 477.5 619 c 128,-1,6
 438 655 438 655 366 655 c 2,7,-1
 189 655 l 1,8,-1
 189 389 l 1,0,-1
95 0 m 1,9,-1
 95 735 l 1,10,-1
 385 735 l 2,11,12
 495 735 495 735 554.5 676 c 128,-1,13
 614 617 614 617 614 531 c 0,14,15
 614 454 614 454 576.5 405.5 c 128,-1,16
 539 357 539 357 493 344 c 1,17,18
 532 322 532 322 549 292 c 128,-1,19
 566 262 566 262 578 206 c 0,20,21
 589 161 589 161 595 136.5 c 128,-1,22
 601 112 601 112 616 75 c 128,-1,23
 631 38 631 38 653 0 c 1,24,-1
 548 0 l 1,25,26
 509 70 509 70 480 199 c 0,27,28
 467 252 467 252 443.5 280.5 c 128,-1,29
 420 309 420 309 368 309 c 2,30,-1
 189 309 l 1,31,-1
 189 0 l 1,32,-1
 95 0 l 1,9,-1
EndSplineSet
EndChar

StartChar: S
Encoding: 83 83 54
Width: 609
GlyphClass: 2
Flags: W
LayerCount: 2
Fore
SplineSet
35 144 m 1,0,-1
 119 174 l 1,1,2
 148 123 148 123 198.5 93.5 c 128,-1,3
 249 64 249 64 316 64 c 0,4,5
 387 64 387 64 431.5 98.5 c 128,-1,6
 476 133 476 133 476 192 c 0,7,8
 476 223 476 223 463 246.5 c 128,-1,9
 450 270 450 270 422 287 c 128,-1,10
 394 304 394 304 369.5 315 c 128,-1,11
 345 326 345 326 303 339 c 0,12,13
 189 377 189 377 146 404 c 0,14,15
 60 459 60 459 60 557 c 0,16,17
 60 645 60 645 128.5 698.5 c 128,-1,18
 197 752 197 752 310 752 c 0,19,20
 399 752 399 752 463.5 711 c 128,-1,21
 528 670 528 670 557 608 c 1,22,-1
 477 581 l 1,23,24
 418 672 418 672 308 672 c 0,25,26
 238 672 238 672 197 640.5 c 128,-1,27
 156 609 156 609 156 557 c 0,28,29
 156 527 156 527 170.5 504 c 128,-1,30
 185 481 185 481 215 464 c 128,-1,31
 245 447 245 447 272 436.5 c 128,-1,32
 299 426 299 426 343 411 c 0,33,34
 355 407 355 407 361 406 c 0,35,36
 407 390 407 390 439.5 375 c 128,-1,37
 472 360 472 360 505 335.5 c 128,-1,38
 538 311 538 311 555 276 c 128,-1,39
 572 241 572 241 572 195 c 0,40,41
 572 94 572 94 501.5 38.5 c 128,-1,42
 431 -17 431 -17 314 -17 c 0,43,44
 214 -17 214 -17 142 26.5 c 128,-1,45
 70 70 70 70 35 144 c 1,0,-1
EndSplineSet
EndChar

StartChar: T
Encoding: 84 84 55
Width: 553
GlyphClass: 2
Flags: W
LayerCount: 2
Fore
SplineSet
12 655 m 1,0,-1
 12 735 l 1,1,-1
 544 735 l 1,2,-1
 544 655 l 1,3,-1
 325 655 l 1,4,-1
 325 0 l 1,5,-1
 231 0 l 1,6,-1
 231 655 l 1,7,-1
 12 655 l 1,0,-1
EndSplineSet
EndChar

StartChar: U
Encoding: 85 85 56
Width: 713
GlyphClass: 2
Flags: W
LayerCount: 2
Fore
SplineSet
92 269 m 2,0,-1
 92 735 l 1,1,-1
 187 735 l 1,2,-1
 187 271 l 2,3,4
 187 166 187 166 233.5 115 c 128,-1,5
 280 64 280 64 356 64 c 0,6,7
 434 64 434 64 480.5 117 c 128,-1,8
 527 170 527 170 527 271 c 2,9,-1
 527 735 l 1,10,-1
 621 735 l 1,11,-1
 621 269 l 2,12,13
 621 133 621 133 553.5 58 c 128,-1,14
 486 -17 486 -17 356 -17 c 0,15,16
 231 -17 231 -17 161.5 56.5 c 128,-1,17
 92 130 92 130 92 269 c 2,0,-1
EndSplineSet
EndChar

StartChar: V
Encoding: 86 86 57
Width: 594
GlyphClass: 2
Flags: W
LayerCount: 2
Fore
SplineSet
-1 735 m 1,0,-1
 101 735 l 1,1,-1
 249 257 l 2,2,3
 256 229 256 229 272 177 c 128,-1,4
 288 125 288 125 296 95 c 1,5,-1
 300 94 l 1,6,7
 308 124 308 124 322.5 175.5 c 128,-1,8
 337 227 337 227 346 257 c 2,9,-1
 494 735 l 1,10,-1
 597 735 l 1,11,-1
 354 0 l 1,12,-1
 243 0 l 1,13,-1
 -1 735 l 1,0,-1
EndSplineSet
EndChar

StartChar: W
Encoding: 87 87 58
Width: 858
GlyphClass: 2
Flags: W
LayerCount: 2
Fore
SplineSet
12 735 m 1,0,-1
 113 735 l 1,1,-1
 206 270 l 2,2,3
 227 145 227 145 234 104 c 1,4,-1
 240 104 l 1,5,6
 243 118 243 118 255 179.5 c 128,-1,7
 267 241 267 241 273 270 c 2,8,-1
 381 735 l 1,9,-1
 478 735 l 1,10,-1
 588 270 l 2,11,12
 597 228 597 228 620 104 c 1,13,-1
 624 104 l 1,14,15
 626 116 626 116 653 270 c 1,16,-1
 748 735 l 1,17,-1
 849 735 l 1,18,-1
 678 0 l 1,19,-1
 569 0 l 1,20,-1
 463 459 l 2,21,22
 459 477 459 477 452.5 509 c 128,-1,23
 446 541 446 541 440.5 567.5 c 128,-1,24
 435 594 435 594 432 618 c 1,25,-1
 428 618 l 1,26,27
 425 601 425 601 396 459 c 2,28,-1
 290 0 l 1,29,-1
 182 0 l 1,30,-1
 12 735 l 1,0,-1
EndSplineSet
EndChar

StartChar: X
Encoding: 88 88 59
Width: 591
GlyphClass: 2
Flags: W
LayerCount: 2
Fore
SplineSet
-1 0 m 1,0,-1
 239 378 l 1,1,-1
 12 735 l 1,2,-1
 125 735 l 1,3,-1
 227 564 l 2,4,5
 235 551 235 551 248 528 c 128,-1,6
 261 505 261 505 272 485.5 c 128,-1,7
 283 466 283 466 294 448 c 1,8,-1
 298 448 l 1,9,10
 310 471 310 471 334 510.5 c 128,-1,11
 358 550 358 550 366 564 c 2,12,-1
 467 735 l 1,13,-1
 582 735 l 1,14,-1
 353 378 l 1,15,-1
 593 0 l 1,16,-1
 482 0 l 1,17,-1
 371 180 l 2,18,19
 345 223 345 223 298 304 c 1,20,-1
 294 304 l 1,21,22
 253 233 253 233 222 180 c 2,23,-1
 112 0 l 1,24,-1
 -1 0 l 1,0,-1
EndSplineSet
EndChar

StartChar: Y
Encoding: 89 89 60
Width: 604
GlyphClass: 2
Flags: W
LayerCount: 2
Fore
SplineSet
-3 735 m 1,0,-1
 107 735 l 1,1,-1
 229 513 l 2,2,3
 269 440 269 440 301 381 c 1,4,-1
 303 381 l 1,5,6
 316 404 316 404 340.5 449.5 c 128,-1,7
 365 495 365 495 376 513 c 2,8,-1
 497 735 l 1,9,-1
 607 735 l 1,10,-1
 350 301 l 1,11,-1
 350 0 l 1,12,-1
 256 0 l 1,13,-1
 256 301 l 1,14,-1
 -3 735 l 1,0,-1
EndSplineSet
EndChar

StartChar: Z
Encoding: 90 90 61
Width: 606
GlyphClass: 2
Flags: W
LayerCount: 2
Fore
SplineSet
40 68 m 1,0,-1
 443 655 l 1,1,-1
 71 655 l 1,2,-1
 71 735 l 1,3,-1
 559 735 l 1,4,-1
 559 665 l 1,5,-1
 154 80 l 1,6,-1
 568 80 l 1,7,-1
 568 0 l 1,8,-1
 40 0 l 1,9,-1
 40 68 l 1,0,-1
EndSplineSet
EndChar

StartChar: bracketleft
Encoding: 91 91 62
Width: 444
GlyphClass: 2
Flags: W
LayerCount: 2
Fore
SplineSet
139 -125 m 1,0,-1
 139 830 l 1,1,-1
 355 830 l 1,2,-1
 355 755 l 1,3,-1
 230 755 l 1,4,-1
 230 -51 l 1,5,-1
 355 -51 l 1,6,-1
 355 -125 l 1,7,-1
 139 -125 l 1,0,-1
EndSplineSet
EndChar

StartChar: backslash
Encoding: 92 92 63
Width: 334
GlyphClass: 2
Flags: W
LayerCount: 2
Fore
SplineSet
-13 781 m 1,0,-1
 80 781 l 1,1,-1
 350 -55 l 1,2,-1
 256 -55 l 1,3,-1
 -13 781 l 1,0,-1
EndSplineSet
EndChar

StartChar: bracketright
Encoding: 93 93 64
Width: 444
GlyphClass: 2
Flags: W
LayerCount: 2
Fore
SplineSet
89 -51 m 1,0,-1
 215 -51 l 1,1,-1
 215 755 l 1,2,-1
 89 755 l 1,3,-1
 89 830 l 1,4,-1
 305 830 l 1,5,-1
 305 -125 l 1,6,-1
 89 -125 l 1,7,-1
 89 -51 l 1,0,-1
EndSplineSet
EndChar

StartChar: asciicircum
Encoding: 94 94 65
Width: 509
GlyphClass: 2
Flags: W
LayerCount: 2
Fore
SplineSet
13 471 m 1,0,-1
 211 808 l 1,1,-1
 298 808 l 1,2,-1
 495 471 l 1,3,-1
 401 471 l 1,4,-1
 255 736 l 1,5,-1
 108 471 l 1,6,-1
 13 471 l 1,0,-1
EndSplineSet
EndChar

StartChar: underscore
Encoding: 95 95 66
Width: 462
GlyphClass: 2
Flags: W
LayerCount: 2
Fore
SplineSet
6 -13 m 1,0,-1
 459 -13 l 1,1,-1
 459 -88 l 1,2,-1
 6 -88 l 1,3,-1
 6 -13 l 1,0,-1
EndSplineSet
EndChar

StartChar: grave
Encoding: 96 96 67
Width: 316
GlyphClass: 2
Flags: W
LayerCount: 2
Fore
SplineSet
165 530 m 1,0,-1
 37 822 l 1,1,-1
 154 822 l 1,2,-1
 238 530 l 1,3,-1
 165 530 l 1,0,-1
EndSplineSet
EndChar

StartChar: a
Encoding: 97 97 68
Width: 550
GlyphClass: 2
Flags: W
LayerCount: 2
Fore
SplineSet
129 141 m 0,0,1
 129 106 129 106 158 82 c 128,-1,2
 187 58 187 58 236 58 c 0,3,4
 302 58 302 58 347.5 100.5 c 128,-1,5
 393 143 393 143 393 209 c 2,6,-1
 393 275 l 1,7,8
 354 265 354 265 268 251 c 0,9,10
 129 228 129 228 129 141 c 0,0,1
39 133 m 0,11,12
 39 282 39 282 265 317 c 0,13,14
 363 332 363 332 393 342 c 1,15,-1
 393 372 l 2,16,17
 393 418 393 418 360.5 447 c 128,-1,18
 328 476 328 476 270 476 c 0,19,20
 223 476 223 476 180.5 454.5 c 128,-1,21
 138 433 138 433 109 397 c 1,22,-1
 52 445 l 1,23,24
 92 492 92 492 148.5 520 c 128,-1,25
 205 548 205 548 268 548 c 0,26,27
 483 548 483 548 483 336 c 2,28,-1
 483 0 l 1,29,-1
 396 0 l 1,30,-1
 396 80 l 1,31,32
 380 40 380 40 333.5 11.5 c 128,-1,33
 287 -17 287 -17 224 -17 c 0,34,35
 137 -17 137 -17 88 24.5 c 128,-1,36
 39 66 39 66 39 133 c 0,11,12
EndSplineSet
Substitution2: "Single Substitution lookup 12 subtable" ordfeminine
EndChar

StartChar: b
Encoding: 98 98 69
Width: 585
GlyphClass: 2
Flags: W
LayerCount: 2
Fore
SplineSet
79 0 m 1,0,-1
 79 761 l 1,1,-1
 169 761 l 1,2,-1
 169 448 l 1,3,4
 185 486 185 486 226 517 c 128,-1,5
 267 548 267 548 322 548 c 0,6,7
 420 548 420 548 482.5 472.5 c 128,-1,8
 545 397 545 397 545 266 c 0,9,10
 545 193 545 193 525 136 c 128,-1,11
 505 79 505 79 471 46.5 c 128,-1,12
 437 14 437 14 399.5 -1.5 c 128,-1,13
 362 -17 362 -17 322 -17 c 0,14,15
 269 -17 269 -17 227.5 13 c 128,-1,16
 186 43 186 43 168 86 c 1,17,-1
 168 0 l 1,18,-1
 79 0 l 1,0,-1
167 266 m 0,19,20
 167 171 167 171 208 115 c 128,-1,21
 249 59 249 59 309 59 c 0,22,23
 372 59 372 59 412.5 113.5 c 128,-1,24
 453 168 453 168 453 266 c 0,25,26
 453 360 453 360 413.5 416 c 128,-1,27
 374 472 374 472 309 472 c 0,28,29
 249 472 249 472 208 415.5 c 128,-1,30
 167 359 167 359 167 266 c 0,19,20
EndSplineSet
EndChar

StartChar: c
Encoding: 99 99 70
Width: 508
GlyphClass: 2
Flags: W
LayerCount: 2
Fore
SplineSet
39 265 m 0,0,1
 39 392 39 392 105 470 c 128,-1,2
 171 548 171 548 279 548 c 0,3,4
 354 548 354 548 405.5 504.5 c 128,-1,5
 457 461 457 461 473 404 c 1,6,-1
 396 381 l 1,7,8
 382 419 382 419 351.5 445.5 c 128,-1,9
 321 472 321 472 280 472 c 0,10,11
 212 472 212 472 172 413 c 128,-1,12
 132 354 132 354 132 265 c 0,13,14
 132 170 132 170 174 114.5 c 128,-1,15
 216 59 216 59 280 59 c 0,16,17
 325 59 325 59 360 88.5 c 128,-1,18
 395 118 395 118 409 156 c 1,19,-1
 486 133 l 1,20,21
 467 72 467 72 410.5 27.5 c 128,-1,22
 354 -17 354 -17 279 -17 c 0,23,24
 172 -17 172 -17 105.5 59.5 c 128,-1,25
 39 136 39 136 39 265 c 0,0,1
EndSplineSet
EndChar

StartChar: d
Encoding: 100 100 71
Width: 585
GlyphClass: 2
Flags: W
LayerCount: 2
Fore
SplineSet
39 266 m 0,0,1
 39 397 39 397 103 472.5 c 128,-1,2
 167 548 167 548 264 548 c 0,3,4
 318 548 318 548 358.5 518 c 128,-1,5
 399 488 399 488 416 450 c 1,6,-1
 416 761 l 1,7,-1
 506 761 l 1,8,-1
 506 0 l 1,9,-1
 419 0 l 1,10,-1
 419 87 l 1,11,12
 400 42 400 42 358.5 12.5 c 128,-1,13
 317 -17 317 -17 264 -17 c 0,14,15
 223 -17 223 -17 184.5 -1.5 c 128,-1,16
 146 14 146 14 113 46.5 c 128,-1,17
 80 79 80 79 59.5 136 c 128,-1,18
 39 193 39 193 39 266 c 0,0,1
132 266 m 0,19,20
 132 171 132 171 171.5 115 c 128,-1,21
 211 59 211 59 276 59 c 0,22,23
 335 59 335 59 376.5 115 c 128,-1,24
 418 171 418 171 418 266 c 0,25,26
 418 359 418 359 377 415.5 c 128,-1,27
 336 472 336 472 276 472 c 0,28,29
 210 472 210 472 171 415 c 128,-1,30
 132 358 132 358 132 266 c 0,19,20
EndSplineSet
EndChar

StartChar: e
Encoding: 101 101 72
Width: 556
GlyphClass: 2
Flags: W
LayerCount: 2
Fore
SplineSet
39 269 m 0,0,1
 39 394 39 394 107.5 471 c 128,-1,2
 176 548 176 548 283 548 c 256,3,4
 390 548 390 548 454 472 c 128,-1,5
 518 396 518 396 518 277 c 0,6,7
 518 262 518 262 516 235 c 1,8,-1
 131 235 l 1,9,10
 131 162 131 162 173 109.5 c 128,-1,11
 215 57 215 57 288 57 c 0,12,13
 386 57 386 57 432 142 c 1,14,-1
 508 118 l 1,15,16
 483 59 483 59 426.5 21 c 128,-1,17
 370 -17 370 -17 287 -17 c 0,18,19
 176 -17 176 -17 107.5 61.5 c 128,-1,20
 39 140 39 140 39 269 c 0,0,1
133 302 m 1,21,-1
 427 302 l 1,22,23
 427 374 427 374 388.5 424 c 128,-1,24
 350 474 350 474 283 474 c 256,25,26
 216 474 216 474 175.5 422.5 c 128,-1,27
 135 371 135 371 133 302 c 1,21,-1
EndSplineSet
EndChar

StartChar: f
Encoding: 102 102 73
Width: 339
GlyphClass: 2
Flags: W
LayerCount: 2
Fore
SplineSet
23 455 m 1,0,-1
 23 531 l 1,1,-1
 111 531 l 1,2,-1
 111 604 l 2,3,4
 111 684 111 684 151 722.5 c 128,-1,5
 191 761 191 761 261 761 c 2,6,-1
 335 761 l 1,7,-1
 335 686 l 1,8,-1
 274 686 l 2,9,10
 201 686 201 686 201 596 c 2,11,-1
 201 531 l 1,12,-1
 323 531 l 1,13,-1
 323 455 l 1,14,-1
 201 455 l 1,15,-1
 201 0 l 1,16,-1
 111 0 l 1,17,-1
 111 455 l 1,18,-1
 23 455 l 1,0,-1
EndSplineSet
EndChar

StartChar: g
Encoding: 103 103 74
Width: 570
GlyphClass: 2
Flags: W
LayerCount: 2
Fore
SplineSet
132 276 m 0,0,1
 132 186 132 186 170.5 132.5 c 128,-1,2
 209 79 209 79 271 79 c 0,3,4
 332 79 332 79 369.5 131 c 128,-1,5
 407 183 407 183 407 276 c 0,6,7
 407 368 407 368 369 420 c 128,-1,8
 331 472 331 472 272 472 c 0,9,10
 208 472 208 472 170 417 c 128,-1,11
 132 362 132 362 132 276 c 0,0,1
40 275 m 0,12,13
 40 398 40 398 102 473 c 128,-1,14
 164 548 164 548 260 548 c 0,15,16
 317 548 317 548 354 518.5 c 128,-1,17
 391 489 391 489 407 453 c 1,18,-1
 407 531 l 1,19,-1
 496 531 l 1,20,-1
 496 66 l 2,21,22
 496 -84 496 -84 440.5 -157 c 128,-1,23
 385 -230 385 -230 267 -230 c 0,24,25
 137 -230 137 -230 66 -132 c 1,26,-1
 127 -91 l 1,27,28
 186 -157 186 -157 269 -157 c 0,29,30
 332 -157 332 -157 369 -108 c 128,-1,31
 406 -59 406 -59 407 22 c 0,32,33
 407 36 407 36 407 60 c 128,-1,34
 407 84 407 84 407 93 c 1,35,36
 388 54 388 54 350.5 28.5 c 128,-1,37
 313 3 313 3 263 3 c 0,38,39
 163 3 163 3 101.5 78.5 c 128,-1,40
 40 154 40 154 40 275 c 0,12,13
EndSplineSet
EndChar

StartChar: h
Encoding: 104 104 75
Width: 566
GlyphClass: 2
Flags: W
LayerCount: 2
Fore
SplineSet
79 0 m 1,0,-1
 79 761 l 1,1,-1
 169 761 l 1,2,-1
 169 456 l 1,3,-1
 171 456 l 1,4,5
 191 494 191 494 233 521 c 128,-1,6
 275 548 275 548 325 548 c 0,7,8
 404 548 404 548 451.5 500 c 128,-1,9
 499 452 499 452 499 343 c 2,10,-1
 499 0 l 1,11,-1
 409 0 l 1,12,-1
 409 329 l 2,13,14
 409 472 409 472 308 472 c 0,15,16
 251 472 251 472 210 424.5 c 128,-1,17
 169 377 169 377 169 311 c 2,18,-1
 169 0 l 1,19,-1
 79 0 l 1,0,-1
EndSplineSet
Substitution2: "'sups' Superscript lookup 5 subtable" uni02B0
Substitution2: "'aalt' Access All Alternates lookup 0 subtable" uni02B0
EndChar

StartChar: i
Encoding: 105 105 76
Width: 269
GlyphClass: 2
Flags: W
LayerCount: 2
Fore
SplineSet
81 636 m 1,0,-1
 81 746 l 1,1,-1
 188 746 l 1,2,-1
 188 636 l 1,3,-1
 81 636 l 1,0,-1
91 0 m 1,4,-1
 91 531 l 1,5,-1
 179 531 l 1,6,-1
 179 0 l 1,7,-1
 91 0 l 1,4,-1
EndSplineSet
EndChar

StartChar: j
Encoding: 106 106 77
Width: 274
GlyphClass: 2
Flags: W
LayerCount: 2
Fore
SplineSet
85 636 m 1,0,-1
 85 746 l 1,1,-1
 194 746 l 1,2,-1
 194 636 l 1,3,-1
 85 636 l 1,0,-1
-11 -143 m 1,4,-1
 12 -143 l 2,5,6
 94 -143 94 -143 94 -27 c 2,7,-1
 94 531 l 1,8,-1
 184 531 l 1,9,-1
 184 -32 l 2,10,11
 184 -124 184 -124 143 -172 c 128,-1,12
 102 -220 102 -220 26 -220 c 2,13,-1
 -11 -220 l 1,14,-1
 -11 -143 l 1,4,-1
EndSplineSet
Substitution2: "'sups' Superscript lookup 5 subtable" uni02B2
Substitution2: "'aalt' Access All Alternates lookup 0 subtable" uni02B2
EndChar

StartChar: k
Encoding: 107 107 78
Width: 514
GlyphClass: 2
Flags: W
LayerCount: 2
Fore
SplineSet
81 0 m 1,0,-1
 81 761 l 1,1,-1
 171 761 l 1,2,-1
 171 283 l 1,3,-1
 387 531 l 1,4,-1
 504 531 l 1,5,-1
 312 317 l 1,6,-1
 522 0 l 1,7,-1
 414 0 l 1,8,-1
 254 254 l 1,9,-1
 171 162 l 1,10,-1
 171 0 l 1,11,-1
 81 0 l 1,0,-1
EndSplineSet
EndChar

StartChar: l
Encoding: 108 108 79
Width: 258
GlyphClass: 2
Flags: W
LayerCount: 2
Fore
SplineSet
85 0 m 1,0,-1
 85 761 l 1,1,-1
 174 761 l 1,2,-1
 174 0 l 1,3,-1
 85 0 l 1,0,-1
EndSplineSet
Substitution2: "'sups' Superscript lookup 5 subtable" uni02E1
Substitution2: "'aalt' Access All Alternates lookup 0 subtable" uni02E1
EndChar

StartChar: m
Encoding: 109 109 80
Width: 832
GlyphClass: 2
Flags: W
LayerCount: 2
Fore
SplineSet
73 0 m 1,0,-1
 73 531 l 1,1,-1
 162 531 l 1,2,-1
 162 458 l 1,3,4
 176 490 176 490 213.5 519 c 128,-1,5
 251 548 251 548 307 548 c 0,6,7
 401 548 401 548 440 438 c 1,8,9
 446 452 446 452 456.5 467 c 128,-1,10
 467 482 467 482 486.5 502 c 128,-1,11
 506 522 506 522 538 535 c 128,-1,12
 570 548 570 548 608 548 c 0,13,14
 765 548 765 548 765 343 c 2,15,-1
 765 0 l 1,16,-1
 674 0 l 1,17,-1
 674 337 l 2,18,19
 674 404 674 404 656 438 c 128,-1,20
 638 472 638 472 588 472 c 0,21,22
 535 472 535 472 499 427 c 128,-1,23
 463 382 463 382 463 315 c 2,24,-1
 463 0 l 1,25,-1
 375 0 l 1,26,-1
 375 339 l 2,27,28
 375 472 375 472 287 472 c 0,29,30
 230 472 230 472 197.5 429.5 c 128,-1,31
 165 387 165 387 165 319 c 2,32,-1
 165 0 l 1,33,-1
 73 0 l 1,0,-1
EndSplineSet
EndChar

StartChar: n
Encoding: 110 110 81
Width: 562
GlyphClass: 2
Flags: W
LayerCount: 2
Fore
SplineSet
73 0 m 1,0,-1
 73 531 l 1,1,-1
 162 531 l 1,2,-1
 162 448 l 1,3,-1
 163 448 l 1,4,5
 175 484 175 484 218 516 c 128,-1,6
 261 548 261 548 324 548 c 0,7,8
 400 548 400 548 447.5 501 c 128,-1,9
 495 454 495 454 495 343 c 2,10,-1
 495 0 l 1,11,-1
 404 0 l 1,12,-1
 404 328 l 2,13,14
 404 472 404 472 303 472 c 0,15,16
 247 472 247 472 206 425.5 c 128,-1,17
 165 379 165 379 165 313 c 2,18,-1
 165 0 l 1,19,-1
 73 0 l 1,0,-1
EndSplineSet
Substitution2: "'sups' Superscript lookup 5 subtable" uni207F
Substitution2: "'aalt' Access All Alternates lookup 0 subtable" uni207F
EndChar

StartChar: o
Encoding: 111 111 82
Width: 561
GlyphClass: 2
Flags: W
LayerCount: 2
Fore
SplineSet
132 265 m 0,0,1
 132 168 132 168 175.5 113.5 c 128,-1,2
 219 59 219 59 281 59 c 256,3,4
 343 59 343 59 386.5 113.5 c 128,-1,5
 430 168 430 168 430 265 c 0,6,7
 430 364 430 364 386.5 418 c 128,-1,8
 343 472 343 472 281 472 c 0,9,10
 220 472 220 472 176 418.5 c 128,-1,11
 132 365 132 365 132 265 c 0,0,1
39 265 m 0,12,13
 39 385 39 385 102 466.5 c 128,-1,14
 165 548 165 548 281 548 c 0,15,16
 396 548 396 548 459 466.5 c 128,-1,17
 522 385 522 385 522 265 c 0,18,19
 522 215 522 215 509 167.5 c 128,-1,20
 496 120 496 120 469.5 77.5 c 128,-1,21
 443 35 443 35 394 9 c 128,-1,22
 345 -17 345 -17 281 -17 c 0,23,24
 218 -17 218 -17 169 8.5 c 128,-1,25
 120 34 120 34 93 76 c 128,-1,26
 66 118 66 118 52.5 166 c 128,-1,27
 39 214 39 214 39 265 c 0,12,13
EndSplineSet
Substitution2: "Single Substitution lookup 12 subtable" ordmasculine
EndChar

StartChar: p
Encoding: 112 112 83
Width: 585
GlyphClass: 2
Flags: W
LayerCount: 2
Fore
SplineSet
169 266 m 0,0,1
 169 172 169 172 206 115.5 c 128,-1,2
 243 59 243 59 309 59 c 0,3,4
 372 59 372 59 413 114.5 c 128,-1,5
 454 170 454 170 454 266 c 0,6,7
 454 357 454 357 415 414.5 c 128,-1,8
 376 472 376 472 309 472 c 0,9,10
 246 472 246 472 207.5 414 c 128,-1,11
 169 356 169 356 169 266 c 0,0,1
79 -226 m 1,12,-1
 79 531 l 1,13,-1
 166 531 l 1,14,-1
 166 444 l 1,15,16
 188 490 188 490 229 519 c 128,-1,17
 270 548 270 548 322 548 c 0,18,19
 419 548 419 548 482 471.5 c 128,-1,20
 545 395 545 395 545 266 c 0,21,22
 545 127 545 127 478 55 c 128,-1,23
 411 -17 411 -17 322 -17 c 0,24,25
 265 -17 265 -17 225.5 11 c 128,-1,26
 186 39 186 39 169 81 c 1,27,-1
 169 -226 l 1,28,-1
 79 -226 l 1,12,-1
EndSplineSet
EndChar

StartChar: q
Encoding: 113 113 84
Width: 583
GlyphClass: 2
Flags: W
LayerCount: 2
Fore
SplineSet
132 266 m 0,0,1
 132 170 132 170 172.5 114.5 c 128,-1,2
 213 59 213 59 276 59 c 0,3,4
 340 59 340 59 378.5 115 c 128,-1,5
 417 171 417 171 417 266 c 0,6,7
 417 356 417 356 378 414 c 128,-1,8
 339 472 339 472 276 472 c 0,9,10
 207 472 207 472 169.5 414 c 128,-1,11
 132 356 132 356 132 266 c 0,0,1
39 266 m 0,12,13
 39 395 39 395 102.5 471.5 c 128,-1,14
 166 548 166 548 264 548 c 0,15,16
 315 548 315 548 355.5 519.5 c 128,-1,17
 396 491 396 491 419 444 c 1,18,-1
 419 531 l 1,19,-1
 506 531 l 1,20,-1
 506 -226 l 1,21,-1
 416 -226 l 1,22,-1
 416 82 l 1,23,24
 397 39 397 39 357.5 11 c 128,-1,25
 318 -17 318 -17 264 -17 c 0,26,27
 173 -17 173 -17 106 55 c 128,-1,28
 39 127 39 127 39 266 c 0,12,13
EndSplineSet
EndChar

StartChar: r
Encoding: 114 114 85
Width: 370
GlyphClass: 2
Flags: W
LayerCount: 2
Fore
SplineSet
73 0 m 1,0,-1
 73 531 l 1,1,-1
 160 531 l 1,2,-1
 160 460 l 1,3,4
 175 494 175 494 211 521 c 128,-1,5
 247 548 247 548 300 548 c 0,6,7
 340 548 340 548 373 535 c 1,8,-1
 373 453 l 1,9,10
 338 466 338 466 300 466 c 0,11,12
 235 466 235 466 200 417 c 128,-1,13
 165 368 165 368 165 287 c 2,14,-1
 165 0 l 1,15,-1
 73 0 l 1,0,-1
EndSplineSet
Substitution2: "'sups' Superscript lookup 5 subtable" uni02B3
Substitution2: "'aalt' Access All Alternates lookup 0 subtable" uni02B3
EndChar

StartChar: s
Encoding: 115 115 86
Width: 493
GlyphClass: 2
Flags: W
LayerCount: 2
Fore
SplineSet
32 107 m 1,0,-1
 98 145 l 1,1,2
 155 58 155 58 250 58 c 0,3,4
 304 58 304 58 337 78 c 128,-1,5
 370 98 370 98 370 135 c 0,6,7
 370 148 370 148 365.5 159.5 c 128,-1,8
 361 171 361 171 348 181.5 c 128,-1,9
 335 192 335 192 326 198 c 128,-1,10
 317 204 317 204 292.5 213 c 128,-1,11
 268 222 268 222 256 225.5 c 128,-1,12
 244 229 244 229 211 240 c 0,13,14
 176 250 176 250 152.5 261.5 c 128,-1,15
 129 273 129 273 102.5 290.5 c 128,-1,16
 76 308 76 308 62.5 335 c 128,-1,17
 49 362 49 362 49 397 c 0,18,19
 49 464 49 464 104.5 506 c 128,-1,20
 160 548 160 548 250 548 c 0,21,22
 316 548 316 548 372 514 c 128,-1,23
 428 480 428 480 453 431 c 1,24,-1
 392 392 l 1,25,26
 370 426 370 426 333.5 449.5 c 128,-1,27
 297 473 297 473 251 473 c 0,28,29
 197 473 197 473 169 452.5 c 128,-1,30
 141 432 141 432 141 396 c 0,31,32
 141 375 141 375 152 358 c 128,-1,33
 163 341 163 341 188 328 c 128,-1,34
 213 315 213 315 231 308.5 c 128,-1,35
 249 302 249 302 283 291 c 0,36,37
 319 280 319 280 345.5 268.5 c 128,-1,38
 372 257 372 257 401 239 c 128,-1,39
 430 221 430 221 445.5 194 c 128,-1,40
 461 167 461 167 461 134 c 0,41,42
 461 70 461 70 405.5 26.5 c 128,-1,43
 350 -17 350 -17 251 -17 c 0,44,45
 178 -17 178 -17 121.5 15.5 c 128,-1,46
 65 48 65 48 32 107 c 1,0,-1
EndSplineSet
Substitution2: "'hist' Historical Forms lookup 11 subtable" longs
Substitution2: "'sups' Superscript lookup 5 subtable" uni02E2
AlternateSubs2: "'aalt' Access All Alternates lookup 1 subtable" uni02E2 longs
EndChar

StartChar: t
Encoding: 116 116 87
Width: 361
GlyphClass: 2
Flags: W
LayerCount: 2
Fore
SplineSet
18 455 m 1,0,-1
 18 531 l 1,1,-1
 108 531 l 1,2,-1
 108 696 l 1,3,-1
 198 696 l 1,4,-1
 198 531 l 1,5,-1
 331 531 l 1,6,-1
 331 455 l 1,7,-1
 198 455 l 1,8,-1
 198 161 l 2,9,10
 198 116 198 116 215.5 96.5 c 128,-1,11
 233 77 233 77 271 77 c 2,12,-1
 332 77 l 1,13,-1
 332 0 l 1,14,-1
 259 0 l 2,15,16
 108 0 108 0 108 153 c 2,17,-1
 108 455 l 1,18,-1
 18 455 l 1,0,-1
EndSplineSet
EndChar

StartChar: u
Encoding: 117 117 88
Width: 559
GlyphClass: 2
Flags: W
LayerCount: 2
Fore
SplineSet
67 189 m 2,0,-1
 67 531 l 1,1,-1
 158 531 l 1,2,-1
 158 204 l 2,3,4
 158 59 158 59 263 59 c 0,5,6
 327 59 327 59 361.5 110 c 128,-1,7
 396 161 396 161 396 230 c 2,8,-1
 396 531 l 1,9,-1
 486 531 l 1,10,-1
 486 0 l 1,11,-1
 399 0 l 1,12,-1
 399 77 l 1,13,-1
 398 77 l 1,14,15
 387 45 387 45 348.5 14 c 128,-1,16
 310 -17 310 -17 243 -17 c 0,17,18
 168 -17 168 -17 117.5 33.5 c 128,-1,19
 67 84 67 84 67 189 c 2,0,-1
EndSplineSet
EndChar

StartChar: v
Encoding: 118 118 89
Width: 505
GlyphClass: 2
Flags: W
LayerCount: 2
Fore
SplineSet
8 531 m 1,0,-1
 108 531 l 1,1,-1
 210 220 l 2,2,3
 220 190 220 190 235 136 c 128,-1,4
 250 82 250 82 251 77 c 1,5,-1
 253 77 l 1,6,7
 260 102 260 102 276 153 c 128,-1,8
 292 204 292 204 297 220 c 2,9,-1
 398 531 l 1,10,-1
 497 531 l 1,11,-1
 306 0 l 1,12,-1
 199 0 l 1,13,-1
 8 531 l 1,0,-1
EndSplineSet
EndChar

StartChar: w
Encoding: 119 119 90
Width: 723
GlyphClass: 2
Flags: W
LayerCount: 2
Fore
SplineSet
8 531 m 1,0,-1
 107 531 l 1,1,-1
 177 223 l 2,2,3
 182 202 182 202 190.5 157 c 128,-1,4
 199 112 199 112 205 85 c 1,5,-1
 209 85 l 1,6,7
 231 187 231 187 239 223 c 2,8,-1
 311 531 l 1,9,-1
 413 531 l 1,10,-1
 486 220 l 2,11,12
 490 202 490 202 500.5 157.5 c 128,-1,13
 511 113 511 113 516 85 c 1,14,-1
 520 85 l 1,15,16
 523 100 523 100 532.5 148.5 c 128,-1,17
 542 197 542 197 548 223 c 2,18,-1
 617 531 l 1,19,-1
 717 531 l 1,20,-1
 571 0 l 1,21,-1
 464 0 l 1,22,-1
 392 299 l 2,23,24
 370 402 370 402 364 434 c 1,25,-1
 360 434 l 1,26,27
 344 351 344 351 332 299 c 2,28,-1
 261 0 l 1,29,-1
 153 0 l 1,30,-1
 8 531 l 1,0,-1
EndSplineSet
Substitution2: "'sups' Superscript lookup 5 subtable" uni02B7
Substitution2: "'aalt' Access All Alternates lookup 0 subtable" uni02B7
EndChar

StartChar: x
Encoding: 120 120 91
Width: 499
GlyphClass: 2
Flags: W
LayerCount: 2
Fore
SplineSet
5 0 m 1,0,-1
 195 275 l 1,1,-1
 14 531 l 1,2,-1
 122 531 l 1,3,-1
 206 402 l 2,4,5
 215 388 215 388 229 366.5 c 128,-1,6
 243 345 243 345 247 338 c 1,7,-1
 250 338 l 1,8,9
 256 349 256 349 269.5 370 c 128,-1,10
 283 391 283 391 289 402 c 2,11,-1
 373 531 l 1,12,-1
 481 531 l 1,13,-1
 302 275 l 1,14,-1
 492 0 l 1,15,-1
 385 0 l 1,16,-1
 290 147 l 2,17,18
 274 171 274 171 250 210 c 1,19,-1
 247 210 l 1,20,21
 231 183 231 183 207 147 c 2,22,-1
 112 0 l 1,23,-1
 5 0 l 1,0,-1
EndSplineSet
Substitution2: "'sups' Superscript lookup 5 subtable" uni02E3
Substitution2: "'aalt' Access All Alternates lookup 0 subtable" uni02E3
EndChar

StartChar: y
Encoding: 121 121 92
Width: 503
GlyphClass: 2
Flags: W
LayerCount: 2
Fore
SplineSet
8 531 m 1,0,-1
 110 531 l 1,1,-1
 213 233 l 2,2,3
 241 152 241 152 254 103 c 1,4,-1
 258 103 l 1,5,6
 286 196 286 196 298 233 c 2,7,-1
 395 531 l 1,8,-1
 496 531 l 1,9,-1
 271 -82 l 2,10,11
 242 -162 242 -162 200 -194 c 128,-1,12
 158 -226 158 -226 97 -226 c 2,13,-1
 66 -226 l 1,14,-1
 66 -151 l 1,15,-1
 83 -151 l 2,16,17
 122 -151 122 -151 148 -131 c 128,-1,18
 174 -111 174 -111 193 -59 c 2,19,-1
 212 0 l 1,20,-1
 8 531 l 1,0,-1
EndSplineSet
Substitution2: "'sups' Superscript lookup 5 subtable" uni02B8
Substitution2: "'aalt' Access All Alternates lookup 0 subtable" uni02B8
EndChar

StartChar: z
Encoding: 122 122 93
Width: 481
GlyphClass: 2
Flags: W
LayerCount: 2
Fore
SplineSet
29 0 m 1,0,-1
 29 61 l 1,1,-1
 327 455 l 1,2,-1
 55 455 l 1,3,-1
 55 531 l 1,4,-1
 443 531 l 1,5,-1
 443 474 l 1,6,-1
 144 76 l 1,7,-1
 453 76 l 1,8,-1
 453 0 l 1,9,-1
 29 0 l 1,0,-1
EndSplineSet
EndChar

StartChar: braceleft
Encoding: 123 123 94
Width: 444
GlyphClass: 2
Flags: W
LayerCount: 2
Fore
SplineSet
63 315 m 1,0,-1
 63 384 l 1,1,-1
 92 384 l 2,2,3
 121 384 121 384 139 415.5 c 128,-1,4
 157 447 157 447 157 510 c 2,5,-1
 157 697 l 2,6,7
 157 760 157 760 192 795 c 128,-1,8
 227 830 227 830 282 830 c 2,9,-1
 362 830 l 1,10,-1
 362 755 l 1,11,-1
 299 755 l 2,12,13
 276 755 276 755 262 737.5 c 128,-1,14
 248 720 248 720 248 686 c 2,15,-1
 248 496 l 2,16,17
 248 436 248 436 228.5 404 c 128,-1,18
 209 372 209 372 175 350 c 1,19,20
 248 311 248 311 248 213 c 2,21,-1
 248 24 l 2,22,23
 248 -13 248 -13 262 -32 c 128,-1,24
 276 -51 276 -51 301 -51 c 2,25,-1
 362 -51 l 1,26,-1
 362 -125 l 1,27,-1
 282 -125 l 2,28,29
 229 -125 229 -125 193 -92 c 128,-1,30
 157 -59 157 -59 157 7 c 2,31,-1
 157 199 l 2,32,33
 157 251 157 251 138.5 283 c 128,-1,34
 120 315 120 315 92 315 c 2,35,-1
 63 315 l 1,0,-1
EndSplineSet
EndChar

StartChar: bar
Encoding: 124 124 95
Width: 276
GlyphClass: 2
Flags: W
LayerCount: 2
Fore
SplineSet
93 -163 m 1,0,-1
 93 864 l 1,1,-1
 184 864 l 1,2,-1
 184 -163 l 1,3,-1
 93 -163 l 1,0,-1
EndSplineSet
EndChar

StartChar: braceright
Encoding: 125 125 96
Width: 444
GlyphClass: 2
Flags: W
LayerCount: 2
Fore
SplineSet
83 -51 m 1,0,-1
 144 -51 l 2,1,2
 169 -51 169 -51 183 -32 c 128,-1,3
 197 -13 197 -13 197 24 c 2,4,-1
 197 213 l 2,5,6
 197 308 197 308 270 350 c 1,7,8
 236 372 236 372 216.5 403.5 c 128,-1,9
 197 435 197 435 197 496 c 2,10,-1
 197 686 l 2,11,12
 197 720 197 720 183.5 737.5 c 128,-1,13
 170 755 170 755 146 755 c 2,14,-1
 83 755 l 1,15,-1
 83 830 l 1,16,-1
 162 830 l 2,17,18
 217 830 217 830 252 795 c 128,-1,19
 287 760 287 760 287 697 c 2,20,-1
 287 510 l 2,21,22
 287 447 287 447 305 415.5 c 128,-1,23
 323 384 323 384 353 384 c 2,24,-1
 381 384 l 1,25,-1
 381 315 l 1,26,-1
 353 315 l 2,27,28
 322 315 322 315 304.5 283 c 128,-1,29
 287 251 287 251 287 199 c 2,30,-1
 287 7 l 2,31,32
 287 -59 287 -59 251 -92 c 128,-1,33
 215 -125 215 -125 162 -125 c 2,34,-1
 83 -125 l 1,35,-1
 83 -51 l 1,0,-1
EndSplineSet
EndChar

StartChar: asciitilde
Encoding: 126 126 97
Width: 769
GlyphClass: 2
Flags: W
LayerCount: 2
Fore
SplineSet
66 305 m 1,0,1
 133 458 133 458 265 458 c 0,2,3
 304 458 304 458 340 437.5 c 128,-1,4
 376 417 376 417 398.5 393.5 c 128,-1,5
 421 370 421 370 449.5 349.5 c 128,-1,6
 478 329 478 329 505 329 c 0,7,8
 531 329 531 329 550.5 338 c 128,-1,9
 570 347 570 347 585.5 367.5 c 128,-1,10
 601 388 601 388 606 397 c 128,-1,11
 611 406 611 406 622 432 c 0,12,13
 625 436 625 436 626 439 c 1,14,-1
 702 403 l 1,15,16
 634 250 634 250 507 250 c 0,17,18
 467 250 467 250 430.5 270.5 c 128,-1,19
 394 291 394 291 371.5 314.5 c 128,-1,20
 349 338 349 338 320 358.5 c 128,-1,21
 291 379 291 379 265 379 c 0,22,23
 192 379 192 379 144 269 c 1,24,-1
 66 305 l 1,0,1
EndSplineSet
EndChar

StartChar: exclamdown
Encoding: 161 161 99
Width: 310
GlyphClass: 2
Flags: W
LayerCount: 2
Fore
SplineSet
104 -208 m 1,0,-1
 113 321 l 1,1,-1
 198 321 l 1,2,-1
 206 -208 l 1,3,-1
 104 -208 l 1,0,-1
88 412 m 1,4,-1
 88 535 l 1,5,-1
 223 535 l 1,6,-1
 223 412 l 1,7,-1
 88 412 l 1,4,-1
EndSplineSet
EndChar

StartChar: cent
Encoding: 162 162 100
Width: 507
GlyphClass: 2
Flags: W
LayerCount: 2
Fore
SplineSet
39 266 m 0,0,1
 39 375 39 375 91.5 453 c 128,-1,2
 144 531 144 531 237 543 c 1,3,-1
 237 621 l 1,4,-1
 320 621 l 1,5,-1
 320 544 l 1,6,7
 381 532 381 532 420 492.5 c 128,-1,8
 459 453 459 453 473 404 c 1,9,-1
 397 381 l 1,10,11
 381 419 381 419 352 445.5 c 128,-1,12
 323 472 323 472 282 472 c 0,13,14
 212 472 212 472 172 413.5 c 128,-1,15
 132 355 132 355 132 266 c 0,16,17
 132 172 132 172 173 115.5 c 128,-1,18
 214 59 214 59 281 59 c 0,19,20
 325 59 325 59 360 88 c 128,-1,21
 395 117 395 117 409 156 c 1,22,-1
 486 133 l 1,23,24
 469 82 469 82 426 41 c 128,-1,25
 383 0 383 0 320 -13 c 1,26,-1
 320 -95 l 1,27,-1
 237 -95 l 1,28,-1
 237 -13 l 1,29,30
 149 -2 149 -2 94 73 c 128,-1,31
 39 148 39 148 39 266 c 0,0,1
EndSplineSet
EndChar

StartChar: sterling
Encoding: 163 163 101
Width: 590
GlyphClass: 2
Flags: W
LayerCount: 2
Fore
SplineSet
39 325 m 1,0,-1
 39 404 l 1,1,-1
 146 404 l 1,2,-1
 146 566 l 2,3,4
 146 656 146 656 203.5 704 c 128,-1,5
 261 752 261 752 357 752 c 0,6,7
 423 752 423 752 472 719 c 128,-1,8
 521 686 521 686 543 642 c 1,9,-1
 477 604 l 1,10,11
 459 631 459 631 427.5 651 c 128,-1,12
 396 671 396 671 358 671 c 0,13,14
 304 671 304 671 271.5 642.5 c 128,-1,15
 239 614 239 614 239 558 c 2,16,-1
 239 404 l 1,17,-1
 456 404 l 1,18,-1
 456 325 l 1,19,-1
 239 325 l 1,20,-1
 239 214 l 2,21,22
 239 120 239 120 197 85 c 1,23,24
 246 94 246 94 274 94 c 256,25,26
 302 94 302 94 351 78.5 c 128,-1,27
 400 63 400 63 433 63 c 0,28,29
 500 63 500 63 555 93 c 1,30,-1
 581 17 l 1,31,32
 510 -17 510 -17 432 -17 c 0,33,34
 400 -17 400 -17 338 -1 c 128,-1,35
 276 15 276 15 245 15 c 0,36,37
 210 15 210 15 164 8.5 c 128,-1,38
 118 2 118 2 91 -6 c 2,39,-1
 62 -13 l 1,40,-1
 38 55 l 1,41,42
 91 67 91 67 118.5 108 c 128,-1,43
 146 149 146 149 146 209 c 2,44,-1
 146 325 l 1,45,-1
 39 325 l 1,0,-1
EndSplineSet
EndChar

StartChar: currency
Encoding: 164 164 102
Width: 641
GlyphClass: 2
Flags: W
LayerCount: 2
Fore
SplineSet
25 145 m 1,0,-1
 135 248 l 1,1,2
 95 299 95 299 95 367 c 0,3,4
 95 436 95 436 134 486 c 1,5,-1
 25 588 l 1,6,-1
 87 646 l 1,7,-1
 192 545 l 1,8,9
 254 587 254 587 321 587 c 0,10,11
 390 587 390 587 451 545 c 1,12,-1
 555 645 l 1,13,-1
 617 587 l 1,14,-1
 510 486 l 1,15,16
 547 439 547 439 547 367 c 0,17,18
 547 298 547 298 509 248 c 1,19,-1
 617 145 l 1,20,-1
 555 88 l 1,21,-1
 450 188 l 1,22,23
 391 146 391 146 321 146 c 0,24,25
 249 146 249 146 192 188 c 1,26,-1
 87 88 l 1,27,-1
 25 145 l 1,0,-1
178 367 m 256,28,29
 178 309 178 309 218 267 c 128,-1,30
 258 225 258 225 321 225 c 0,31,32
 383 225 383 225 423.5 266.5 c 128,-1,33
 464 308 464 308 464 367 c 256,34,35
 464 426 464 426 423 467 c 128,-1,36
 382 508 382 508 321 508 c 0,37,38
 259 508 259 508 218.5 466.5 c 128,-1,39
 178 425 178 425 178 367 c 256,28,29
EndSplineSet
EndChar

StartChar: yen
Encoding: 165 165 103
Width: 603
GlyphClass: 2
Flags: W
LayerCount: 2
Fore
SplineSet
-3 735 m 1,0,-1
 107 735 l 1,1,-1
 223 554 l 2,2,3
 280 462 280 462 301 426 c 1,4,-1
 303 426 l 1,5,6
 316 446 316 446 341.5 489 c 128,-1,7
 367 532 367 532 381 554 c 2,8,-1
 497 735 l 1,9,-1
 607 735 l 1,10,-1
 391 410 l 1,11,-1
 541 410 l 1,12,-1
 541 343 l 1,13,-1
 349 343 l 1,14,-1
 349 234 l 1,15,-1
 541 234 l 1,16,-1
 541 167 l 1,17,-1
 349 167 l 1,18,-1
 349 0 l 1,19,-1
 255 0 l 1,20,-1
 255 167 l 1,21,-1
 62 167 l 1,22,-1
 62 234 l 1,23,-1
 255 234 l 1,24,-1
 255 343 l 1,25,-1
 62 343 l 1,26,-1
 62 410 l 1,27,-1
 213 410 l 1,28,-1
 -3 735 l 1,0,-1
EndSplineSet
EndChar

StartChar: brokenbar
Encoding: 166 166 104
Width: 276
GlyphClass: 2
Flags: W
LayerCount: 2
Fore
SplineSet
93 459 m 1,0,-1
 93 864 l 1,1,-1
 184 864 l 1,2,-1
 184 459 l 1,3,-1
 93 459 l 1,0,-1
93 -162 m 1,4,-1
 93 242 l 1,5,-1
 184 242 l 1,6,-1
 184 -162 l 1,7,-1
 93 -162 l 1,4,-1
EndSplineSet
EndChar

StartChar: section
Encoding: 167 167 105
Width: 556
GlyphClass: 2
Flags: W
LayerCount: 2
Fore
SplineSet
51 49 m 1,0,-1
 113 94 l 1,1,2
 135 64 135 64 173 44 c 128,-1,3
 211 24 211 24 257 24 c 0,4,5
 368 24 368 24 368 90 c 0,6,7
 368 114 368 114 352.5 128.5 c 128,-1,8
 337 143 337 143 301 159 c 2,9,-1
 194 208 l 2,10,11
 128 238 128 238 97 273 c 128,-1,12
 66 308 66 308 66 356 c 0,13,14
 66 433 66 433 158 500 c 1,15,16
 94 549 94 549 94 607 c 0,17,18
 94 672 94 672 146 712 c 128,-1,19
 198 752 198 752 301 752 c 0,20,21
 367 752 367 752 419.5 724 c 128,-1,22
 472 696 472 696 504 650 c 1,23,-1
 444 604 l 1,24,25
 382 673 382 673 298 673 c 0,26,27
 243 673 243 673 216 655 c 128,-1,28
 189 637 189 637 189 607 c 0,29,30
 189 595 189 595 193 585.5 c 128,-1,31
 197 576 197 576 206.5 566.5 c 128,-1,32
 216 557 216 557 223.5 550.5 c 128,-1,33
 231 544 231 544 248.5 535 c 128,-1,34
 266 526 266 526 275 521.5 c 128,-1,35
 284 517 284 517 306.5 506.5 c 128,-1,36
 329 496 329 496 339 492 c 0,37,38
 372 477 372 477 388.5 468.5 c 128,-1,39
 405 460 405 460 431 443.5 c 128,-1,40
 457 427 457 427 469.5 411.5 c 128,-1,41
 482 396 482 396 492 373 c 128,-1,42
 502 350 502 350 502 323 c 0,43,44
 502 244 502 244 423 180 c 1,45,46
 461 142 461 142 461 90 c 0,47,48
 461 24 461 24 411 -15.5 c 128,-1,49
 361 -55 361 -55 258 -55 c 0,50,51
 189 -55 189 -55 133 -24 c 128,-1,52
 77 7 77 7 51 49 c 1,0,-1
161 360 m 0,53,54
 161 327 161 327 179.5 309.5 c 128,-1,55
 198 292 198 292 249 269 c 2,56,-1
 351 223 l 1,57,58
 408 271 408 271 408 323 c 0,59,60
 408 352 408 352 385.5 371.5 c 128,-1,61
 363 391 363 391 313 416 c 2,62,-1
 228 459 l 1,63,64
 161 410 161 410 161 360 c 0,53,54
EndSplineSet
EndChar

StartChar: dieresis
Encoding: 168 168 106
Width: 489
GlyphClass: 2
Flags: W
LayerCount: 2
Fore
SplineSet
98 624 m 1,0,-1
 98 735 l 1,1,-1
 207 735 l 1,2,-1
 207 624 l 1,3,-1
 98 624 l 1,0,-1
283 624 m 1,4,-1
 283 735 l 1,5,-1
 392 735 l 1,6,-1
 392 624 l 1,7,-1
 283 624 l 1,4,-1
EndSplineSet
EndChar

StartChar: copyright
Encoding: 169 169 107
Width: 867
GlyphClass: 2
Flags: W
LayerCount: 2
Fore
SplineSet
247 372 m 0,0,1
 247 480 247 480 301 543.5 c 128,-1,2
 355 607 355 607 447 607 c 0,3,4
 509 607 509 607 548.5 573.5 c 128,-1,5
 588 540 588 540 608 489 c 1,6,-1
 540 467 l 1,7,8
 504 538 504 538 447 538 c 256,9,10
 390 538 390 538 358 493.5 c 128,-1,11
 326 449 326 449 326 372 c 0,12,13
 326 293 326 293 358.5 249.5 c 128,-1,14
 391 206 391 206 447 206 c 0,15,16
 483 206 483 206 510.5 228 c 128,-1,17
 538 250 538 250 550 283 c 1,18,-1
 618 262 l 1,19,20
 601 211 601 211 556.5 174 c 128,-1,21
 512 137 512 137 446 137 c 0,22,23
 357 137 357 137 302 200 c 128,-1,24
 247 263 247 263 247 372 c 0,0,1
43 373 m 256,25,26
 43 549 43 549 154.5 658.5 c 128,-1,27
 266 768 266 768 433 768 c 0,28,29
 604 768 604 768 715 657.5 c 128,-1,30
 826 547 826 547 826 373 c 0,31,32
 826 201 826 201 715 90 c 128,-1,33
 604 -21 604 -21 433 -21 c 0,34,35
 266 -21 266 -21 154.5 88 c 128,-1,36
 43 197 43 197 43 373 c 256,25,26
111 373 m 256,37,38
 111 225 111 225 200 132 c 128,-1,39
 289 39 289 39 433 39 c 0,40,41
 575 39 575 39 666.5 131 c 128,-1,42
 758 223 758 223 758 373 c 0,43,44
 758 521 758 521 667 613.5 c 128,-1,45
 576 706 576 706 433 706 c 0,46,47
 291 706 291 706 201 613.5 c 128,-1,48
 111 521 111 521 111 373 c 256,37,38
EndSplineSet
EndChar

StartChar: ordfeminine
Encoding: 170 170 108
Width: 386
GlyphClass: 2
Flags: W
LayerCount: 2
Fore
SplineSet
37 314 m 1,0,-1
 37 375 l 1,1,-1
 351 375 l 1,2,-1
 351 314 l 1,3,-1
 37 314 l 1,0,-1
97 543 m 0,4,5
 97 520 97 520 116 504.5 c 128,-1,6
 135 489 135 489 168 489 c 0,7,8
 211 489 211 489 242 517.5 c 128,-1,9
 273 546 273 546 273 591 c 2,10,-1
 273 632 l 1,11,12
 257 628 257 628 227 623 c 128,-1,13
 197 618 197 618 178.5 614.5 c 128,-1,14
 160 611 160 611 139 602.5 c 128,-1,15
 118 594 118 594 107.5 579 c 128,-1,16
 97 564 97 564 97 543 c 0,4,5
29 538 m 0,17,18
 29 575 29 575 46 600.5 c 128,-1,19
 63 626 63 626 93.5 639.5 c 128,-1,20
 124 653 124 653 152.5 660 c 128,-1,21
 181 667 181 667 218.5 673 c 128,-1,22
 256 679 256 679 273 684 c 1,23,-1
 273 702 l 2,24,25
 273 732 273 732 250.5 751.5 c 128,-1,26
 228 771 228 771 190 771 c 0,27,28
 154 771 154 771 124.5 753 c 128,-1,29
 95 735 95 735 81 716 c 1,30,-1
 38 752 l 1,31,32
 56 777 56 777 98 801.5 c 128,-1,33
 140 826 140 826 189 826 c 0,34,35
 340 826 340 826 340 678 c 2,36,-1
 340 443 l 1,37,-1
 275 443 l 1,38,-1
 275 490 l 1,39,40
 239 432 239 432 160 432 c 0,41,42
 98 432 98 432 63.5 461.5 c 128,-1,43
 29 491 29 491 29 538 c 0,17,18
EndSplineSet
EndChar

StartChar: guillemotleft
Encoding: 171 171 109
Width: 482
GlyphClass: 2
Flags: W
LayerCount: 2
Fore
SplineSet
38 254 m 1,0,-1
 199 486 l 1,1,-1
 265 443 l 1,2,-1
 136 254 l 1,3,-1
 264 68 l 1,4,-1
 199 23 l 1,5,-1
 38 254 l 1,0,-1
222 254 m 1,6,-1
 382 478 l 1,7,-1
 446 430 l 1,8,-1
 320 254 l 1,9,-1
 446 78 l 1,10,-1
 382 31 l 1,11,-1
 222 254 l 1,6,-1
EndSplineSet
EndChar

StartChar: logicalnot
Encoding: 172 172 110
Width: 549
GlyphClass: 2
Flags: W
LayerCount: 2
Fore
SplineSet
47 309 m 1,0,-1
 47 388 l 1,1,-1
 503 388 l 1,2,-1
 503 122 l 1,3,-1
 416 122 l 1,4,-1
 416 309 l 1,5,-1
 47 309 l 1,0,-1
EndSplineSet
EndChar

StartChar: uni00AD
Encoding: 173 173 111
Width: 560
GlyphClass: 2
Flags: W
LayerCount: 2
Fore
SplineSet
57 325 m 1,0,-1
 57 405 l 1,1,-1
 503 405 l 1,2,-1
 503 325 l 1,3,-1
 57 325 l 1,0,-1
EndSplineSet
EndChar

StartChar: registered
Encoding: 174 174 112
Width: 867
GlyphClass: 2
Flags: W
LayerCount: 2
Fore
SplineSet
290 145 m 1,0,-1
 290 594 l 1,1,-1
 468 594 l 2,2,3
 534 594 534 594 570 557 c 128,-1,4
 606 520 606 520 606 466 c 0,5,6
 606 389 606 389 540 356 c 1,7,8
 572 332 572 332 585 275 c 0,9,10
 597 216 597 216 635 145 c 1,11,-1
 548 145 l 1,12,13
 523 188 523 188 506 267 c 0,14,15
 501 289 501 289 498 299 c 128,-1,16
 495 309 495 309 484 319.5 c 128,-1,17
 473 330 473 330 456 330 c 2,18,-1
 368 330 l 1,19,-1
 368 145 l 1,20,-1
 290 145 l 1,0,-1
368 392 m 1,21,-1
 457 392 l 2,22,23
 490 392 490 392 508.5 410.5 c 128,-1,24
 527 429 527 429 527 459 c 0,25,26
 527 487 527 487 509 506 c 128,-1,27
 491 525 491 525 457 525 c 2,28,-1
 368 525 l 1,29,-1
 368 392 l 1,21,-1
43 374 m 0,30,31
 43 550 43 550 154 659 c 128,-1,32
 265 768 265 768 433 768 c 0,33,34
 604 768 604 768 715 657.5 c 128,-1,35
 826 547 826 547 826 374 c 256,36,37
 826 201 826 201 715.5 90 c 128,-1,38
 605 -21 605 -21 433 -21 c 0,39,40
 266 -21 266 -21 154.5 88 c 128,-1,41
 43 197 43 197 43 374 c 0,30,31
111 374 m 0,42,43
 111 225 111 225 199.5 133 c 128,-1,44
 288 41 288 41 433 41 c 0,45,46
 577 41 577 41 667.5 133 c 128,-1,47
 758 225 758 225 758 374 c 256,48,49
 758 523 758 523 666.5 614 c 128,-1,50
 575 705 575 705 433 705 c 0,51,52
 290 705 290 705 200.5 613.5 c 128,-1,53
 111 522 111 522 111 374 c 0,42,43
EndSplineSet
EndChar

StartChar: macron
Encoding: 175 175 113
Width: 501
GlyphClass: 2
Flags: W
LayerCount: 2
Fore
SplineSet
1 725 m 1,0,-1
 1 804 l 1,1,-1
 501 804 l 1,2,-1
 501 725 l 1,3,-1
 1 725 l 1,0,-1
EndSplineSet
EndChar

StartChar: degree
Encoding: 176 176 114
Width: 423
GlyphClass: 2
Flags: W
LayerCount: 2
Fore
SplineSet
84 617 m 0,0,1
 84 669 84 669 120 705.5 c 128,-1,2
 156 742 156 742 212 742 c 0,3,4
 266 742 266 742 303 706 c 128,-1,5
 340 670 340 670 340 617 c 256,6,7
 340 564 340 564 302.5 527.5 c 128,-1,8
 265 491 265 491 212 491 c 0,9,10
 158 491 158 491 121 527.5 c 128,-1,11
 84 564 84 564 84 617 c 0,0,1
144 617 m 0,12,13
 144 587 144 587 163 567 c 128,-1,14
 182 547 182 547 212 547 c 0,15,16
 240 547 240 547 259.5 567 c 128,-1,17
 279 587 279 587 279 617 c 0,18,19
 279 644 279 644 260.5 664.5 c 128,-1,20
 242 685 242 685 212 685 c 0,21,22
 181 685 181 685 162.5 664.5 c 128,-1,23
 144 644 144 644 144 617 c 0,12,13
EndSplineSet
EndChar

StartChar: plusminus
Encoding: 177 177 115
Width: 560
GlyphClass: 2
Flags: W
LayerCount: 2
Fore
SplineSet
42 402 m 1,0,-1
 42 481 l 1,1,-1
 235 481 l 1,2,-1
 235 651 l 1,3,-1
 325 651 l 1,4,-1
 325 481 l 1,5,-1
 517 481 l 1,6,-1
 517 402 l 1,7,-1
 325 402 l 1,8,-1
 325 233 l 1,9,-1
 235 233 l 1,10,-1
 235 402 l 1,11,-1
 42 402 l 1,0,-1
43 91 m 1,12,-1
 43 170 l 1,13,-1
 517 170 l 1,14,-1
 517 91 l 1,15,-1
 43 91 l 1,12,-1
EndSplineSet
EndChar

StartChar: twosuperior
Encoding: 178 178 116
Width: 325
GlyphClass: 2
Flags: W
LayerCount: 2
Fore
SplineSet
27 707 m 1,0,1
 56 825 56 825 162 825 c 0,2,3
 219 825 219 825 255 791.5 c 128,-1,4
 291 758 291 758 291 702 c 0,5,6
 291 640 291 640 222 570 c 0,7,8
 213 562 213 562 192 542 c 128,-1,9
 171 522 171 522 159.5 510.5 c 128,-1,10
 148 499 148 499 133.5 481 c 128,-1,11
 119 463 119 463 112 447 c 1,12,-1
 291 447 l 1,13,-1
 291 390 l 1,14,-1
 31 390 l 1,15,16
 31 444 31 444 60 486 c 128,-1,17
 89 528 89 528 174 610 c 0,18,19
 223 655 223 655 223 703 c 0,20,21
 223 734 223 734 206.5 751 c 128,-1,22
 190 768 190 768 161 768 c 0,23,24
 134 768 134 768 115.5 750.5 c 128,-1,25
 97 733 97 733 93.5 721.5 c 128,-1,26
 90 710 90 710 85 692 c 1,27,-1
 27 707 l 1,0,1
EndSplineSet
EndChar

StartChar: threesuperior
Encoding: 179 179 117
Width: 325
GlyphClass: 2
Flags: W
LayerCount: 2
Fore
SplineSet
19 477 m 1,0,-1
 73 498 l 1,1,2
 102 437 102 437 157 437 c 0,3,4
 190 437 190 437 212 457 c 128,-1,5
 234 477 234 477 234 513 c 0,6,7
 234 547 234 547 210 566 c 128,-1,8
 186 585 186 585 149 585 c 0,9,10
 134 585 134 585 109 583 c 1,11,-1
 109 641 l 1,12,13
 140 639 140 639 147 639 c 0,14,15
 178 639 178 639 198 656.5 c 128,-1,16
 218 674 218 674 218 706 c 0,17,18
 218 734 218 734 200.5 751.5 c 128,-1,19
 183 769 183 769 155 769 c 0,20,21
 126 769 126 769 111 752 c 128,-1,22
 96 735 96 735 85 706 c 1,23,-1
 30 723 l 1,24,25
 61 825 61 825 157 825 c 0,26,27
 215 825 215 825 250 792.5 c 128,-1,28
 285 760 285 760 285 711 c 0,29,30
 285 647 285 647 233 617 c 1,31,32
 302 586 302 586 302 513 c 0,33,34
 302 452 302 452 262 416.5 c 128,-1,35
 222 381 222 381 157 381 c 0,36,37
 106 381 106 381 70.5 407 c 128,-1,38
 35 433 35 433 19 477 c 1,0,-1
EndSplineSet
EndChar

StartChar: acute
Encoding: 180 180 118
Width: 350
GlyphClass: 2
Flags: W
LayerCount: 2
Fore
SplineSet
75 650 m 1,0,-1
 185 824 l 1,1,-1
 299 824 l 1,2,-1
 153 650 l 1,3,-1
 75 650 l 1,0,-1
EndSplineSet
EndChar

StartChar: uni00B5
Encoding: 181 181 119
Width: 569
GlyphClass: 2
Flags: W
LayerCount: 2
Fore
SplineSet
79 -226 m 1,0,-1
 79 531 l 1,1,-1
 170 531 l 1,2,-1
 170 204 l 2,3,4
 170 59 170 59 274 59 c 0,5,6
 338 59 338 59 372.5 110 c 128,-1,7
 407 161 407 161 407 230 c 2,8,-1
 407 531 l 1,9,-1
 497 531 l 1,10,-1
 497 0 l 1,11,-1
 410 0 l 1,12,-1
 410 77 l 1,13,-1
 409 77 l 1,14,15
 396 38 396 38 355.5 10.5 c 128,-1,16
 315 -17 315 -17 257 -17 c 0,17,18
 200 -17 200 -17 170 27 c 1,19,-1
 170 -226 l 1,20,-1
 79 -226 l 1,0,-1
EndSplineSet
EndChar

StartChar: paragraph
Encoding: 182 182 120
Width: 631
GlyphClass: 2
Flags: W
LayerCount: 2
Fore
SplineSet
55 545 m 0,0,1
 55 645 55 645 107.5 706.5 c 128,-1,2
 160 768 160 768 259 768 c 2,3,-1
 545 768 l 1,4,-1
 545 -71 l 1,5,-1
 470 -71 l 1,6,-1
 470 685 l 1,7,-1
 378 685 l 1,8,-1
 378 -71 l 1,9,-1
 302 -71 l 1,10,-1
 302 324 l 1,11,12
 279 316 279 316 246 316 c 0,13,14
 165 316 165 316 110 375.5 c 128,-1,15
 55 435 55 435 55 545 c 0,0,1
EndSplineSet
EndChar

StartChar: periodcentered
Encoding: 183 183 121
Width: 341
GlyphClass: 2
Flags: W
LayerCount: 2
Fore
SplineSet
103 290 m 1,0,-1
 103 415 l 1,1,-1
 238 415 l 1,2,-1
 238 290 l 1,3,-1
 103 290 l 1,0,-1
EndSplineSet
EndChar

StartChar: cedilla
Encoding: 184 184 122
Width: 301
GlyphClass: 2
Flags: W
LayerCount: 2
Fore
SplineSet
43 -154 m 1,0,1
 88 -164 88 -164 107 -164 c 0,2,3
 169 -164 169 -164 169 -127 c 0,4,5
 169 -86 169 -86 76 -79 c 1,6,-1
 125 23 l 1,7,-1
 205 23 l 1,8,-1
 176 -37 l 1,9,10
 210 -46 210 -46 231.5 -69 c 128,-1,11
 253 -92 253 -92 253 -128 c 0,12,13
 253 -171 253 -171 220 -200 c 128,-1,14
 187 -229 187 -229 114 -229 c 0,15,16
 74 -229 74 -229 43 -220 c 1,17,-1
 43 -154 l 1,0,1
EndSplineSet
EndChar

StartChar: onesuperior
Encoding: 185 185 123
Width: 325
GlyphClass: 2
Flags: W
LayerCount: 2
Fore
SplineSet
50 699 m 1,0,-1
 50 752 l 1,1,-1
 74 752 l 2,2,3
 118 752 118 752 134 765.5 c 128,-1,4
 150 779 150 779 150 804 c 2,5,-1
 150 823 l 1,6,-1
 209 823 l 1,7,-1
 209 390 l 1,8,-1
 142 390 l 1,9,-1
 142 699 l 1,10,-1
 50 699 l 1,0,-1
EndSplineSet
EndChar

StartChar: ordmasculine
Encoding: 186 186 124
Width: 389
GlyphClass: 2
Flags: W
LayerCount: 2
Fore
SplineSet
95 629 m 0,0,1
 95 563 95 563 124 526 c 128,-1,2
 153 489 153 489 195 489 c 0,3,4
 235 489 235 489 265 526 c 128,-1,5
 295 563 295 563 295 629 c 0,6,7
 295 696 295 696 265.5 732 c 128,-1,8
 236 768 236 768 195 768 c 0,9,10
 153 768 153 768 124 732 c 128,-1,11
 95 696 95 696 95 629 c 0,0,1
26 629 m 0,12,13
 26 713 26 713 70 769.5 c 128,-1,14
 114 826 114 826 195 826 c 0,15,16
 275 826 275 826 319 769.5 c 128,-1,17
 363 713 363 713 363 629 c 0,18,19
 363 594 363 594 354 561 c 128,-1,20
 345 528 345 528 326 498 c 128,-1,21
 307 468 307 468 273 450 c 128,-1,22
 239 432 239 432 195 432 c 0,23,24
 136 432 136 432 96.5 463.5 c 128,-1,25
 57 495 57 495 41.5 537.5 c 128,-1,26
 26 580 26 580 26 629 c 0,12,13
37 316 m 1,27,-1
 37 377 l 1,28,-1
 354 377 l 1,29,-1
 354 316 l 1,30,-1
 37 316 l 1,27,-1
EndSplineSet
EndChar

StartChar: guillemotright
Encoding: 187 187 125
Width: 481
GlyphClass: 2
Flags: W
LayerCount: 2
Fore
SplineSet
36 430 m 1,0,-1
 100 478 l 1,1,-1
 261 254 l 1,2,-1
 100 31 l 1,3,-1
 37 78 l 1,4,-1
 164 254 l 1,5,-1
 36 430 l 1,0,-1
219 69 m 1,6,-1
 346 254 l 1,7,-1
 217 443 l 1,8,-1
 284 486 l 1,9,-1
 444 254 l 1,10,-1
 284 23 l 1,11,-1
 219 69 l 1,6,-1
EndSplineSet
EndChar

StartChar: onequarter
Encoding: 188 188 126
Width: 968
GlyphClass: 3
Flags: W
LayerCount: 2
Fore
SplineSet
635 133 m 1,0,-1
 753 133 l 1,1,-1
 753 274 l 2,2,3
 753 281 753 281 753.5 298.5 c 128,-1,4
 754 316 754 316 754 322 c 1,5,-1
 727 276 l 1,6,-1
 635 133 l 1,0,-1
76 648 m 1,7,-1
 76 714 l 1,8,-1
 106 714 l 2,9,10
 153 714 153 714 171.5 728.5 c 128,-1,11
 190 743 190 743 190 770 c 2,12,-1
 190 793 l 1,13,-1
 261 793 l 1,14,-1
 261 296 l 1,15,-1
 179 296 l 1,16,-1
 179 648 l 1,17,-1
 76 648 l 1,7,-1
160 -50 m 1,18,-1
 634 781 l 1,19,-1
 721 781 l 1,20,-1
 249 -50 l 1,21,-1
 160 -50 l 1,18,-1
549 124 m 1,22,-1
 765 454 l 1,23,-1
 834 454 l 1,24,-1
 834 133 l 1,25,-1
 898 133 l 1,26,-1
 898 63 l 1,27,-1
 834 63 l 1,28,-1
 834 -45 l 1,29,-1
 753 -45 l 1,30,-1
 753 63 l 1,31,-1
 549 63 l 1,32,-1
 549 124 l 1,22,-1
EndSplineSet
Ligature2: "'frac' Diagonal Fractions lookup 7 subtable" one fraction four
Ligature2: "'frac' Diagonal Fractions lookup 7 subtable" one slash four
EndChar

StartChar: onehalf
Encoding: 189 189 127
Width: 968
GlyphClass: 3
Flags: W
LayerCount: 2
Fore
SplineSet
570 316 m 1,0,1
 602 454 602 454 727 454 c 0,2,3
 793 454 793 454 835 416 c 128,-1,4
 877 378 877 378 877 312 c 0,5,6
 877 239 877 239 796 160 c 0,7,8
 790 154 790 154 777 142 c 128,-1,9
 764 130 764 130 759 125 c 128,-1,10
 754 120 754 120 744 110.5 c 128,-1,11
 734 101 734 101 729.5 96.5 c 128,-1,12
 725 92 725 92 717.5 84 c 128,-1,13
 710 76 710 76 706 71 c 128,-1,14
 702 66 702 66 696.5 59.5 c 128,-1,15
 691 53 691 53 688 48 c 128,-1,16
 685 43 685 43 681 37 c 128,-1,17
 677 31 677 31 674 25 c 1,18,-1
 876 25 l 1,19,-1
 876 -45 l 1,20,-1
 575 -45 l 1,21,22
 575 15 575 15 606.5 64.5 c 128,-1,23
 638 114 638 114 740 210 c 0,24,25
 794 260 794 260 794 313 c 0,26,27
 794 348 794 348 776 366 c 128,-1,28
 758 384 758 384 726 384 c 0,29,30
 663 384 663 384 642 296 c 1,31,-1
 570 316 l 1,0,1
76 648 m 1,32,-1
 76 714 l 1,33,-1
 106 714 l 2,34,35
 153 714 153 714 171.5 728.5 c 128,-1,36
 190 743 190 743 190 770 c 2,37,-1
 190 793 l 1,38,-1
 261 793 l 1,39,-1
 261 296 l 1,40,-1
 179 296 l 1,41,-1
 179 648 l 1,42,-1
 76 648 l 1,32,-1
153 -50 m 1,43,-1
 629 781 l 1,44,-1
 716 781 l 1,45,-1
 243 -50 l 1,46,-1
 153 -50 l 1,43,-1
EndSplineSet
Ligature2: "'frac' Diagonal Fractions lookup 7 subtable" one fraction two
Ligature2: "'frac' Diagonal Fractions lookup 7 subtable" one slash two
EndChar

StartChar: threequarters
Encoding: 190 190 128
Width: 968
GlyphClass: 3
Flags: W
LayerCount: 2
Fore
SplineSet
60 408 m 1,0,-1
 127 434 l 1,1,2
 137 416 137 416 145 403.5 c 128,-1,3
 153 391 153 391 174 378.5 c 128,-1,4
 195 366 195 366 222 366 c 0,5,6
 257 366 257 366 281 386.5 c 128,-1,7
 305 407 305 407 305 448 c 0,8,9
 305 485 305 485 278 506.5 c 128,-1,10
 251 528 251 528 212 528 c 0,11,12
 198 528 198 528 163 525 c 1,13,-1
 163 596 l 1,14,15
 181 594 181 594 210 594 c 0,16,17
 244 594 244 594 265.5 613.5 c 128,-1,18
 287 633 287 633 287 668 c 0,19,20
 287 698 287 698 268 717 c 128,-1,21
 249 736 249 736 219 736 c 0,22,23
 187 736 187 736 170.5 716.5 c 128,-1,24
 154 697 154 697 141 664 c 1,25,-1
 72 686 l 1,26,27
 89 741 89 741 126.5 773 c 128,-1,28
 164 805 164 805 222 805 c 0,29,30
 289 805 289 805 329.5 767.5 c 128,-1,31
 370 730 370 730 370 673 c 0,32,33
 370 604 370 604 312 566 c 1,34,35
 387 530 387 530 387 448 c 0,36,37
 387 377 387 377 341.5 336.5 c 128,-1,38
 296 296 296 296 222 296 c 0,39,40
 172 296 172 296 127.5 321.5 c 128,-1,41
 83 347 83 347 60 408 c 1,0,-1
557 124 m 1,42,-1
 774 454 l 1,43,-1
 842 454 l 1,44,-1
 842 133 l 1,45,-1
 906 133 l 1,46,-1
 906 63 l 1,47,-1
 842 63 l 1,48,-1
 842 -45 l 1,49,-1
 761 -45 l 1,50,-1
 761 63 l 1,51,-1
 557 63 l 1,52,-1
 557 124 l 1,42,-1
643 133 m 1,53,-1
 761 133 l 1,54,-1
 761 273 l 2,55,56
 761 280 761 280 761.5 297.5 c 128,-1,57
 762 315 762 315 762 321 c 1,58,-1
 736 276 l 1,59,-1
 643 133 l 1,53,-1
227 -50 m 1,60,-1
 704 781 l 1,61,-1
 791 781 l 1,62,-1
 317 -50 l 1,63,-1
 227 -50 l 1,60,-1
EndSplineSet
Ligature2: "'frac' Diagonal Fractions lookup 7 subtable" three fraction four
Ligature2: "'frac' Diagonal Fractions lookup 7 subtable" three slash four
EndChar

StartChar: questiondown
Encoding: 191 191 129
Width: 560
GlyphClass: 2
Flags: W
LayerCount: 2
Fore
SplineSet
69 -23 m 0,0,1
 69 22 69 22 87 58 c 128,-1,2
 105 94 105 94 130.5 119 c 128,-1,3
 156 144 156 144 181.5 168 c 128,-1,4
 207 192 207 192 225 225.5 c 128,-1,5
 243 259 243 259 243 302 c 2,6,-1
 243 327 l 1,7,-1
 336 327 l 1,8,-1
 336 295 l 2,9,10
 336 246 336 246 319 208 c 128,-1,11
 302 170 302 170 276 144 c 128,-1,12
 250 118 250 118 225 95 c 128,-1,13
 200 72 200 72 183 42 c 128,-1,14
 166 12 166 12 166 -26 c 0,15,16
 166 -81 166 -81 195.5 -113 c 128,-1,17
 225 -145 225 -145 277 -145 c 0,18,19
 369 -145 369 -145 415 -31 c 1,20,-1
 498 -59 l 1,21,22
 473 -133 473 -133 415.5 -179 c 128,-1,23
 358 -225 358 -225 278 -225 c 0,24,25
 185 -225 185 -225 127 -170 c 128,-1,26
 69 -115 69 -115 69 -23 c 0,0,1
222 413 m 1,27,-1
 222 535 l 1,28,-1
 356 535 l 1,29,-1
 356 413 l 1,30,-1
 222 413 l 1,27,-1
EndSplineSet
EndChar

StartChar: AE
Encoding: 198 198 136
Width: 943
GlyphClass: 2
Flags: W
LayerCount: 2
Fore
SplineSet
250 277 m 1,0,-1
 469 277 l 1,1,-1
 469 646 l 1,2,-1
 460 646 l 1,3,-1
 250 277 l 1,0,-1
-4 0 m 1,4,-1
 412 735 l 1,5,-1
 899 735 l 1,6,-1
 899 655 l 1,7,-1
 563 655 l 1,8,-1
 563 420 l 1,9,-1
 863 420 l 1,10,-1
 863 341 l 1,11,-1
 557 341 l 1,12,-1
 557 79 l 1,13,-1
 908 79 l 1,14,-1
 908 0 l 1,15,-1
 469 0 l 1,16,-1
 469 201 l 1,17,-1
 209 201 l 1,18,-1
 98 0 l 1,19,-1
 -4 0 l 1,4,-1
EndSplineSet
EndChar

StartChar: multiply
Encoding: 215 215 153
Width: 558
GlyphClass: 2
Flags: W
LayerCount: 2
Fore
SplineSet
41 194 m 1,0,-1
 223 364 l 1,1,-1
 41 536 l 1,2,-1
 99 591 l 1,3,-1
 278 417 l 1,4,-1
 459 591 l 1,5,-1
 516 537 l 1,6,-1
 335 364 l 1,7,-1
 516 193 l 1,8,-1
 459 138 l 1,9,-1
 278 311 l 1,10,-1
 99 138 l 1,11,-1
 41 194 l 1,0,-1
EndSplineSet
EndChar

StartChar: Oslash
Encoding: 216 216 154
Width: 712
GlyphClass: 2
Flags: W
LayerCount: 2
Fore
SplineSet
47 367 m 0,0,1
 47 540 47 540 131.5 646 c 128,-1,2
 216 752 216 752 356 752 c 0,3,4
 439 752 439 752 505 714 c 1,5,-1
 545 792 l 1,6,-1
 629 792 l 1,7,-1
 564 668 l 1,8,9
 666 563 666 563 666 366 c 0,10,11
 666 191 666 191 581 87 c 128,-1,12
 496 -17 496 -17 356 -17 c 0,13,14
 282 -17 282 -17 223 13 c 1,15,-1
 181 -66 l 1,16,-1
 98 -66 l 1,17,-1
 162 56 l 1,18,19
 47 162 47 162 47 367 c 0,0,1
517 581 m 1,20,-1
 262 88 l 1,21,22
 302 64 302 64 356 64 c 0,23,24
 454 64 454 64 511 144 c 128,-1,25
 568 224 568 224 568 366 c 0,26,27
 568 504 568 504 517 581 c 1,20,-1
465 639 m 1,28,29
 418 672 418 672 356 672 c 0,30,31
 258 672 258 672 201 589.5 c 128,-1,32
 144 507 144 507 144 367 c 0,33,34
 144 222 144 222 206 140 c 1,35,-1
 465 639 l 1,28,29
EndSplineSet
EndChar

StartChar: Thorn
Encoding: 222 222 160
Width: 594
GlyphClass: 2
Flags: W
LayerCount: 2
Fore
SplineSet
95 0 m 1,0,-1
 95 735 l 1,1,-1
 189 735 l 1,2,-1
 189 614 l 1,3,-1
 293 614 l 2,4,5
 429 614 429 614 493 548.5 c 128,-1,6
 557 483 557 483 557 380 c 0,7,8
 557 261 557 261 483 202 c 128,-1,9
 409 143 409 143 287 143 c 2,10,-1
 189 143 l 1,11,-1
 189 0 l 1,12,-1
 95 0 l 1,0,-1
189 222 m 1,13,-1
 278 222 l 2,14,15
 459 222 459 222 459 381 c 0,16,17
 459 535 459 535 285 535 c 2,18,-1
 189 535 l 1,19,-1
 189 222 l 1,13,-1
EndSplineSet
EndChar

StartChar: germandbls
Encoding: 223 223 161
Width: 649
GlyphClass: 2
Flags: W
LayerCount: 2
Fore
SplineSet
95 0 m 1,0,-1
 95 547 l 2,1,2
 95 645 95 645 159 698.5 c 128,-1,3
 223 752 223 752 318 752 c 0,4,5
 419 752 419 752 482 698 c 128,-1,6
 545 644 545 644 545 554 c 0,7,8
 545 495 545 495 520 454.5 c 128,-1,9
 495 414 495 414 459 393 c 1,10,-1
 459 391 l 1,11,12
 520 373 520 373 562 324 c 128,-1,13
 604 275 604 275 604 194 c 0,14,15
 604 98 604 98 544 40.5 c 128,-1,16
 484 -17 484 -17 381 -17 c 0,17,18
 307 -17 307 -17 247 3 c 1,19,-1
 250 86 l 1,20,21
 309 63 309 63 379 63 c 0,22,23
 433 63 433 63 470.5 99.5 c 128,-1,24
 508 136 508 136 508 194 c 0,25,26
 508 266 508 266 465 304 c 128,-1,27
 422 342 422 342 353 342 c 2,28,-1
 288 342 l 1,29,-1
 288 421 l 1,30,-1
 344 421 l 2,31,32
 390 421 390 421 419.5 456.5 c 128,-1,33
 449 492 449 492 449 549 c 0,34,35
 449 603 449 603 414.5 637.5 c 128,-1,36
 380 672 380 672 320 672 c 0,37,38
 259 672 259 672 224 637 c 128,-1,39
 189 602 189 602 189 540 c 2,40,-1
 189 0 l 1,41,-1
 95 0 l 1,0,-1
EndSplineSet
EndChar

StartChar: ae
Encoding: 230 230 168
Width: 900
GlyphClass: 2
Flags: W
LayerCount: 2
Fore
SplineSet
129 141 m 0,0,1
 129 106 129 106 157.5 82 c 128,-1,2
 186 58 186 58 234 58 c 0,3,4
 300 58 300 58 346.5 100.5 c 128,-1,5
 393 143 393 143 393 209 c 2,6,-1
 393 275 l 1,7,8
 350 264 350 264 274 252 c 0,9,10
 129 230 129 230 129 141 c 0,0,1
484 302 m 1,11,-1
 772 302 l 1,12,13
 772 374 772 374 732.5 424 c 128,-1,14
 693 474 693 474 632 474 c 0,15,16
 570 474 570 474 532.5 430 c 128,-1,17
 495 386 495 386 486 321 c 2,18,-1
 484 302 l 1,11,-1
39 135 m 0,19,20
 39 282 39 282 268 317 c 0,21,22
 372 334 372 334 393 342 c 1,23,-1
 393 373 l 2,24,25
 393 415 393 415 360.5 445.5 c 128,-1,26
 328 476 328 476 274 476 c 0,27,28
 176 476 176 476 108 397 c 1,29,-1
 51 445 l 1,30,31
 138 548 138 548 274 548 c 0,32,33
 404 548 404 548 452 447 c 1,34,35
 512 548 512 548 632 548 c 0,36,37
 734 548 734 548 798 472 c 128,-1,38
 862 396 862 396 862 277 c 2,39,-1
 862 235 l 1,40,-1
 484 235 l 1,41,-1
 484 218 l 1,42,43
 489 153 489 153 527 105 c 128,-1,44
 565 57 565 57 633 57 c 0,45,46
 683 57 683 57 719.5 81.5 c 128,-1,47
 756 106 756 106 775 143 c 1,48,-1
 852 118 l 1,49,50
 825 58 825 58 769.5 20.5 c 128,-1,51
 714 -17 714 -17 632 -17 c 0,52,53
 564 -17 564 -17 512.5 17 c 128,-1,54
 461 51 461 51 433 110 c 1,55,56
 358 -17 358 -17 224 -17 c 0,57,58
 139 -17 139 -17 89 24.5 c 128,-1,59
 39 66 39 66 39 135 c 0,19,20
EndSplineSet
EndChar

StartChar: eth
Encoding: 240 240 178
Width: 560
GlyphClass: 2
Flags: W
LayerCount: 2
Fore
SplineSet
39 235 m 0,0,1
 39 354 39 354 105 423.5 c 128,-1,2
 171 493 171 493 275 493 c 0,3,4
 325 493 325 493 363 471.5 c 128,-1,5
 401 450 401 450 417 421 c 1,6,7
 392 540 392 540 319 610 c 1,8,-1
 203 526 l 1,9,-1
 151 584 l 1,10,-1
 253 658 l 1,11,12
 203 685 203 685 143 695 c 1,13,-1
 173 767 l 1,14,15
 229 758 229 758 278 738 c 0,16,17
 303 728 303 728 327 712 c 1,18,-1
 430 787 l 1,19,-1
 482 728 l 1,20,-1
 391 662 l 1,21,22
 424 629 424 629 450 587 c 0,23,24
 482 532 482 532 501 450.5 c 128,-1,25
 520 369 520 369 520 268 c 0,26,27
 520 141 520 141 456 62 c 128,-1,28
 392 -17 392 -17 276 -17 c 0,29,30
 168 -17 168 -17 103.5 54.5 c 128,-1,31
 39 126 39 126 39 235 c 0,0,1
132 239 m 0,32,33
 132 159 132 159 171 109 c 128,-1,34
 210 59 210 59 278 59 c 0,35,36
 343 59 343 59 382 108 c 128,-1,37
 421 157 421 157 421 240 c 0,38,39
 421 319 421 319 382 367 c 128,-1,40
 343 415 343 415 279 415 c 256,41,42
 215 415 215 415 173.5 368.5 c 128,-1,43
 132 322 132 322 132 239 c 0,32,33
EndSplineSet
EndChar

StartChar: divide
Encoding: 247 247 185
Width: 558
GlyphClass: 2
Flags: W
LayerCount: 2
Fore
SplineSet
218 493 m 1,0,-1
 218 610 l 1,1,-1
 338 610 l 1,2,-1
 338 493 l 1,3,-1
 218 493 l 1,0,-1
27 324 m 1,4,-1
 27 404 l 1,5,-1
 530 404 l 1,6,-1
 530 324 l 1,7,-1
 27 324 l 1,4,-1
218 117 m 1,8,-1
 218 234 l 1,9,-1
 338 234 l 1,10,-1
 338 117 l 1,11,-1
 218 117 l 1,8,-1
EndSplineSet
EndChar

StartChar: oslash
Encoding: 248 248 186
Width: 561
GlyphClass: 2
Flags: W
LayerCount: 2
Fore
SplineSet
39 265 m 0,0,1
 39 385 39 385 102 466.5 c 128,-1,2
 165 548 165 548 281 548 c 0,3,4
 342 548 342 548 388 524 c 1,5,-1
 424 593 l 1,6,-1
 497 593 l 1,7,-1
 441 486 l 1,8,9
 521 408 521 408 521 265 c 0,10,11
 521 215 521 215 508 167.5 c 128,-1,12
 495 120 495 120 468.5 77.5 c 128,-1,13
 442 35 442 35 393.5 9 c 128,-1,14
 345 -17 345 -17 281 -17 c 0,15,16
 226 -17 226 -17 180 3 c 1,17,-1
 148 -59 l 1,18,-1
 75 -59 l 1,19,-1
 126 39 l 1,20,21
 84 77 84 77 61.5 138 c 128,-1,22
 39 199 39 199 39 265 c 0,0,1
395 401 m 1,23,-1
 219 75 l 1,24,25
 249 59 249 59 281 59 c 0,26,27
 343 59 343 59 386.5 113.5 c 128,-1,28
 430 168 430 168 430 265 c 0,29,30
 430 347 430 347 395 401 c 1,23,-1
350 451 m 1,31,32
 318 472 318 472 281 472 c 0,33,34
 220 472 220 472 176 418.5 c 128,-1,35
 132 365 132 365 132 265 c 0,36,37
 132 177 132 177 171 121 c 1,38,-1
 350 451 l 1,31,32
EndSplineSet
EndChar

StartChar: thorn
Encoding: 254 254 192
Width: 589
GlyphClass: 2
Flags: W
LayerCount: 2
Fore
SplineSet
171 266 m 0,0,1
 171 172 171 172 211.5 115.5 c 128,-1,2
 252 59 252 59 311 59 c 0,3,4
 379 59 379 59 418.5 114 c 128,-1,5
 458 169 458 169 458 266 c 0,6,7
 458 361 458 361 419 416.5 c 128,-1,8
 380 472 380 472 312 472 c 0,9,10
 254 472 254 472 212.5 415 c 128,-1,11
 171 358 171 358 171 266 c 0,0,1
84 -227 m 1,12,-1
 84 762 l 1,13,-1
 173 762 l 1,14,-1
 173 446 l 1,15,16
 188 490 188 490 232 519 c 128,-1,17
 276 548 276 548 323 548 c 0,18,19
 425 548 425 548 487 472.5 c 128,-1,20
 549 397 549 397 549 266 c 0,21,22
 549 194 549 194 529.5 137.5 c 128,-1,23
 510 81 510 81 476.5 48 c 128,-1,24
 443 15 443 15 404 -1 c 128,-1,25
 365 -17 365 -17 323 -17 c 0,26,27
 269 -17 269 -17 229.5 13 c 128,-1,28
 190 43 190 43 173 82 c 1,29,-1
 173 -227 l 1,30,-1
 84 -227 l 1,12,-1
EndSplineSet
EndChar

StartChar: dcroat
Encoding: 273 273 211
Width: 585
GlyphClass: 2
Flags: W
LayerCount: 2
Fore
SplineSet
39 264 m 0,0,1
 39 396 39 396 103 470 c 128,-1,2
 167 544 167 544 263 544 c 0,3,4
 317 544 317 544 357.5 515 c 128,-1,5
 398 486 398 486 415 447 c 1,6,-1
 415 612 l 1,7,-1
 203 612 l 1,8,-1
 203 680 l 1,9,-1
 415 680 l 1,10,-1
 415 762 l 1,11,-1
 506 762 l 1,12,-1
 506 680 l 1,13,-1
 571 680 l 1,14,-1
 571 612 l 1,15,-1
 506 612 l 1,16,-1
 506 0 l 1,17,-1
 418 0 l 1,18,-1
 418 87 l 1,19,20
 397 40 397 40 357 11.5 c 128,-1,21
 317 -17 317 -17 263 -17 c 0,22,23
 171 -17 171 -17 105 54 c 128,-1,24
 39 125 39 125 39 264 c 0,0,1
132 264 m 0,25,26
 132 169 132 169 172 114 c 128,-1,27
 212 59 212 59 276 59 c 0,28,29
 337 59 337 59 377 115 c 128,-1,30
 417 171 417 171 417 264 c 0,31,32
 417 354 417 354 377 411 c 128,-1,33
 337 468 337 468 275 468 c 0,34,35
 211 468 211 468 171.5 412 c 128,-1,36
 132 356 132 356 132 264 c 0,25,26
EndSplineSet
EndChar

StartChar: uni0123
Encoding: 291 291 229
Width: 571
GlyphClass: 2
Flags: W
LayerCount: 2
Fore
SplineSet
218 627 m 1,0,-1
 303 810 l 1,1,-1
 366 810 l 1,2,-1
 320 627 l 1,3,-1
 218 627 l 1,0,-1
132 276 m 0,4,5
 132 184 132 184 170.5 131.5 c 128,-1,6
 209 79 209 79 269 79 c 0,7,8
 332 79 332 79 369.5 130.5 c 128,-1,9
 407 182 407 182 407 276 c 0,10,11
 407 368 407 368 369 420 c 128,-1,12
 331 472 331 472 270 472 c 0,13,14
 208 472 208 472 170 418 c 128,-1,15
 132 364 132 364 132 276 c 0,4,5
40 275 m 256,16,17
 40 397 40 397 101.5 472.5 c 128,-1,18
 163 548 163 548 258 548 c 0,19,20
 317 548 317 548 354 519 c 128,-1,21
 391 490 391 490 407 453 c 1,22,-1
 407 531 l 1,23,-1
 496 531 l 1,24,-1
 496 66 l 2,25,26
 496 -85 496 -85 440.5 -158 c 128,-1,27
 385 -231 385 -231 265 -231 c 0,28,29
 205 -231 205 -231 152 -206 c 128,-1,30
 99 -181 99 -181 65 -132 c 1,31,-1
 126 -91 l 1,32,33
 183 -157 183 -157 267 -157 c 0,34,35
 333 -157 333 -157 368.5 -108.5 c 128,-1,36
 404 -60 404 -60 406 20 c 0,37,38
 407 74 407 74 407 93 c 1,39,40
 388 53 388 53 350 28 c 128,-1,41
 312 3 312 3 261 3 c 0,42,43
 163 3 163 3 101.5 78 c 128,-1,44
 40 153 40 153 40 275 c 256,16,17
EndSplineSet
EndChar

StartChar: Hbar
Encoding: 294 294 232
Width: 716
GlyphClass: 2
Flags: W
LayerCount: 2
Fore
SplineSet
14 559 m 1,0,-1
 14 632 l 1,1,-1
 95 632 l 1,2,-1
 95 735 l 1,3,-1
 189 735 l 1,4,-1
 189 632 l 1,5,-1
 528 632 l 1,6,-1
 528 735 l 1,7,-1
 621 735 l 1,8,-1
 621 632 l 1,9,-1
 702 632 l 1,10,-1
 702 559 l 1,11,-1
 621 559 l 1,12,-1
 621 0 l 1,13,-1
 528 0 l 1,14,-1
 528 338 l 1,15,-1
 189 338 l 1,16,-1
 189 0 l 1,17,-1
 95 0 l 1,18,-1
 95 559 l 1,19,-1
 14 559 l 1,0,-1
528 559 m 1,20,-1
 189 559 l 1,21,-1
 189 418 l 1,22,-1
 528 418 l 1,23,-1
 528 559 l 1,20,-1
EndSplineSet
EndChar

StartChar: hbar
Encoding: 295 295 233
Width: 566
GlyphClass: 2
Flags: W
LayerCount: 2
Fore
SplineSet
9 614 m 1,0,-1
 9 682 l 1,1,-1
 79 682 l 1,2,-1
 79 762 l 1,3,-1
 169 762 l 1,4,-1
 169 682 l 1,5,-1
 371 682 l 1,6,-1
 371 614 l 1,7,-1
 169 614 l 1,8,-1
 169 439 l 1,9,-1
 170 439 l 1,10,11
 189 475 189 475 230.5 503 c 128,-1,12
 272 531 272 531 324 531 c 0,13,14
 354 531 354 531 381.5 522 c 128,-1,15
 409 513 409 513 437 492.5 c 128,-1,16
 465 472 465 472 482 429 c 128,-1,17
 499 386 499 386 499 326 c 2,18,-1
 499 0 l 1,19,-1
 408 0 l 1,20,-1
 408 313 l 2,21,22
 408 455 408 455 306 455 c 0,23,24
 250 455 250 455 209.5 406 c 128,-1,25
 169 357 169 357 169 294 c 2,26,-1
 169 0 l 1,27,-1
 79 0 l 1,28,-1
 79 614 l 1,29,-1
 9 614 l 1,0,-1
EndSplineSet
EndChar

StartChar: dotlessi
Encoding: 305 305 243
Width: 251
GlyphClass: 2
Flags: W
LayerCount: 2
Fore
SplineSet
81 0 m 1,0,-1
 81 531 l 1,1,-1
 171 531 l 1,2,-1
 171 0 l 1,3,-1
 81 0 l 1,0,-1
EndSplineSet
EndChar

StartChar: kgreenlandic
Encoding: 312 312 250
Width: 518
GlyphClass: 2
Flags: W
LayerCount: 2
Fore
SplineSet
79 0 m 1,0,-1
 79 531 l 1,1,-1
 169 531 l 1,2,-1
 169 310 l 1,3,-1
 171 310 l 1,4,-1
 404 531 l 1,5,-1
 519 531 l 1,6,-1
 259 283 l 1,7,-1
 526 0 l 1,8,-1
 416 0 l 1,9,-1
 200 219 l 1,10,-1
 169 187 l 1,11,-1
 169 0 l 1,12,-1
 79 0 l 1,0,-1
EndSplineSet
EndChar

StartChar: Lslash
Encoding: 321 321 259
Width: 540
GlyphClass: 2
Flags: W
LayerCount: 2
Fore
SplineSet
189 344 m 1,0,-1
 189 79 l 1,1,-1
 533 79 l 1,2,-1
 533 0 l 1,3,-1
 95 0 l 1,4,-1
 95 285 l 1,5,-1
 -1 222 l 1,6,-1
 -43 289 l 1,7,-1
 95 380 l 1,8,-1
 95 735 l 1,9,-1
 189 735 l 1,10,-1
 189 437 l 1,11,-1
 290 504 l 1,12,-1
 332 436 l 1,13,-1
 189 344 l 1,0,-1
EndSplineSet
EndChar

StartChar: lslash
Encoding: 322 322 260
Width: 258
GlyphClass: 2
Flags: W
LayerCount: 2
Fore
SplineSet
175 359 m 1,0,-1
 175 0 l 1,1,-1
 85 0 l 1,2,-1
 85 304 l 1,3,-1
 -7 246 l 1,4,-1
 -49 314 l 1,5,-1
 85 399 l 1,6,-1
 85 762 l 1,7,-1
 175 762 l 1,8,-1
 175 456 l 1,9,-1
 266 512 l 1,10,-1
 307 443 l 1,11,-1
 175 359 l 1,0,-1
EndSplineSet
EndChar

StartChar: Eng
Encoding: 330 330 268
Width: 721
GlyphClass: 2
Flags: W
LayerCount: 2
Fore
SplineSet
95 0 m 1,0,-1
 95 735 l 1,1,-1
 198 735 l 1,2,-1
 480 243 l 1,3,-1
 538 136 l 1,4,-1
 544 136 l 1,5,6
 533 237 533 237 533 340 c 2,7,-1
 533 735 l 1,8,-1
 626 735 l 1,9,-1
 626 11 l 2,10,11
 626 -99 626 -99 581 -163.5 c 128,-1,12
 536 -228 536 -228 437 -228 c 0,13,14
 402 -228 402 -228 335 -220 c 1,15,-1
 335 -142 l 1,16,17
 378 -148 378 -148 420 -148 c 0,18,19
 477 -148 477 -148 499 -114 c 128,-1,20
 521 -80 521 -80 523 -1 c 1,21,-1
 242 491 l 1,22,-1
 183 598 l 1,23,-1
 178 598 l 1,24,25
 189 501 189 501 189 412 c 2,26,-1
 189 0 l 1,27,-1
 95 0 l 1,0,-1
EndSplineSet
EndChar

StartChar: eng
Encoding: 331 331 269
Width: 561
GlyphClass: 2
Flags: W
LayerCount: 2
Fore
SplineSet
73 0 m 1,0,-1
 73 531 l 1,1,-1
 161 531 l 1,2,-1
 161 449 l 1,3,-1
 162 449 l 1,4,5
 176 486 176 486 219 517 c 128,-1,6
 262 548 262 548 323 548 c 0,7,8
 399 548 399 548 446.5 500.5 c 128,-1,9
 494 453 494 453 494 342 c 2,10,-1
 494 9 l 2,11,12
 494 -116 494 -116 443.5 -173.5 c 128,-1,13
 393 -231 393 -231 315 -231 c 0,14,15
 296 -231 296 -231 279 -229 c 128,-1,16
 262 -227 262 -227 244.5 -224.5 c 128,-1,17
 227 -222 227 -222 223 -221 c 1,18,-1
 223 -144 l 1,19,20
 272 -151 272 -151 302 -151 c 0,21,22
 355 -151 355 -151 379.5 -114.5 c 128,-1,23
 404 -78 404 -78 404 -2 c 2,24,-1
 404 328 l 2,25,26
 404 472 404 472 303 472 c 0,27,28
 247 472 247 472 205.5 425.5 c 128,-1,29
 164 379 164 379 164 314 c 2,30,-1
 164 0 l 1,31,-1
 73 0 l 1,0,-1
EndSplineSet
EndChar

StartChar: OE
Encoding: 338 338 276
Width: 960
GlyphClass: 2
Flags: W
LayerCount: 2
Fore
SplineSet
47 367 m 0,0,1
 47 541 47 541 135 646.5 c 128,-1,2
 223 752 223 752 364 752 c 0,3,4
 421 752 421 752 468 735 c 1,5,-1
 915 735 l 1,6,-1
 915 655 l 1,7,-1
 558 655 l 1,8,-1
 558 420 l 1,9,-1
 879 420 l 1,10,-1
 879 341 l 1,11,-1
 558 341 l 1,12,-1
 558 79 l 1,13,-1
 925 79 l 1,14,-1
 925 0 l 1,15,-1
 470 0 l 1,16,17
 422 -17 422 -17 364 -17 c 0,18,19
 222 -17 222 -17 134.5 87.5 c 128,-1,20
 47 192 47 192 47 367 c 0,0,1
144 367 m 0,21,22
 144 227 144 227 204.5 145 c 128,-1,23
 265 63 265 63 364 63 c 0,24,25
 422 63 422 63 464 92 c 1,26,-1
 464 641 l 1,27,28
 422 672 422 672 364 672 c 0,29,30
 263 672 263 672 203.5 589 c 128,-1,31
 144 506 144 506 144 367 c 0,21,22
EndSplineSet
EndChar

StartChar: uni0163
Encoding: 355 355 293
Width: 361
GlyphClass: 2
Flags: W
LayerCount: 2
Fore
SplineSet
18 455 m 1,0,-1
 18 531 l 1,1,-1
 108 531 l 1,2,-1
 108 696 l 1,3,-1
 197 696 l 1,4,-1
 197 531 l 1,5,-1
 331 531 l 1,6,-1
 331 455 l 1,7,-1
 197 455 l 1,8,-1
 197 161 l 2,9,10
 197 117 197 117 215 97 c 128,-1,11
 233 77 233 77 271 77 c 2,12,-1
 332 77 l 1,13,-1
 332 0 l 1,14,-1
 265 0 l 1,15,-1
 255 -38 l 1,16,17
 298 -45 298 -45 321 -67.5 c 128,-1,18
 344 -90 344 -90 344 -123 c 0,19,20
 344 -163 344 -163 311 -191 c 128,-1,21
 278 -219 278 -219 209 -219 c 0,22,23
 163 -219 163 -219 122 -208 c 1,24,-1
 122 -151 l 1,25,26
 164 -161 164 -161 207 -161 c 0,27,28
 272 -161 272 -161 272 -118 c 0,29,30
 272 -76 272 -76 166 -70 c 1,31,-1
 186 12 l 1,32,33
 108 43 108 43 108 153 c 2,34,-1
 108 455 l 1,35,-1
 18 455 l 1,0,-1
EndSplineSet
Substitution2: "'locl' Localized Forms in Latin lookup 3 subtable" uni021B
Substitution2: "'locl' Localized Forms in Latin lookup 2 subtable" uni021B
Substitution2: "'aalt' Access All Alternates lookup 0 subtable" uni021B
EndChar

StartChar: tbar
Encoding: 359 359 297
Width: 361
GlyphClass: 2
Flags: W
LayerCount: 2
Fore
SplineSet
18 455 m 1,0,-1
 18 531 l 1,1,-1
 108 531 l 1,2,-1
 108 696 l 1,3,-1
 197 696 l 1,4,-1
 197 531 l 1,5,-1
 331 531 l 1,6,-1
 331 455 l 1,7,-1
 197 455 l 1,8,-1
 197 355 l 1,9,-1
 335 355 l 1,10,-1
 335 280 l 1,11,-1
 197 280 l 1,12,-1
 197 161 l 2,13,14
 197 117 197 117 215 97 c 128,-1,15
 233 77 233 77 271 77 c 2,16,-1
 332 77 l 1,17,-1
 332 0 l 1,18,-1
 259 0 l 2,19,20
 108 0 108 0 108 153 c 2,21,-1
 108 280 l 1,22,-1
 8 280 l 1,23,-1
 8 355 l 1,24,-1
 108 355 l 1,25,-1
 108 455 l 1,26,-1
 18 455 l 1,0,-1
EndSplineSet
EndChar

StartChar: longs
Encoding: 383 383 321
Width: 306
GlyphClass: 2
Flags: W
LayerCount: 2
Fore
SplineSet
84 0 m 1,0,-1
 84 603 l 2,1,2
 84 682 84 682 123.5 721.5 c 128,-1,3
 163 761 163 761 233 761 c 2,4,-1
 302 761 l 1,5,-1
 302 685 l 1,6,-1
 249 685 l 2,7,8
 173 685 173 685 173 592 c 2,9,-1
 173 0 l 1,10,-1
 84 0 l 1,0,-1
EndSplineSet
EndChar

StartChar: uni0180
Encoding: 384 384 322
Width: 585
GlyphClass: 2
Flags: W
LayerCount: 2
Fore
SplineSet
168 265 m 0,0,1
 168 171 168 171 208.5 115 c 128,-1,2
 249 59 249 59 309 59 c 0,3,4
 374 59 374 59 413.5 114.5 c 128,-1,5
 453 170 453 170 453 265 c 0,6,7
 453 358 453 358 414.5 413.5 c 128,-1,8
 376 469 376 469 310 469 c 0,9,10
 249 469 249 469 208.5 413 c 128,-1,11
 168 357 168 357 168 265 c 0,0,1
12 613 m 1,12,-1
 12 683 l 1,13,-1
 79 683 l 1,14,-1
 79 762 l 1,15,-1
 170 762 l 1,16,-1
 170 683 l 1,17,-1
 371 683 l 1,18,-1
 371 613 l 1,19,-1
 170 613 l 1,20,-1
 170 445 l 1,21,22
 185 483 185 483 226 514 c 128,-1,23
 267 545 267 545 323 545 c 0,24,25
 422 545 422 545 483.5 470.5 c 128,-1,26
 545 396 545 396 545 265 c 0,27,28
 545 193 545 193 524.5 136 c 128,-1,29
 504 79 504 79 470.5 46.5 c 128,-1,30
 437 14 437 14 399.5 -1.5 c 128,-1,31
 362 -17 362 -17 323 -17 c 0,32,33
 268 -17 268 -17 226.5 13 c 128,-1,34
 185 43 185 43 168 86 c 1,35,-1
 168 0 l 1,36,-1
 79 0 l 1,37,-1
 79 613 l 1,38,-1
 12 613 l 1,12,-1
EndSplineSet
EndChar

StartChar: uni0182
Encoding: 386 386 324
Width: 656
GlyphClass: 2
Flags: W
LayerCount: 2
Fore
SplineSet
189 79 m 1,0,-1
 375 79 l 2,1,2
 437 79 437 79 477.5 112.5 c 128,-1,3
 518 146 518 146 518 209 c 0,4,5
 518 266 518 266 478 304 c 128,-1,6
 438 342 438 342 372 342 c 2,7,-1
 189 342 l 1,8,-1
 189 79 l 1,0,-1
95 0 m 1,9,-1
 95 735 l 1,10,-1
 531 735 l 1,11,-1
 531 655 l 1,12,-1
 189 655 l 1,13,-1
 189 421 l 1,14,-1
 381 421 l 2,15,16
 490 421 490 421 553 361.5 c 128,-1,17
 616 302 616 302 616 209 c 0,18,19
 616 119 616 119 554 59.5 c 128,-1,20
 492 0 492 0 389 0 c 2,21,-1
 95 0 l 1,9,-1
EndSplineSet
EndChar

StartChar: uni0183
Encoding: 387 387 325
Width: 585
GlyphClass: 2
Flags: W
LayerCount: 2
Fore
SplineSet
168 266 m 0,0,1
 168 171 168 171 208.5 115 c 128,-1,2
 249 59 249 59 309 59 c 0,3,4
 373 59 373 59 413 114 c 128,-1,5
 453 169 453 169 453 266 c 0,6,7
 453 360 453 360 414 416 c 128,-1,8
 375 472 375 472 310 472 c 0,9,10
 249 472 249 472 208.5 415.5 c 128,-1,11
 168 359 168 359 168 266 c 0,0,1
79 0 m 1,12,-1
 79 759 l 1,13,-1
 447 759 l 1,14,-1
 447 683 l 1,15,-1
 170 683 l 1,16,-1
 170 448 l 1,17,18
 181 481 181 481 223 514.5 c 128,-1,19
 265 548 265 548 323 548 c 0,20,21
 422 548 422 548 483.5 472.5 c 128,-1,22
 545 397 545 397 545 266 c 0,23,24
 545 193 545 193 525 136.5 c 128,-1,25
 505 80 505 80 471.5 47.5 c 128,-1,26
 438 15 438 15 400 -1 c 128,-1,27
 362 -17 362 -17 323 -17 c 0,28,29
 268 -17 268 -17 226 13.5 c 128,-1,30
 184 44 184 44 168 86 c 1,31,-1
 168 0 l 1,32,-1
 79 0 l 1,12,-1
EndSplineSet
EndChar

StartChar: uni0184
Encoding: 388 388 326
Width: 662
GlyphClass: 2
Flags: W
LayerCount: 2
Fore
SplineSet
13 670 m 1,0,-1
 134 735 l 1,1,-1
 189 735 l 1,2,-1
 189 418 l 1,3,-1
 385 418 l 2,4,5
 495 418 495 418 557.5 359.5 c 128,-1,6
 620 301 620 301 620 209 c 0,7,8
 620 124 620 124 561 62 c 128,-1,9
 502 0 502 0 401 0 c 2,10,-1
 95 0 l 1,11,-1
 95 607 l 1,12,-1
 13 670 l 1,0,-1
189 79 m 1,13,-1
 381 79 l 2,14,15
 441 79 441 79 482.5 112.5 c 128,-1,16
 524 146 524 146 524 208 c 0,17,18
 524 263 524 263 485.5 301 c 128,-1,19
 447 339 447 339 380 339 c 2,20,-1
 189 339 l 1,21,-1
 189 79 l 1,13,-1
EndSplineSet
EndChar

StartChar: uni0185
Encoding: 389 389 327
Width: 585
GlyphClass: 2
Flags: W
LayerCount: 2
Fore
SplineSet
3 695 m 1,0,-1
 119 762 l 1,1,-1
 170 762 l 1,2,-1
 170 449 l 1,3,4
 190 497 190 497 234.5 522.5 c 128,-1,5
 279 548 279 548 323 548 c 0,6,7
 422 548 422 548 483.5 472.5 c 128,-1,8
 545 397 545 397 545 266 c 0,9,10
 545 194 545 194 525.5 137.5 c 128,-1,11
 506 81 506 81 473 48 c 128,-1,12
 440 15 440 15 401.5 -1 c 128,-1,13
 363 -17 363 -17 323 -17 c 0,14,15
 269 -17 269 -17 228 13 c 128,-1,16
 187 43 187 43 168 86 c 1,17,-1
 168 0 l 1,18,-1
 79 0 l 1,19,-1
 79 632 l 1,20,-1
 3 695 l 1,0,-1
168 266 m 0,21,22
 168 171 168 171 208.5 115 c 128,-1,23
 249 59 249 59 309 59 c 0,24,25
 373 59 373 59 413 114.5 c 128,-1,26
 453 170 453 170 453 266 c 0,27,28
 453 359 453 359 414.5 415.5 c 128,-1,29
 376 472 376 472 310 472 c 0,30,31
 249 472 249 472 208.5 415.5 c 128,-1,32
 168 359 168 359 168 266 c 0,21,22
EndSplineSet
EndChar

StartChar: uni0186
Encoding: 390 390 328
Width: 654
GlyphClass: 2
Flags: W
LayerCount: 2
Fore
SplineSet
24 162 m 1,0,-1
 109 189 l 1,1,2
 132 136 132 136 179 100 c 128,-1,3
 226 64 226 64 290 64 c 0,4,5
 389 64 389 64 450.5 145 c 128,-1,6
 512 226 512 226 512 367 c 0,7,8
 512 506 512 506 451.5 589 c 128,-1,9
 391 672 391 672 290 672 c 0,10,11
 188 672 188 672 123 559 c 1,12,-1
 43 586 l 1,13,14
 74 655 74 655 137 703.5 c 128,-1,15
 200 752 200 752 289 752 c 0,16,17
 431 752 431 752 519.5 648.5 c 128,-1,18
 608 545 608 545 608 367 c 0,19,20
 608 187 608 187 518.5 85 c 128,-1,21
 429 -17 429 -17 289 -17 c 0,22,23
 189 -17 189 -17 123 36 c 128,-1,24
 57 89 57 89 24 162 c 1,0,-1
EndSplineSet
EndChar

StartChar: uni018B
Encoding: 395 395 333
Width: 656
GlyphClass: 2
Flags: W
LayerCount: 2
Fore
SplineSet
138 209 m 0,0,1
 138 147 138 147 178 113 c 128,-1,2
 218 79 218 79 279 79 c 2,3,-1
 467 79 l 1,4,-1
 467 342 l 1,5,-1
 286 342 l 2,6,7
 219 342 219 342 178.5 304.5 c 128,-1,8
 138 267 138 267 138 209 c 0,0,1
41 209 m 0,9,10
 41 302 41 302 104 361.5 c 128,-1,11
 167 421 167 421 276 421 c 2,12,-1
 467 421 l 1,13,-1
 467 655 l 1,14,-1
 126 655 l 1,15,-1
 126 735 l 1,16,-1
 561 735 l 1,17,-1
 561 0 l 1,18,-1
 265 0 l 2,19,20
 163 0 163 0 102 59 c 128,-1,21
 41 118 41 118 41 209 c 0,9,10
EndSplineSet
EndChar

StartChar: uni018C
Encoding: 396 396 334
Width: 585
GlyphClass: 2
Flags: W
LayerCount: 2
Fore
SplineSet
132 266 m 0,0,1
 132 169 132 169 172 114 c 128,-1,2
 212 59 212 59 276 59 c 0,3,4
 337 59 337 59 377 115.5 c 128,-1,5
 417 172 417 172 417 266 c 0,6,7
 417 359 417 359 376 415.5 c 128,-1,8
 335 472 335 472 275 472 c 0,9,10
 210 472 210 472 171 416.5 c 128,-1,11
 132 361 132 361 132 266 c 0,0,1
39 266 m 0,12,13
 39 396 39 396 103 472 c 128,-1,14
 167 548 167 548 264 548 c 0,15,16
 323 548 323 548 362.5 515.5 c 128,-1,17
 402 483 402 483 415 450 c 1,18,-1
 415 686 l 1,19,-1
 133 686 l 1,20,-1
 133 762 l 1,21,-1
 506 762 l 1,22,-1
 506 0 l 1,23,-1
 418 0 l 1,24,-1
 418 86 l 1,25,26
 400 44 400 44 359 13.5 c 128,-1,27
 318 -17 318 -17 262 -17 c 0,28,29
 173 -17 173 -17 106 54 c 128,-1,30
 39 125 39 125 39 266 c 0,12,13
EndSplineSet
EndChar

StartChar: uni018D
Encoding: 397 397 335
Width: 610
GlyphClass: 2
Flags: W
LayerCount: 2
Fore
SplineSet
132 318 m 0,0,1
 132 254 132 254 185.5 201 c 128,-1,2
 239 148 239 148 311 118 c 1,3,4
 384 152 384 152 431.5 205.5 c 128,-1,5
 479 259 479 259 479 318 c 0,6,7
 479 382 479 382 434.5 427 c 128,-1,8
 390 472 390 472 309 472 c 0,9,10
 230 472 230 472 181 429 c 128,-1,11
 132 386 132 386 132 318 c 0,0,1
39 315 m 0,12,13
 39 425 39 425 112.5 486.5 c 128,-1,14
 186 548 186 548 310 548 c 0,15,16
 432 548 432 548 501.5 483.5 c 128,-1,17
 571 419 571 419 571 321 c 0,18,19
 571 254 571 254 522 188 c 128,-1,20
 473 122 473 122 387 79 c 1,21,22
 499 15 499 15 499 -64 c 0,23,24
 499 -136 499 -136 441.5 -179.5 c 128,-1,25
 384 -223 384 -223 288 -223 c 0,26,27
 136 -223 136 -223 64 -104 c 1,28,-1
 130 -65 l 1,29,30
 153 -97 153 -97 194 -121 c 128,-1,31
 235 -145 235 -145 287 -145 c 0,32,33
 338 -145 338 -145 372.5 -123 c 128,-1,34
 407 -101 407 -101 407 -65 c 0,35,36
 407 -53 407 -53 402 -42 c 128,-1,37
 397 -31 397 -31 384 -20 c 128,-1,38
 371 -9 371 -9 359.5 0 c 128,-1,39
 348 9 348 9 325 21.5 c 128,-1,40
 302 34 302 34 246 62 c 0,41,42
 39 166 39 166 39 315 c 0,12,13
EndSplineSet
EndChar

StartChar: uni018E
Encoding: 398 398 336
Width: 607
GlyphClass: 2
Flags: W
LayerCount: 2
Fore
SplineSet
38 0 m 1,0,-1
 38 79 l 1,1,-1
 419 79 l 1,2,-1
 419 341 l 1,3,-1
 81 341 l 1,4,-1
 81 420 l 1,5,-1
 419 420 l 1,6,-1
 419 655 l 1,7,-1
 43 655 l 1,8,-1
 43 735 l 1,9,-1
 512 735 l 1,10,-1
 512 0 l 1,11,-1
 38 0 l 1,0,-1
EndSplineSet
EndChar

StartChar: uni018F
Encoding: 399 399 337
Width: 702
GlyphClass: 2
Flags: W
LayerCount: 2
Fore
SplineSet
43 347 m 0,0,1
 43 373 43 373 45 407 c 1,2,-1
 559 407 l 1,3,4
 551 532 551 532 494.5 602 c 128,-1,5
 438 672 438 672 340 672 c 0,6,7
 221 672 221 672 145 563 c 1,8,-1
 66 594 l 1,9,10
 105 670 105 670 177 711 c 128,-1,11
 249 752 249 752 341 752 c 0,12,13
 495 752 495 752 576.5 645 c 128,-1,14
 658 538 658 538 658 366 c 0,15,16
 658 189 658 189 570 86 c 128,-1,17
 482 -17 482 -17 344 -17 c 0,18,19
 201 -17 201 -17 122 86.5 c 128,-1,20
 43 190 43 190 43 347 c 0,0,1
142 327 m 1,21,22
 142 323 142 323 142.5 315.5 c 128,-1,23
 143 308 143 308 143 305 c 0,24,25
 144 260 144 260 156.5 219 c 128,-1,26
 169 178 169 178 191.5 141.5 c 128,-1,27
 214 105 214 105 254 84 c 128,-1,28
 294 63 294 63 346 63 c 0,29,30
 430 63 430 63 493.5 130 c 128,-1,31
 557 197 557 197 560 327 c 1,32,-1
 142 327 l 1,21,22
EndSplineSet
EndChar

StartChar: uni0190
Encoding: 400 400 338
Width: 606
GlyphClass: 2
Flags: W
LayerCount: 2
Fore
SplineSet
47 204 m 0,0,1
 47 278 47 278 92.5 325.5 c 128,-1,2
 138 373 138 373 196 389 c 1,3,4
 147 409 147 409 111.5 455.5 c 128,-1,5
 76 502 76 502 76 563 c 0,6,7
 76 646 76 646 139.5 699 c 128,-1,8
 203 752 203 752 309 752 c 0,9,10
 363 752 363 752 407 736.5 c 128,-1,11
 451 721 451 721 479 695 c 128,-1,12
 507 669 507 669 524 643.5 c 128,-1,13
 541 618 541 618 552 591 c 1,14,-1
 473 566 l 1,15,16
 416 675 416 675 314 675 c 0,17,18
 251 675 251 675 211 640.5 c 128,-1,19
 171 606 171 606 171 553 c 0,20,21
 171 492 171 492 220.5 456 c 128,-1,22
 270 420 270 420 332 420 c 0,23,24
 378 420 378 420 400 422 c 1,25,-1
 400 345 l 1,26,27
 364 348 364 348 329 348 c 0,28,29
 254 348 254 348 199 310.5 c 128,-1,30
 144 273 144 273 144 206 c 0,31,32
 144 134 144 134 195 97 c 128,-1,33
 246 60 246 60 318 60 c 0,34,35
 370 60 370 60 420.5 89.5 c 128,-1,36
 471 119 471 119 495 163 c 1,37,-1
 571 133 l 1,38,39
 540 64 540 64 471 23.5 c 128,-1,40
 402 -17 402 -17 314 -17 c 0,41,42
 197 -17 197 -17 122 42 c 128,-1,43
 47 101 47 101 47 204 c 0,0,1
EndSplineSet
EndChar

StartChar: uni0191
Encoding: 401 401 339
Width: 564
GlyphClass: 2
Flags: W
LayerCount: 2
Fore
SplineSet
-38 -146 m 1,0,1
 -2 -151 -2 -151 12 -151 c 0,2,3
 56 -151 56 -151 75.5 -121.5 c 128,-1,4
 95 -92 95 -92 95 -27 c 2,5,-1
 95 735 l 1,6,-1
 549 735 l 1,7,-1
 549 655 l 1,8,-1
 189 655 l 1,9,-1
 189 408 l 1,10,-1
 512 408 l 1,11,-1
 512 330 l 1,12,-1
 189 330 l 1,13,-1
 189 -27 l 2,14,15
 189 -135 189 -135 143.5 -183 c 128,-1,16
 98 -231 98 -231 29 -231 c 0,17,18
 3 -231 3 -231 -38 -224 c 1,19,-1
 -38 -146 l 1,0,1
EndSplineSet
EndChar

StartChar: florin
Encoding: 402 402 340
Width: 339
GlyphClass: 2
Flags: W
LayerCount: 2
Fore
SplineSet
-27 -147 m 1,0,1
 -7 -151 -7 -151 23 -151 c 0,2,3
 111 -151 111 -151 111 -21 c 2,4,-1
 111 455 l 1,5,-1
 22 455 l 1,6,-1
 22 531 l 1,7,-1
 111 531 l 1,8,-1
 111 604 l 2,9,10
 111 683 111 683 150.5 722.5 c 128,-1,11
 190 762 190 762 260 762 c 2,12,-1
 335 762 l 1,13,-1
 335 686 l 1,14,-1
 273 686 l 2,15,16
 200 686 200 686 200 596 c 2,17,-1
 200 531 l 1,18,-1
 323 531 l 1,19,-1
 323 455 l 1,20,-1
 200 455 l 1,21,-1
 200 -23 l 2,22,23
 200 -132 200 -132 155.5 -181.5 c 128,-1,24
 111 -231 111 -231 40 -231 c 0,25,26
 34 -231 34 -231 -27 -224 c 1,27,-1
 -27 -147 l 1,0,1
EndSplineSet
EndChar

StartChar: uni0194
Encoding: 404 404 342
Width: 617
GlyphClass: 2
Flags: W
LayerCount: 2
Fore
SplineSet
-1 735 m 1,0,-1
 101 735 l 1,1,-1
 296 202 l 1,2,-1
 309 163 l 1,3,-1
 310 163 l 1,4,-1
 323 202 l 1,5,-1
 515 735 l 1,6,-1
 617 735 l 1,7,-1
 381 118 l 1,8,9
 469 7 469 7 469 -75 c 0,10,11
 469 -141 469 -141 424.5 -186 c 128,-1,12
 380 -231 380 -231 309 -231 c 256,13,14
 238 -231 238 -231 192 -188 c 128,-1,15
 146 -145 146 -145 146 -75 c 0,16,17
 146 -41 146 -41 163.5 -1.5 c 128,-1,18
 181 38 181 38 196 60 c 128,-1,19
 211 82 211 82 238 118 c 1,20,-1
 -1 735 l 1,0,-1
241 -72 m 0,21,22
 241 -108 241 -108 259.5 -131.5 c 128,-1,23
 278 -155 278 -155 309 -155 c 256,24,25
 340 -155 340 -155 358.5 -131 c 128,-1,26
 377 -107 377 -107 377 -72 c 0,27,28
 377 -10 377 -10 308 68 c 1,29,30
 241 -6 241 -6 241 -72 c 0,21,22
EndSplineSet
EndChar

StartChar: uni0195
Encoding: 405 405 343
Width: 891
GlyphClass: 2
Flags: W
LayerCount: 2
Fore
SplineSet
79 0 m 1,0,-1
 79 762 l 1,1,-1
 170 762 l 1,2,-1
 170 457 l 1,3,-1
 171 457 l 1,4,5
 193 497 193 497 234.5 522.5 c 128,-1,6
 276 548 276 548 325 548 c 0,7,8
 357 548 357 548 385.5 539.5 c 128,-1,9
 414 531 414 531 441 509.5 c 128,-1,10
 468 488 468 488 483.5 445.5 c 128,-1,11
 499 403 499 403 499 342 c 2,12,-1
 499 182 l 2,13,14
 499 59 499 59 617 59 c 0,15,16
 732 59 732 59 732 185 c 2,17,-1
 732 531 l 1,18,-1
 824 531 l 1,19,-1
 824 171 l 2,20,21
 824 78 824 78 767.5 30.5 c 128,-1,22
 711 -17 711 -17 617 -17 c 0,23,24
 528 -17 528 -17 468.5 25 c 128,-1,25
 409 67 409 67 409 166 c 2,26,-1
 409 329 l 2,27,28
 409 472 409 472 308 472 c 0,29,30
 251 472 251 472 210.5 424.5 c 128,-1,31
 170 377 170 377 170 314 c 0,32,33
 170 313 170 313 170 311 c 2,34,-1
 170 0 l 1,35,-1
 79 0 l 1,0,-1
EndSplineSet
EndChar

StartChar: uni0196
Encoding: 406 406 344
Width: 351
GlyphClass: 2
Flags: W
LayerCount: 2
Fore
SplineSet
95 162 m 2,0,-1
 95 735 l 1,1,-1
 189 735 l 1,2,-1
 189 165 l 2,3,4
 189 111 189 111 206 87 c 128,-1,5
 223 63 223 63 263 63 c 0,6,7
 300 63 300 63 336 68 c 1,8,-1
 336 -10 l 1,9,10
 272 -17 272 -17 247 -17 c 0,11,12
 178 -17 178 -17 136.5 25.5 c 128,-1,13
 95 68 95 68 95 162 c 2,0,-1
EndSplineSet
EndChar

StartChar: uni0197
Encoding: 407 407 345
Width: 283
GlyphClass: 2
Flags: W
LayerCount: 2
Fore
SplineSet
21 336 m 1,0,-1
 21 409 l 1,1,-1
 95 409 l 1,2,-1
 95 735 l 1,3,-1
 189 735 l 1,4,-1
 189 409 l 1,5,-1
 263 409 l 1,6,-1
 263 336 l 1,7,-1
 189 336 l 1,8,-1
 189 0 l 1,9,-1
 95 0 l 1,10,-1
 95 336 l 1,11,-1
 21 336 l 1,0,-1
EndSplineSet
EndChar

StartChar: uni0198
Encoding: 408 408 346
Width: 642
GlyphClass: 2
Flags: W
LayerCount: 2
Fore
SplineSet
95 0 m 1,0,-1
 95 735 l 1,1,-1
 189 735 l 1,2,-1
 189 366 l 1,3,-1
 191 366 l 1,4,-1
 471 691 l 2,5,6
 525 752 525 752 610 752 c 0,7,8
 652 752 652 752 688 743 c 1,9,-1
 688 663 l 1,10,11
 652 672 652 672 615 672 c 0,12,13
 574 672 574 672 552 645 c 2,14,-1
 349 416 l 1,15,-1
 643 0 l 1,16,-1
 527 0 l 1,17,-1
 290 349 l 1,18,-1
 189 235 l 1,19,-1
 189 0 l 1,20,-1
 95 0 l 1,0,-1
EndSplineSet
EndChar

StartChar: uni0199
Encoding: 409 409 347
Width: 514
GlyphClass: 2
Flags: W
LayerCount: 2
Fore
SplineSet
81 0 m 1,0,-1
 81 613 l 2,1,2
 81 691 81 691 127.5 732.5 c 128,-1,3
 174 774 174 774 251 774 c 0,4,5
 280 774 280 774 330 771 c 1,6,-1
 330 692 l 1,7,8
 285 696 285 696 268 696 c 0,9,10
 225 696 225 696 198 669.5 c 128,-1,11
 171 643 171 643 171 596 c 2,12,-1
 171 283 l 1,13,-1
 387 531 l 1,14,-1
 504 531 l 1,15,-1
 311 318 l 1,16,-1
 522 0 l 1,17,-1
 414 0 l 1,18,-1
 254 254 l 1,19,-1
 171 162 l 1,20,-1
 171 0 l 1,21,-1
 81 0 l 1,0,-1
EndSplineSet
EndChar

StartChar: uni019A
Encoding: 410 410 348
Width: 258
GlyphClass: 2
Flags: W
LayerCount: 2
Fore
SplineSet
4 372 m 1,0,-1
 4 445 l 1,1,-1
 85 445 l 1,2,-1
 85 762 l 1,3,-1
 175 762 l 1,4,-1
 175 445 l 1,5,-1
 256 445 l 1,6,-1
 256 372 l 1,7,-1
 175 372 l 1,8,-1
 175 0 l 1,9,-1
 85 0 l 1,10,-1
 85 372 l 1,11,-1
 4 372 l 1,0,-1
EndSplineSet
EndChar

StartChar: uni019B
Encoding: 411 411 349
Width: 502
GlyphClass: 2
Flags: W
LayerCount: 2
Fore
SplineSet
7 0 m 1,0,-1
 211 531 l 1,1,-1
 197 572 l 1,2,-1
 80 486 l 1,3,-1
 37 542 l 1,4,-1
 167 634 l 1,5,6
 139 682 139 682 79 682 c 2,7,-1
 60 682 l 1,8,-1
 60 757 l 1,9,-1
 93 757 l 2,10,11
 183 757 183 757 234 682 c 1,12,-1
 330 753 l 1,13,-1
 374 697 l 1,14,-1
 267 620 l 1,15,-1
 271 611 l 1,16,-1
 495 0 l 1,17,-1
 394 0 l 1,18,-1
 298 297 l 2,19,20
 298 298 298 298 280.5 350 c 128,-1,21
 263 402 263 402 256 427 c 1,22,-1
 252 427 l 1,23,24
 238 376 238 376 212 297 c 2,25,-1
 109 0 l 1,26,-1
 7 0 l 1,0,-1
EndSplineSet
EndChar

StartChar: uni019C
Encoding: 412 412 350
Width: 959
GlyphClass: 2
Flags: W
LayerCount: 2
Fore
SplineSet
95 229 m 2,0,-1
 95 735 l 1,1,-1
 188 735 l 1,2,-1
 188 222 l 2,3,4
 188 62 188 62 290 62 c 0,5,6
 350 62 350 62 391.5 116.5 c 128,-1,7
 433 171 433 171 433 249 c 2,8,-1
 433 735 l 1,9,-1
 527 735 l 1,10,-1
 527 219 l 2,11,12
 527 141 527 141 555 102 c 128,-1,13
 583 63 583 63 631 63 c 0,14,15
 694 63 694 63 733 114.5 c 128,-1,16
 772 166 772 166 772 247 c 2,17,-1
 772 735 l 1,18,-1
 865 735 l 1,19,-1
 865 0 l 1,20,-1
 775 0 l 1,21,-1
 775 82 l 1,22,-1
 774 82 l 1,23,24
 758 42 758 42 713.5 12.5 c 128,-1,25
 669 -17 669 -17 611 -17 c 0,26,27
 489 -17 489 -17 457 98 c 1,28,29
 441 54 441 54 392 18.5 c 128,-1,30
 343 -17 343 -17 270 -17 c 0,31,32
 95 -17 95 -17 95 229 c 2,0,-1
EndSplineSet
EndChar

StartChar: uni019D
Encoding: 413 413 351
Width: 721
GlyphClass: 2
Flags: W
LayerCount: 2
Fore
SplineSet
95 735 m 1,0,-1
 198 735 l 1,1,-1
 480 243 l 1,2,-1
 538 136 l 1,3,-1
 543 136 l 1,4,5
 532 236 532 236 532 345 c 2,6,-1
 532 735 l 1,7,-1
 625 735 l 1,8,-1
 625 0 l 1,9,-1
 522 0 l 1,10,-1
 243 488 l 1,11,-1
 183 598 l 1,12,-1
 178 598 l 1,13,14
 189 494 189 494 189 389 c 2,15,-1
 189 -12 l 2,16,17
 189 -124 189 -124 144 -177 c 128,-1,18
 99 -230 99 -230 25 -230 c 0,19,20
 -6 -230 -6 -230 -33 -224 c 1,21,-1
 -33 -147 l 1,22,23
 -21 -150 -21 -150 8 -150 c 0,24,25
 58 -150 58 -150 76.5 -116 c 128,-1,26
 95 -82 95 -82 95 -11 c 2,27,-1
 95 735 l 1,0,-1
EndSplineSet
EndChar

StartChar: uni019E
Encoding: 414 414 352
Width: 572
GlyphClass: 2
Flags: W
LayerCount: 2
Fore
SplineSet
73 0 m 1,0,-1
 73 531 l 1,1,-1
 161 531 l 1,2,-1
 161 450 l 1,3,-1
 162 450 l 1,4,5
 181 491 181 491 222 519.5 c 128,-1,6
 263 548 263 548 323 548 c 0,7,8
 398 548 398 548 446 500.5 c 128,-1,9
 494 453 494 453 494 342 c 2,10,-1
 494 -227 l 1,11,-1
 404 -227 l 1,12,-1
 404 329 l 2,13,14
 404 472 404 472 303 472 c 0,15,16
 247 472 247 472 205.5 425.5 c 128,-1,17
 164 379 164 379 164 314 c 2,18,-1
 164 0 l 1,19,-1
 73 0 l 1,0,-1
EndSplineSet
EndChar

StartChar: uni019F
Encoding: 415 415 353
Width: 712
GlyphClass: 2
Flags: W
LayerCount: 2
Fore
SplineSet
47 367 m 0,0,1
 47 540 47 540 131.5 646 c 128,-1,2
 216 752 216 752 356 752 c 0,3,4
 498 752 498 752 582 646 c 128,-1,5
 666 540 666 540 666 366 c 0,6,7
 666 191 666 191 581 87 c 128,-1,8
 496 -17 496 -17 356 -17 c 256,9,10
 216 -17 216 -17 131.5 87.5 c 128,-1,11
 47 192 47 192 47 367 c 0,0,1
567 328 m 1,12,-1
 144 328 l 1,13,14
 152 205 152 205 208.5 134.5 c 128,-1,15
 265 64 265 64 356 64 c 256,16,17
 447 64 447 64 504 133.5 c 128,-1,18
 561 203 561 203 567 328 c 1,12,-1
144 402 m 1,19,-1
 567 402 l 1,20,21
 560 526 560 526 505 599 c 128,-1,22
 450 672 450 672 356 672 c 0,23,24
 264 672 264 672 208 600 c 128,-1,25
 152 528 152 528 144 402 c 1,19,-1
EndSplineSet
EndChar

StartChar: uni01A2
Encoding: 418 418 356
Width: 973
GlyphClass: 2
Flags: W
LayerCount: 2
Fore
SplineSet
47 363 m 0,0,1
 47 542 47 542 132.5 647 c 128,-1,2
 218 752 218 752 351 752 c 0,3,4
 397 752 397 752 494 732 c 128,-1,5
 591 712 591 712 661 712 c 0,6,7
 737 712 737 712 879 735 c 1,8,-1
 879 0 l 1,9,-1
 786 0 l 1,10,-1
 786 643 l 1,11,12
 733 633 733 633 660 633 c 0,13,14
 609 633 609 633 546 643 c 1,15,-1
 546 57 l 1,16,17
 467 -17 467 -17 351 -17 c 0,18,19
 217 -17 217 -17 132 87.5 c 128,-1,20
 47 192 47 192 47 363 c 0,0,1
144 363 m 0,21,22
 144 224 144 224 202.5 143.5 c 128,-1,23
 261 63 261 63 351 63 c 0,24,25
 403 63 403 63 452 93 c 1,26,-1
 452 655 l 1,27,28
 446 657 446 657 431.5 661.5 c 128,-1,29
 417 666 417 666 410 667.5 c 128,-1,30
 403 669 403 669 386.5 671 c 128,-1,31
 370 673 370 673 351 673 c 0,32,33
 262 673 262 673 203 592 c 128,-1,34
 144 511 144 511 144 363 c 0,21,22
EndSplineSet
EndChar

StartChar: uni01A3
Encoding: 419 419 357
Width: 786
GlyphClass: 2
Flags: W
LayerCount: 2
Fore
SplineSet
39 265 m 256,0,1
 39 399 39 399 105 473.5 c 128,-1,2
 171 548 171 548 282 548 c 0,3,4
 327 548 327 548 406.5 533 c 128,-1,5
 486 518 486 518 540 518 c 0,6,7
 628 518 628 518 714 535 c 1,8,-1
 714 0 l 1,9,-1
 624 0 l 1,10,-1
 624 447 l 1,11,12
 593 442 593 442 539 442 c 0,13,14
 483 442 483 442 459 446 c 1,15,-1
 459 65 l 1,16,17
 396 -17 396 -17 282 -17 c 0,18,19
 173 -17 173 -17 106 57 c 128,-1,20
 39 131 39 131 39 265 c 256,0,1
132 265 m 0,21,22
 132 170 132 170 173.5 114.5 c 128,-1,23
 215 59 215 59 282 59 c 0,24,25
 328 59 328 59 368 107 c 1,26,-1
 368 459 l 1,27,28
 305 472 305 472 282 472 c 0,29,30
 210 472 210 472 171 415 c 128,-1,31
 132 358 132 358 132 265 c 0,21,22
EndSplineSet
EndChar

StartChar: uni01A5
Encoding: 421 421 359
Width: 585
GlyphClass: 2
Flags: W
LayerCount: 2
Fore
SplineSet
169 266 m 0,0,1
 169 170 169 170 207.5 114.5 c 128,-1,2
 246 59 246 59 309 59 c 0,3,4
 373 59 373 59 413.5 115 c 128,-1,5
 454 171 454 171 454 266 c 0,6,7
 454 359 454 359 414.5 415.5 c 128,-1,8
 375 472 375 472 309 472 c 0,9,10
 249 472 249 472 209 415.5 c 128,-1,11
 169 359 169 359 169 266 c 0,0,1
79 -227 m 1,12,-1
 79 605 l 2,13,14
 79 688 79 688 127.5 728 c 128,-1,15
 176 768 176 768 248 768 c 0,16,17
 274 768 274 768 326 764 c 1,18,-1
 326 686 l 1,19,20
 295 689 295 689 262 689 c 0,21,22
 217 689 217 689 192.5 660.5 c 128,-1,23
 168 632 168 632 168 590 c 2,24,-1
 168 444 l 1,25,26
 182 482 182 482 223.5 515 c 128,-1,27
 265 548 265 548 323 548 c 0,28,29
 419 548 419 548 482 471.5 c 128,-1,30
 545 395 545 395 545 266 c 0,31,32
 545 193 545 193 525 136 c 128,-1,33
 505 79 505 79 471 46.5 c 128,-1,34
 437 14 437 14 399.5 -1.5 c 128,-1,35
 362 -17 362 -17 322 -17 c 0,36,37
 264 -17 264 -17 225 12.5 c 128,-1,38
 186 42 186 42 170 82 c 1,39,-1
 170 -227 l 1,40,-1
 79 -227 l 1,12,-1
EndSplineSet
EndChar

StartChar: uni01A6
Encoding: 422 422 360
Width: 630
GlyphClass: 2
Flags: W
LayerCount: 2
Fore
SplineSet
177 304 m 1,0,-1
 332 304 l 2,1,2
 394 304 394 304 434.5 334 c 128,-1,3
 475 364 475 364 475 433 c 0,4,5
 475 551 475 551 334 551 c 2,6,-1
 177 551 l 1,7,-1
 177 304 l 1,0,-1
84 0 m 1,8,-1
 84 735 l 1,9,-1
 177 735 l 1,10,-1
 177 630 l 1,11,-1
 354 630 l 2,12,13
 461 630 461 630 515.5 576 c 128,-1,14
 570 522 570 522 570 440 c 0,15,16
 570 395 570 395 555.5 360.5 c 128,-1,17
 541 326 541 326 514 305 c 128,-1,18
 487 284 487 284 472.5 276.5 c 128,-1,19
 458 269 458 269 433 259 c 1,20,21
 472 237 472 237 488.5 209 c 128,-1,22
 505 181 505 181 519 129 c 0,23,24
 520 125 520 125 525.5 108 c 128,-1,25
 531 91 531 91 532.5 86 c 128,-1,26
 534 81 534 81 538.5 65 c 128,-1,27
 543 49 543 49 546 42 c 128,-1,28
 549 35 549 35 554.5 20 c 128,-1,29
 560 5 560 5 564.5 -4.5 c 128,-1,30
 569 -14 569 -14 575 -28 c 128,-1,31
 581 -42 581 -42 588 -55 c 128,-1,32
 595 -68 595 -68 603 -82 c 1,33,-1
 499 -82 l 1,34,35
 486 -58 486 -58 472.5 -27.5 c 128,-1,36
 459 3 459 3 453 20.5 c 128,-1,37
 447 38 447 38 434 78.5 c 128,-1,38
 421 119 421 119 418 128 c 0,39,40
 402 179 402 179 379 202.5 c 128,-1,41
 356 226 356 226 311 226 c 2,42,-1
 177 226 l 1,43,-1
 177 0 l 1,44,-1
 84 0 l 1,8,-1
EndSplineSet
EndChar

StartChar: uni01A7
Encoding: 423 423 361
Width: 604
GlyphClass: 2
Flags: W
LayerCount: 2
Fore
SplineSet
37 195 m 0,0,1
 37 241 37 241 54 276 c 128,-1,2
 71 311 71 311 104.5 335 c 128,-1,3
 138 359 138 359 170 374 c 128,-1,4
 202 389 202 389 249 405 c 0,5,6
 358 440 358 440 391 460 c 0,7,8
 453 498 453 498 453 557 c 0,9,10
 453 610 453 610 412.5 641 c 128,-1,11
 372 672 372 672 302 672 c 0,12,13
 198 672 198 672 130 582 c 1,14,-1
 50 609 l 1,15,16
 82 669 82 669 147 710.5 c 128,-1,17
 212 752 212 752 300 752 c 0,18,19
 412 752 412 752 481 698.5 c 128,-1,20
 550 645 550 645 550 557 c 0,21,22
 550 534 550 534 544.5 513 c 128,-1,23
 539 492 539 492 533 476.5 c 128,-1,24
 527 461 527 461 511.5 445.5 c 128,-1,25
 496 430 496 430 487 420 c 128,-1,26
 478 410 478 410 454.5 398 c 128,-1,27
 431 386 431 386 421.5 381 c 128,-1,28
 412 376 412 376 383 365 c 128,-1,29
 354 354 354 354 346.5 352 c 128,-1,30
 339 350 339 350 307 339 c 0,31,32
 263 324 263 324 240.5 314 c 128,-1,33
 218 304 218 304 188.5 287 c 128,-1,34
 159 270 159 270 146 246.5 c 128,-1,35
 133 223 133 223 133 192 c 0,36,37
 133 133 133 133 178 98 c 128,-1,38
 223 63 223 63 294 63 c 0,39,40
 353 63 353 63 406.5 93.5 c 128,-1,41
 460 124 460 124 488 171 c 1,42,-1
 570 142 l 1,43,44
 535 70 535 70 462.5 26.5 c 128,-1,45
 390 -17 390 -17 297 -17 c 0,46,47
 180 -17 180 -17 108.5 38.5 c 128,-1,48
 37 94 37 94 37 195 c 0,0,1
EndSplineSet
EndChar

StartChar: uni01A8
Encoding: 424 424 362
Width: 490
GlyphClass: 2
Flags: W
LayerCount: 2
Fore
SplineSet
33 136 m 0,0,1
 33 169 33 169 48.5 195 c 128,-1,2
 64 221 64 221 93 239.5 c 128,-1,3
 122 258 122 258 147 268.5 c 128,-1,4
 172 279 172 279 210 292 c 0,5,6
 245 302 245 302 262.5 309 c 128,-1,7
 280 316 280 316 304 328.5 c 128,-1,8
 328 341 328 341 339.5 357.5 c 128,-1,9
 351 374 351 374 351 395 c 0,10,11
 351 431 351 431 322 451.5 c 128,-1,12
 293 472 293 472 241 472 c 0,13,14
 154 472 154 472 101 392 c 1,15,-1
 40 431 l 1,16,17
 66 480 66 480 121 514 c 128,-1,18
 176 548 176 548 243 548 c 0,19,20
 329 548 329 548 385.5 507 c 128,-1,21
 442 466 442 466 442 395 c 0,22,23
 442 367 442 367 432 344.5 c 128,-1,24
 422 322 422 322 407.5 306.5 c 128,-1,25
 393 291 393 291 369 277.5 c 128,-1,26
 345 264 345 264 326 256.5 c 128,-1,27
 307 249 307 249 279 240 c 0,28,29
 272 237 272 237 248.5 230 c 128,-1,30
 225 223 225 223 216 219.5 c 128,-1,31
 207 216 207 216 188.5 208.5 c 128,-1,32
 170 201 170 201 161.5 195 c 128,-1,33
 153 189 153 189 142.5 180 c 128,-1,34
 132 171 132 171 128 160 c 128,-1,35
 124 149 124 149 124 136 c 0,36,37
 124 99 124 99 155 79 c 128,-1,38
 186 59 186 59 240 59 c 0,39,40
 286 59 286 59 326 81.5 c 128,-1,41
 366 104 366 104 393 145 c 1,42,-1
 459 107 l 1,43,44
 429 52 429 52 372 17.5 c 128,-1,45
 315 -17 315 -17 240 -17 c 0,46,47
 141 -17 141 -17 87 27.5 c 128,-1,48
 33 72 33 72 33 136 c 0,0,1
EndSplineSet
EndChar

StartChar: uni01A9
Encoding: 425 425 363
Width: 617
GlyphClass: 2
Flags: W
LayerCount: 2
Fore
SplineSet
82 0 m 1,0,-1
 82 63 l 1,1,-1
 350 369 l 1,2,-1
 82 672 l 1,3,-1
 82 735 l 1,4,-1
 551 735 l 1,5,-1
 551 654 l 1,6,-1
 212 654 l 1,7,-1
 457 369 l 1,8,-1
 212 79 l 1,9,-1
 558 79 l 1,10,-1
 558 0 l 1,11,-1
 82 0 l 1,0,-1
EndSplineSet
EndChar

StartChar: uni01AA
Encoding: 426 426 364
Width: 437
GlyphClass: 2
Flags: W
LayerCount: 2
Fore
SplineSet
36 606 m 0,0,1
 36 572 36 572 58 553.5 c 128,-1,2
 80 535 80 535 111 535 c 0,3,4
 165 535 165 535 197 564 c 1,5,6
 197 612 197 612 177.5 645 c 128,-1,7
 158 678 158 678 113 678 c 0,8,9
 81 678 81 678 58.5 657.5 c 128,-1,10
 36 637 36 637 36 606 c 0,0,1
-52 602 m 0,11,12
 -52 670 -52 670 -5.5 711 c 128,-1,13
 41 752 41 752 113 752 c 0,14,15
 197 752 197 752 241.5 700 c 128,-1,16
 286 648 286 648 286 558 c 2,17,-1
 286 -59 l 2,18,19
 286 -105 286 -105 304 -128 c 128,-1,20
 322 -151 322 -151 364 -151 c 0,21,22
 377 -151 377 -151 426 -145 c 1,23,-1
 426 -223 l 1,24,25
 419 -224 419 -224 404 -226 c 128,-1,26
 389 -228 389 -228 374.5 -229.5 c 128,-1,27
 360 -231 360 -231 347 -231 c 0,28,29
 276 -231 276 -231 235.5 -190 c 128,-1,30
 195 -149 195 -149 195 -65 c 2,31,-1
 195 486 l 1,32,33
 166 460 166 460 97 460 c 0,34,35
 33 460 33 460 -9.5 499.5 c 128,-1,36
 -52 539 -52 539 -52 602 c 0,11,12
EndSplineSet
EndChar

StartChar: uni01AB
Encoding: 427 427 365
Width: 361
GlyphClass: 2
Flags: W
LayerCount: 2
Fore
SplineSet
18 455 m 1,0,-1
 18 531 l 1,1,-1
 108 531 l 1,2,-1
 108 696 l 1,3,-1
 197 696 l 1,4,-1
 197 531 l 1,5,-1
 331 531 l 1,6,-1
 331 455 l 1,7,-1
 197 455 l 1,8,-1
 197 161 l 2,9,10
 197 117 197 117 215 97 c 128,-1,11
 233 77 233 77 271 77 c 0,12,13
 322 77 322 77 351 82 c 1,14,-1
 351 -13 l 2,15,16
 351 -121 351 -121 309 -176 c 128,-1,17
 267 -231 267 -231 188 -231 c 0,18,19
 166 -231 166 -231 125 -224 c 1,20,-1
 125 -146 l 1,21,22
 159 -151 159 -151 178 -151 c 0,23,24
 264 -151 264 -151 264 -27 c 2,25,-1
 264 1 l 1,26,27
 223 4 223 4 206 8 c 0,28,29
 108 30 108 30 108 153 c 2,30,-1
 108 455 l 1,31,-1
 18 455 l 1,0,-1
EndSplineSet
EndChar

StartChar: uni01AC
Encoding: 428 428 366
Width: 592
GlyphClass: 2
Flags: W
LayerCount: 2
Fore
SplineSet
-27 589 m 0,0,1
 -27 664 -27 664 23.5 699.5 c 128,-1,2
 74 735 74 735 163 735 c 2,3,-1
 584 735 l 1,4,-1
 584 654 l 1,5,-1
 364 654 l 1,6,-1
 364 0 l 1,7,-1
 270 0 l 1,8,-1
 270 654 l 1,9,-1
 164 654 l 2,10,11
 57 654 57 654 57 582 c 0,12,13
 57 570 57 570 62 543 c 1,14,-1
 -21 543 l 1,15,16
 -27 572 -27 572 -27 589 c 0,0,1
EndSplineSet
EndChar

StartChar: uni01AD
Encoding: 429 429 367
Width: 361
GlyphClass: 2
Flags: W
LayerCount: 2
Fore
SplineSet
18 455 m 1,0,-1
 18 531 l 1,1,-1
 108 531 l 1,2,-1
 108 604 l 2,3,4
 108 682 108 682 154.5 724.5 c 128,-1,5
 201 767 201 767 278 767 c 0,6,7
 294 767 294 767 356 762 c 1,8,-1
 356 684 l 1,9,10
 329 687 329 687 295 687 c 0,11,12
 250 687 250 687 223.5 662 c 128,-1,13
 197 637 197 637 197 592 c 2,14,-1
 197 531 l 1,15,-1
 331 531 l 1,16,-1
 331 455 l 1,17,-1
 197 455 l 1,18,-1
 197 161 l 2,19,20
 197 117 197 117 215 97 c 128,-1,21
 233 77 233 77 271 77 c 2,22,-1
 332 77 l 1,23,-1
 332 0 l 1,24,-1
 259 0 l 2,25,26
 108 0 108 0 108 153 c 2,27,-1
 108 455 l 1,28,-1
 18 455 l 1,0,-1
EndSplineSet
EndChar

StartChar: uni01AE
Encoding: 430 430 368
Width: 553
GlyphClass: 2
Flags: W
LayerCount: 2
Fore
SplineSet
12 654 m 1,0,-1
 12 735 l 1,1,-1
 544 735 l 1,2,-1
 544 654 l 1,3,-1
 325 654 l 1,4,-1
 325 -42 l 2,5,6
 325 -100 325 -100 344 -125.5 c 128,-1,7
 363 -151 363 -151 407 -151 c 0,8,9
 417 -151 417 -151 456 -146 c 1,10,-1
 456 -224 l 1,11,12
 399 -231 399 -231 389 -231 c 0,13,14
 231 -231 231 -231 231 -42 c 2,15,-1
 231 654 l 1,16,-1
 12 654 l 1,0,-1
EndSplineSet
EndChar

StartChar: uni01B1
Encoding: 433 433 371
Width: 743
GlyphClass: 2
Flags: W
LayerCount: 2
Fore
SplineSet
47 304 m 0,0,1
 47 413 47 413 103 486 c 128,-1,2
 159 559 159 559 253 595 c 1,3,-1
 253 654 l 1,4,-1
 56 654 l 1,5,-1
 56 735 l 1,6,-1
 326 735 l 1,7,-1
 326 544 l 1,8,9
 236 518 236 518 190 453.5 c 128,-1,10
 144 389 144 389 144 304 c 0,11,12
 144 201 144 201 207 133 c 128,-1,13
 270 65 270 65 372 65 c 0,14,15
 473 65 473 65 536 133 c 128,-1,16
 599 201 599 201 599 304 c 0,17,18
 599 388 599 388 554 453 c 128,-1,19
 509 518 509 518 418 544 c 1,20,-1
 418 735 l 1,21,-1
 687 735 l 1,22,-1
 687 654 l 1,23,-1
 489 654 l 1,24,-1
 489 595 l 1,25,26
 584 561 584 561 640 487 c 128,-1,27
 696 413 696 413 696 304 c 0,28,29
 696 166 696 166 609.5 74.5 c 128,-1,30
 523 -17 523 -17 372 -17 c 256,31,32
 221 -17 221 -17 134 74.5 c 128,-1,33
 47 166 47 166 47 304 c 0,0,1
EndSplineSet
EndChar

StartChar: uni01B2
Encoding: 434 434 372
Width: 720
GlyphClass: 2
Flags: W
LayerCount: 2
Fore
SplineSet
94 249 m 2,0,-1
 94 735 l 1,1,-1
 188 735 l 1,2,-1
 188 256 l 2,3,4
 188 149 188 149 227.5 106 c 128,-1,5
 267 63 267 63 344 63 c 0,6,7
 440 63 440 63 507 161.5 c 128,-1,8
 574 260 574 260 574 415 c 0,9,10
 574 539 574 539 539.5 605.5 c 128,-1,11
 505 672 505 672 445 672 c 0,12,13
 414 672 414 672 376 662 c 1,14,-1
 376 745 l 1,15,16
 420 752 420 752 459 752 c 0,17,18
 559 752 559 752 615 667.5 c 128,-1,19
 671 583 671 583 671 417 c 0,20,21
 671 299 671 299 632.5 200.5 c 128,-1,22
 594 102 594 102 518.5 42.5 c 128,-1,23
 443 -17 443 -17 344 -17 c 0,24,25
 217 -17 217 -17 155.5 47.5 c 128,-1,26
 94 112 94 112 94 249 c 2,0,-1
EndSplineSet
EndChar

StartChar: uni01B3
Encoding: 435 435 373
Width: 604
GlyphClass: 2
Flags: W
LayerCount: 2
Fore
SplineSet
-3 735 m 1,0,-1
 105 735 l 1,1,-1
 236 497 l 2,2,3
 273 433 273 433 301 379 c 1,4,-1
 303 379 l 1,5,6
 325 422 325 422 368 497 c 2,7,-1
 459 661 l 2,8,9
 508 752 508 752 591 752 c 0,10,11
 610 752 610 752 644 749 c 1,12,-1
 644 669 l 1,13,14
 619 673 619 673 601 673 c 0,15,16
 572 673 572 673 536 613 c 2,17,-1
 349 301 l 1,18,-1
 349 0 l 1,19,-1
 255 0 l 1,20,-1
 255 301 l 1,21,-1
 -3 735 l 1,0,-1
EndSplineSet
EndChar

StartChar: uni01B4
Encoding: 436 436 374
Width: 502
GlyphClass: 2
Flags: W
LayerCount: 2
Fore
SplineSet
8 531 m 1,0,-1
 110 531 l 1,1,-1
 212 233 l 2,2,3
 241 146 241 146 253 103 c 1,4,-1
 257 103 l 1,5,6
 282 184 282 184 299 233 c 2,7,-1
 374 463 l 2,8,9
 399 543 399 543 497 543 c 0,10,11
 514 543 514 543 556 538 c 1,12,-1
 556 459 l 1,13,14
 534 464 534 464 514 464 c 0,15,16
 470 464 470 464 457 425 c 2,17,-1
 275 -73 l 2,18,19
 245 -156 245 -156 202.5 -191.5 c 128,-1,20
 160 -227 160 -227 100 -227 c 2,21,-1
 66 -227 l 1,22,-1
 66 -151 l 1,23,-1
 85 -151 l 2,24,25
 124 -151 124 -151 151 -126 c 128,-1,26
 178 -101 178 -101 197 -41 c 2,27,-1
 212 0 l 1,28,-1
 8 531 l 1,0,-1
EndSplineSet
EndChar

StartChar: uni01B5
Encoding: 437 437 375
Width: 607
GlyphClass: 2
Flags: W
LayerCount: 2
Fore
SplineSet
99 327 m 1,0,-1
 99 400 l 1,1,-1
 269 400 l 1,2,-1
 444 655 l 1,3,-1
 72 655 l 1,4,-1
 72 735 l 1,5,-1
 559 735 l 1,6,-1
 559 665 l 1,7,-1
 377 400 l 1,8,-1
 498 400 l 1,9,-1
 498 327 l 1,10,-1
 324 327 l 1,11,-1
 155 79 l 1,12,-1
 569 79 l 1,13,-1
 569 0 l 1,14,-1
 40 0 l 1,15,-1
 40 68 l 1,16,-1
 217 327 l 1,17,-1
 99 327 l 1,0,-1
EndSplineSet
EndChar

StartChar: uni01B6
Encoding: 438 438 376
Width: 481
GlyphClass: 2
Flags: W
LayerCount: 2
Fore
SplineSet
29 0 m 1,0,-1
 29 61 l 1,1,-1
 160 234 l 1,2,-1
 66 234 l 1,3,-1
 66 307 l 1,4,-1
 216 307 l 1,5,-1
 327 455 l 1,6,-1
 54 455 l 1,7,-1
 54 531 l 1,8,-1
 443 531 l 1,9,-1
 443 474 l 1,10,-1
 318 307 l 1,11,-1
 410 307 l 1,12,-1
 410 234 l 1,13,-1
 262 234 l 1,14,-1
 144 76 l 1,15,-1
 453 76 l 1,16,-1
 453 0 l 1,17,-1
 29 0 l 1,0,-1
EndSplineSet
EndChar

StartChar: uni01B7
Encoding: 439 439 377
Width: 692
GlyphClass: 2
Flags: W
LayerCount: 2
Fore
SplineSet
49 -37 m 1,0,-1
 129 -5 l 1,1,2
 151 -63 151 -63 202.5 -103.5 c 128,-1,3
 254 -144 254 -144 328 -144 c 0,4,5
 428 -144 428 -144 486 -81.5 c 128,-1,6
 544 -19 544 -19 544 84 c 0,7,8
 544 184 544 184 479 243 c 128,-1,9
 414 302 414 302 292 302 c 2,10,-1
 208 302 l 1,11,-1
 208 377 l 1,12,-1
 453 654 l 1,13,-1
 77 654 l 1,14,-1
 77 735 l 1,15,-1
 594 735 l 1,16,-1
 594 681 l 1,17,-1
 325 379 l 1,18,-1
 343 379 l 1,19,20
 481 367 481 367 561 289.5 c 128,-1,21
 641 212 641 212 641 84 c 0,22,23
 641 -55 641 -55 554 -139 c 128,-1,24
 467 -223 467 -223 329 -223 c 0,25,26
 222 -223 222 -223 150.5 -169.5 c 128,-1,27
 79 -116 79 -116 49 -37 c 1,0,-1
EndSplineSet
EndChar

StartChar: uni01B8
Encoding: 440 440 378
Width: 692
GlyphClass: 2
Flags: W
LayerCount: 2
Fore
SplineSet
51 84 m 0,0,1
 51 212 51 212 135 293 c 128,-1,2
 219 374 219 374 349 379 c 1,3,-1
 367 379 l 1,4,-1
 98 681 l 1,5,-1
 98 735 l 1,6,-1
 615 735 l 1,7,-1
 615 654 l 1,8,-1
 239 654 l 1,9,-1
 484 377 l 1,10,-1
 484 302 l 1,11,-1
 401 302 l 2,12,13
 278 302 278 302 212.5 243 c 128,-1,14
 147 184 147 184 147 84 c 0,15,16
 147 -19 147 -19 205.5 -81.5 c 128,-1,17
 264 -144 264 -144 364 -144 c 0,18,19
 437 -144 437 -144 488.5 -103.5 c 128,-1,20
 540 -63 540 -63 563 -5 c 1,21,-1
 643 -37 l 1,22,23
 613 -116 613 -116 541.5 -169.5 c 128,-1,24
 470 -223 470 -223 362 -223 c 0,25,26
 224 -223 224 -223 137.5 -139 c 128,-1,27
 51 -55 51 -55 51 84 c 0,0,1
EndSplineSet
EndChar

StartChar: uni01B9
Encoding: 441 441 379
Width: 559
GlyphClass: 2
Flags: W
LayerCount: 2
Fore
SplineSet
45 12 m 0,0,1
 45 109 45 109 110 175 c 128,-1,2
 175 241 175 241 275 244 c 2,3,-1
 297 245 l 1,4,-1
 75 474 l 1,5,-1
 75 531 l 1,6,-1
 489 531 l 1,7,-1
 489 455 l 1,8,-1
 207 455 l 1,9,-1
 409 239 l 1,10,-1
 409 177 l 1,11,-1
 323 177 l 2,12,13
 234 177 234 177 186 131.5 c 128,-1,14
 138 86 138 86 138 12 c 0,15,16
 138 -60 138 -60 179.5 -107 c 128,-1,17
 221 -154 221 -154 291 -154 c 0,18,19
 344 -154 344 -154 382 -123.5 c 128,-1,20
 420 -93 420 -93 440 -44 c 1,21,-1
 519 -66 l 1,22,23
 494 -140 494 -140 435 -185.5 c 128,-1,24
 376 -231 376 -231 288 -231 c 0,25,26
 179 -231 179 -231 112 -162 c 128,-1,27
 45 -93 45 -93 45 12 c 0,0,1
EndSplineSet
EndChar

StartChar: uni01BA
Encoding: 442 442 380
Width: 451
GlyphClass: 2
Flags: W
LayerCount: 2
Fore
SplineSet
42 -66 m 0,0,1
 42 -30 42 -30 68.5 1 c 128,-1,2
 95 32 95 32 133 53 c 128,-1,3
 171 74 171 74 209.5 94 c 128,-1,4
 248 114 248 114 274.5 137 c 128,-1,5
 301 160 301 160 301 185 c 0,6,7
 301 212 301 212 264.5 230 c 128,-1,8
 228 248 228 248 161 248 c 2,9,-1
 125 248 l 1,10,-1
 125 298 l 1,11,-1
 290 455 l 1,12,-1
 46 455 l 1,13,-1
 46 531 l 1,14,-1
 406 531 l 1,15,-1
 406 471 l 1,16,-1
 225 301 l 1,17,-1
 247 300 l 2,18,19
 314 297 314 297 353 269 c 128,-1,20
 392 241 392 241 392 189 c 0,21,22
 392 150 392 150 365.5 118 c 128,-1,23
 339 86 339 86 301.5 64 c 128,-1,24
 264 42 264 42 226 23 c 128,-1,25
 188 4 188 4 161.5 -17.5 c 128,-1,26
 135 -39 135 -39 135 -61 c 0,27,28
 135 -118 135 -118 217 -118 c 0,29,30
 257 -118 257 -118 319 -106 c 1,31,-1
 319 -183 l 1,32,33
 251 -194 251 -194 204 -194 c 0,34,35
 132 -194 132 -194 87 -160.5 c 128,-1,36
 42 -127 42 -127 42 -66 c 0,0,1
EndSplineSet
EndChar

StartChar: uni01BB
Encoding: 443 443 381
Width: 553
GlyphClass: 2
Flags: W
LayerCount: 2
Fore
SplineSet
106 320 m 1,0,-1
 106 393 l 1,1,-1
 324 393 l 1,2,3
 394 467 394 467 394 548 c 0,4,5
 394 610 394 610 359.5 642.5 c 128,-1,6
 325 675 325 675 271 675 c 0,7,8
 166 675 166 675 127 540 c 1,9,-1
 47 564 l 1,10,11
 66 647 66 647 124 699.5 c 128,-1,12
 182 752 182 752 275 752 c 0,13,14
 371 752 371 752 430.5 697 c 128,-1,15
 490 642 490 642 490 544 c 0,16,17
 490 465 490 465 433 393 c 1,18,-1
 522 393 l 1,19,-1
 522 320 l 1,20,-1
 370 320 l 1,21,22
 361 311 361 311 335.5 286.5 c 128,-1,23
 310 262 310 262 302 254.5 c 128,-1,24
 294 247 294 247 273.5 226 c 128,-1,25
 253 205 253 205 245 195.5 c 128,-1,26
 237 186 237 186 222 168 c 128,-1,27
 207 150 207 150 199.5 137.5 c 128,-1,28
 192 125 192 125 182.5 109 c 128,-1,29
 173 93 173 93 167 77 c 1,30,-1
 488 77 l 1,31,-1
 488 0 l 1,32,-1
 53 0 l 1,33,34
 53 75 53 75 103.5 150 c 128,-1,35
 154 225 154 225 249 320 c 1,36,-1
 106 320 l 1,0,-1
EndSplineSet
EndChar

StartChar: uni01BC
Encoding: 444 444 382
Width: 569
GlyphClass: 2
Flags: W
LayerCount: 2
Fore
SplineSet
46 124 m 1,0,-1
 122 152 l 1,1,2
 165 60 165 60 271 60 c 0,3,4
 339 60 339 60 378.5 103 c 128,-1,5
 418 146 418 146 418 218 c 0,6,7
 418 283 418 283 371 330.5 c 128,-1,8
 324 378 324 378 228 378 c 0,9,10
 168 378 168 378 111 365 c 1,11,-1
 147 655 l 1,12,-1
 97 655 l 1,13,-1
 97 735 l 1,14,-1
 478 735 l 1,15,-1
 478 654 l 1,16,-1
 234 654 l 1,17,-1
 210 453 l 1,18,19
 226 455 226 455 263 455 c 0,20,21
 378 455 378 455 446.5 388.5 c 128,-1,22
 515 322 515 322 515 219 c 0,23,24
 515 118 515 118 452.5 50.5 c 128,-1,25
 390 -17 390 -17 275 -17 c 0,26,27
 189 -17 189 -17 130 23 c 128,-1,28
 71 63 71 63 46 124 c 1,0,-1
EndSplineSet
EndChar

StartChar: uni01BD
Encoding: 445 445 383
Width: 469
GlyphClass: 2
Flags: W
LayerCount: 2
Fore
SplineSet
44 94 m 1,0,-1
 117 127 l 1,1,2
 132 96 132 96 160 77.5 c 128,-1,3
 188 59 188 59 221 59 c 0,4,5
 271 59 271 59 298.5 86.5 c 128,-1,6
 326 114 326 114 326 157 c 0,7,8
 326 202 326 202 289 234 c 128,-1,9
 252 266 252 266 192 266 c 0,10,11
 142 266 142 266 97 258 c 1,12,-1
 127 455 l 1,13,-1
 88 455 l 1,14,-1
 88 531 l 1,15,-1
 385 531 l 1,16,-1
 385 455 l 1,17,-1
 206 455 l 1,18,-1
 188 342 l 1,19,-1
 213 342 l 2,20,21
 304 342 304 342 360.5 290.5 c 128,-1,22
 417 239 417 239 417 161 c 0,23,24
 417 86 417 86 367.5 34.5 c 128,-1,25
 318 -17 318 -17 221 -17 c 0,26,27
 101 -17 101 -17 44 94 c 1,0,-1
EndSplineSet
EndChar

StartChar: uni01BE
Encoding: 446 446 384
Width: 436
GlyphClass: 2
Flags: W
LayerCount: 2
Fore
SplineSet
31 455 m 1,0,-1
 31 531 l 1,1,-1
 107 531 l 1,2,-1
 107 692 l 1,3,-1
 197 692 l 1,4,-1
 197 531 l 1,5,-1
 323 531 l 1,6,-1
 323 455 l 1,7,-1
 197 455 l 1,8,-1
 197 399 l 2,9,10
 197 364 197 364 216.5 337.5 c 128,-1,11
 236 311 236 311 264.5 293 c 128,-1,12
 293 275 293 275 321.5 255.5 c 128,-1,13
 350 236 350 236 369.5 205.5 c 128,-1,14
 389 175 389 175 389 135 c 0,15,16
 389 69 389 69 346 26 c 128,-1,17
 303 -17 303 -17 214 -17 c 0,18,19
 95 -17 95 -17 37 89 c 1,20,-1
 101 124 l 1,21,22
 147 59 147 59 210 59 c 0,23,24
 253 59 253 59 276.5 78.5 c 128,-1,25
 300 98 300 98 300 132 c 0,26,27
 300 157 300 157 280 177.5 c 128,-1,28
 260 198 260 198 231.5 215 c 128,-1,29
 203 232 203 232 174.5 253 c 128,-1,30
 146 274 146 274 126.5 308.5 c 128,-1,31
 107 343 107 343 107 389 c 2,32,-1
 107 455 l 1,33,-1
 31 455 l 1,0,-1
EndSplineSet
EndChar

StartChar: uni01BF
Encoding: 447 447 385
Width: 576
GlyphClass: 2
Flags: W
LayerCount: 2
Fore
SplineSet
79 -227 m 1,0,-1
 79 531 l 1,1,-1
 169 531 l 1,2,-1
 169 486 l 1,3,4
 237 548 237 548 325 548 c 0,5,6
 425 548 425 548 481 489.5 c 128,-1,7
 537 431 537 431 537 333 c 0,8,9
 537 54 537 54 170 1 c 1,10,-1
 170 -227 l 1,11,-1
 79 -227 l 1,0,-1
170 75 m 1,12,13
 295 92 295 92 370.5 155 c 128,-1,14
 446 218 446 218 446 323 c 0,15,16
 446 398 446 398 409 435 c 128,-1,17
 372 472 372 472 313 472 c 0,18,19
 271 472 271 472 232 450 c 128,-1,20
 193 428 193 428 170 399 c 1,21,-1
 170 75 l 1,12,13
EndSplineSet
EndChar

StartChar: uni01C0
Encoding: 448 448 386
Width: 241
GlyphClass: 2
Flags: W
LayerCount: 2
Fore
SplineSet
80 -210 m 1,0,-1
 80 817 l 1,1,-1
 162 817 l 1,2,-1
 162 -210 l 1,3,-1
 80 -210 l 1,0,-1
EndSplineSet
EndChar

StartChar: uni01C1
Encoding: 449 449 387
Width: 416
GlyphClass: 2
Flags: W
LayerCount: 2
Fore
SplineSet
80 -210 m 1,0,-1
 80 817 l 1,1,-1
 162 817 l 1,2,-1
 162 -210 l 1,3,-1
 80 -210 l 1,0,-1
255 -210 m 1,4,-1
 255 817 l 1,5,-1
 338 817 l 1,6,-1
 338 -210 l 1,7,-1
 255 -210 l 1,4,-1
EndSplineSet
EndChar

StartChar: uni01C2
Encoding: 450 450 388
Width: 328
GlyphClass: 2
Flags: W
LayerCount: 2
Fore
SplineSet
18 418 m 1,0,-1
 18 482 l 1,1,-1
 124 482 l 1,2,-1
 124 817 l 1,3,-1
 207 817 l 1,4,-1
 207 482 l 1,5,-1
 310 482 l 1,6,-1
 310 418 l 1,7,-1
 207 418 l 1,8,-1
 207 266 l 1,9,-1
 310 266 l 1,10,-1
 310 202 l 1,11,-1
 207 202 l 1,12,-1
 207 -210 l 1,13,-1
 124 -210 l 1,14,-1
 124 202 l 1,15,-1
 18 202 l 1,16,-1
 18 266 l 1,17,-1
 124 266 l 1,18,-1
 124 418 l 1,19,-1
 18 418 l 1,0,-1
EndSplineSet
EndChar

StartChar: uni01DD
Encoding: 477 477 415
Width: 555
GlyphClass: 2
Flags: W
LayerCount: 2
Fore
SplineSet
39 253 m 0,0,1
 39 282 39 282 39 296 c 1,2,-1
 425 296 l 1,3,4
 425 368 425 368 383 420.5 c 128,-1,5
 341 473 341 473 268 473 c 0,6,7
 218 473 218 473 181 449 c 128,-1,8
 144 425 144 425 125 388 c 1,9,-1
 50 413 l 1,10,11
 76 471 76 471 130.5 509.5 c 128,-1,12
 185 548 185 548 270 548 c 0,13,14
 382 548 382 548 449 468.5 c 128,-1,15
 516 389 516 389 516 261 c 0,16,17
 516 135 516 135 448 59 c 128,-1,18
 380 -17 380 -17 274 -17 c 256,19,20
 168 -17 168 -17 103.5 58.5 c 128,-1,21
 39 134 39 134 39 253 c 0,0,1
129 229 m 1,22,23
 129 157 129 157 167.5 107 c 128,-1,24
 206 57 206 57 274 57 c 0,25,26
 339 57 339 57 380 107 c 128,-1,27
 421 157 421 157 425 229 c 1,28,-1
 129 229 l 1,22,23
EndSplineSet
EndChar

StartChar: uni01E4
Encoding: 484 484 422
Width: 722
GlyphClass: 2
Flags: W
LayerCount: 2
Fore
SplineSet
47 367 m 0,0,1
 47 535 47 535 132.5 643.5 c 128,-1,2
 218 752 218 752 372 752 c 0,3,4
 467 752 467 752 531 701.5 c 128,-1,5
 595 651 595 651 624 590 c 1,6,-1
 543 563 l 1,7,8
 528 586 528 586 517.5 599 c 128,-1,9
 507 612 507 612 485.5 632 c 128,-1,10
 464 652 464 652 435.5 662 c 128,-1,11
 407 672 407 672 372 672 c 0,12,13
 265 672 265 672 204.5 589 c 128,-1,14
 144 506 144 506 144 367 c 0,15,16
 144 227 144 227 204.5 145.5 c 128,-1,17
 265 64 265 64 366 64 c 0,18,19
 427 64 427 64 472 93.5 c 128,-1,20
 517 123 517 123 538 177 c 1,21,-1
 346 177 l 1,22,-1
 346 239 l 1,23,-1
 556 239 l 1,24,25
 559 259 559 259 559 277 c 2,26,-1
 559 323 l 1,27,-1
 359 323 l 1,28,-1
 359 401 l 1,29,-1
 649 401 l 1,30,-1
 649 239 l 1,31,-1
 715 239 l 1,32,-1
 715 177 l 1,33,-1
 649 177 l 1,34,-1
 649 0 l 1,35,-1
 582 0 l 1,36,-1
 574 96 l 1,37,38
 515 -17 515 -17 366 -17 c 0,39,40
 224 -17 224 -17 135.5 86.5 c 128,-1,41
 47 190 47 190 47 367 c 0,0,1
EndSplineSet
EndChar

StartChar: uni01E5
Encoding: 485 485 423
Width: 575
GlyphClass: 2
Flags: W
LayerCount: 2
Fore
SplineSet
40 283 m 0,0,1
 40 400 40 400 101.5 474 c 128,-1,2
 163 548 163 548 260 548 c 0,3,4
 317 548 317 548 354.5 518.5 c 128,-1,5
 392 489 392 489 407 453 c 1,6,-1
 407 531 l 1,7,-1
 496 531 l 1,8,-1
 496 80 l 2,9,10
 496 22 496 22 490 -21 c 1,11,-1
 563 -21 l 1,12,-1
 563 -78 l 1,13,-1
 479 -78 l 1,14,15
 456 -153 456 -153 405.5 -192 c 128,-1,16
 355 -231 355 -231 267 -231 c 0,17,18
 138 -231 138 -231 65 -132 c 1,19,-1
 126 -91 l 1,20,21
 180 -157 180 -157 269 -157 c 0,22,23
 351 -157 351 -157 385 -78 c 1,24,-1
 203 -78 l 1,25,-1
 203 -21 l 1,26,-1
 401 -21 l 1,27,28
 407 15 407 15 407 60 c 2,29,-1
 407 121 l 1,30,31
 388 82 388 82 349 56.5 c 128,-1,32
 310 31 310 31 260 31 c 0,33,34
 164 31 164 31 102 99.5 c 128,-1,35
 40 168 40 168 40 283 c 0,0,1
132 283 m 0,36,37
 132 199 132 199 171.5 153 c 128,-1,38
 211 107 211 107 268 107 c 0,39,40
 328 107 328 107 367 156.5 c 128,-1,41
 406 206 406 206 406 291 c 0,42,43
 406 373 406 373 367.5 422.5 c 128,-1,44
 329 472 329 472 271 472 c 0,45,46
 208 472 208 472 170 418.5 c 128,-1,47
 132 365 132 365 132 283 c 0,36,37
EndSplineSet
EndChar

StartChar: uni01EF
Encoding: 495 495 433
Width: 559
GlyphClass: 2
Flags: W
LayerCount: 2
Fore
SplineSet
77 787 m 1,0,-1
 168 787 l 1,1,-1
 271 677 l 1,2,-1
 376 787 l 1,3,-1
 465 787 l 1,4,-1
 310 627 l 1,5,-1
 230 627 l 1,6,-1
 77 787 l 1,0,-1
40 -66 m 1,7,-1
 119 -44 l 1,8,9
 140 -93 140 -93 178 -123.5 c 128,-1,10
 216 -154 216 -154 269 -154 c 0,11,12
 339 -154 339 -154 380.5 -107 c 128,-1,13
 422 -60 422 -60 422 15 c 0,14,15
 422 87 422 87 374 132 c 128,-1,16
 326 177 326 177 237 177 c 2,17,-1
 150 177 l 1,18,-1
 150 239 l 1,19,-1
 353 455 l 1,20,-1
 70 455 l 1,21,-1
 70 531 l 1,22,-1
 485 531 l 1,23,-1
 485 474 l 1,24,-1
 263 244 l 1,25,-1
 308 241 l 1,26,27
 398 227 398 227 456 166 c 128,-1,28
 514 105 514 105 514 15 c 0,29,30
 514 -93 514 -93 447.5 -162 c 128,-1,31
 381 -231 381 -231 272 -231 c 0,32,33
 184 -231 184 -231 125 -185.5 c 128,-1,34
 66 -140 66 -140 40 -66 c 1,7,-1
EndSplineSet
EndChar

StartChar: uni01F6
Encoding: 502 502 440
Width: 1011
GlyphClass: 2
Flags: W
LayerCount: 2
Fore
SplineSet
95 0 m 1,0,-1
 95 735 l 1,1,-1
 189 735 l 1,2,-1
 189 418 l 1,3,-1
 515 418 l 1,4,-1
 515 735 l 1,5,-1
 611 735 l 1,6,-1
 611 196 l 2,7,8
 611 126 611 126 645 92.5 c 128,-1,9
 679 59 679 59 734 59 c 0,10,11
 784 59 784 59 818 94 c 128,-1,12
 852 129 852 129 852 188 c 2,13,-1
 852 531 l 1,14,-1
 944 531 l 1,15,-1
 944 177 l 2,16,17
 944 83 944 83 883 33 c 128,-1,18
 822 -17 822 -17 733 -17 c 0,19,20
 674 -17 674 -17 627.5 0 c 128,-1,21
 581 17 581 17 548 62.5 c 128,-1,22
 515 108 515 108 515 177 c 2,23,-1
 515 338 l 1,24,-1
 189 338 l 1,25,-1
 189 0 l 1,26,-1
 95 0 l 1,0,-1
EndSplineSet
EndChar

StartChar: uni01F7
Encoding: 503 503 441
Width: 645
GlyphClass: 2
Flags: W
LayerCount: 2
Fore
SplineSet
95 -219 m 1,0,-1
 95 735 l 1,1,-1
 189 735 l 1,2,-1
 189 660 l 1,3,4
 285 752 285 752 387 752 c 0,5,6
 492 752 492 752 546.5 683.5 c 128,-1,7
 601 615 601 615 601 493 c 0,8,9
 601 419 601 419 573.5 350 c 128,-1,10
 546 281 546 281 503.5 229.5 c 128,-1,11
 461 178 461 178 404 132 c 128,-1,12
 347 86 347 86 295.5 56 c 128,-1,13
 244 26 244 26 189 2 c 1,14,-1
 189 -219 l 1,15,-1
 95 -219 l 1,0,-1
189 91 m 1,16,17
 229 111 229 111 268 136 c 128,-1,18
 307 161 307 161 352 199.5 c 128,-1,19
 397 238 397 238 429.5 280 c 128,-1,20
 462 322 462 322 484 377 c 128,-1,21
 506 432 506 432 506 489 c 0,22,23
 506 575 506 575 471 624 c 128,-1,24
 436 673 436 673 368 673 c 0,25,26
 321 673 321 673 270.5 640.5 c 128,-1,27
 220 608 220 608 189 565 c 1,28,-1
 189 91 l 1,16,17
EndSplineSet
EndChar

StartChar: Aringacute
Encoding: 506 506 444
Width: 644
GlyphClass: 2
Flags: W
LayerCount: 2
Fore
SplineSet
-4 0 m 1,0,-1
 268 735 l 1,1,-1
 378 735 l 1,2,-1
 648 0 l 1,3,-1
 547 0 l 1,4,-1
 478 201 l 1,5,-1
 168 201 l 1,6,-1
 97 0 l 1,7,-1
 -4 0 l 1,0,-1
183 868 m 0,8,9
 183 921 183 921 222 959 c 0,10,11
 249 984 249 984 285 992 c 1,12,-1
 361 1113 l 1,13,-1
 475 1113 l 1,14,-1
 366 990 l 1,15,16
 397 981 397 981 420 958 c 0,17,18
 459 920 459 920 459 868 c 0,19,20
 459 814 459 814 419.5 777 c 128,-1,21
 380 740 380 740 321 740 c 0,22,23
 264 740 264 740 223.5 777 c 128,-1,24
 183 814 183 814 183 868 c 0,8,9
194 276 m 1,25,-1
 451 276 l 1,26,-1
 373 505 l 2,27,28
 367 522 367 522 350 573 c 128,-1,29
 333 624 333 624 326 647 c 1,30,-1
 320 647 l 1,31,32
 313 626 313 626 296 576 c 128,-1,33
 279 526 279 526 273 505 c 2,34,-1
 194 276 l 1,25,-1
247 868 m 256,35,36
 247 838 247 838 268 817.5 c 128,-1,37
 289 797 289 797 321 797 c 256,38,39
 353 797 353 797 373.5 816.5 c 128,-1,40
 394 836 394 836 394 868 c 0,41,42
 394 898 394 898 374 919 c 128,-1,43
 354 940 354 940 321 940 c 256,44,45
 288 940 288 940 267.5 919 c 128,-1,46
 247 898 247 898 247 868 c 256,35,36
EndSplineSet
EndChar

StartChar: aringacute
Encoding: 507 507 445
Width: 550
GlyphClass: 2
Flags: W
LayerCount: 2
Fore
SplineSet
39 133 m 0,0,1
 39 282 39 282 265 317 c 0,2,3
 363 332 363 332 393 342 c 1,4,-1
 393 372 l 2,5,6
 393 418 393 418 360.5 447 c 128,-1,7
 328 476 328 476 270 476 c 0,8,9
 223 476 223 476 180.5 454.5 c 128,-1,10
 138 433 138 433 109 397 c 1,11,-1
 52 445 l 1,12,13
 92 492 92 492 148.5 520 c 128,-1,14
 205 548 205 548 268 548 c 0,15,16
 483 548 483 548 483 336 c 2,17,-1
 483 0 l 1,18,-1
 396 0 l 1,19,-1
 396 80 l 1,20,21
 380 40 380 40 333.5 11.5 c 128,-1,22
 287 -17 287 -17 224 -17 c 0,23,24
 137 -17 137 -17 88 24.5 c 128,-1,25
 39 66 39 66 39 133 c 0,0,1
132 726 m 0,26,27
 132 779 132 779 171 817 c 0,28,29
 198 842 198 842 234 850 c 1,30,-1
 310 971 l 1,31,-1
 424 971 l 1,32,-1
 315 848 l 1,33,34
 345 839 345 839 368 816 c 0,35,36
 407 778 407 778 407 726 c 0,37,38
 407 672 407 672 367.5 635 c 128,-1,39
 328 598 328 598 270 598 c 0,40,41
 213 598 213 598 172.5 635 c 128,-1,42
 132 672 132 672 132 726 c 0,26,27
129 141 m 0,43,44
 129 106 129 106 158 82 c 128,-1,45
 187 58 187 58 236 58 c 0,46,47
 302 58 302 58 347.5 100.5 c 128,-1,48
 393 143 393 143 393 209 c 2,49,-1
 393 275 l 1,50,51
 354 265 354 265 268 251 c 0,52,53
 129 228 129 228 129 141 c 0,43,44
196 726 m 256,54,55
 196 696 196 696 217 675.5 c 128,-1,56
 238 655 238 655 270 655 c 256,57,58
 302 655 302 655 322.5 675 c 128,-1,59
 343 695 343 695 343 726 c 0,60,61
 343 756 343 756 322.5 777.5 c 128,-1,62
 302 799 302 799 270 799 c 0,63,64
 237 799 237 799 216.5 777.5 c 128,-1,65
 196 756 196 756 196 726 c 256,54,55
EndSplineSet
EndChar

StartChar: uni021C
Encoding: 540 540 478
Width: 574
GlyphClass: 2
Flags: W
LayerCount: 2
Fore
SplineSet
44 -125 m 1,0,1
 119 -141 119 -141 189 -141 c 0,2,3
 297 -141 297 -141 364 -83 c 128,-1,4
 431 -25 431 -25 431 74 c 0,5,6
 431 129 431 129 414.5 170 c 128,-1,7
 398 211 398 211 370.5 232 c 128,-1,8
 343 253 343 253 313.5 263 c 128,-1,9
 284 273 284 273 251 273 c 0,10,11
 206 273 206 273 147 250 c 1,12,-1
 147 332 l 1,13,-1
 246 355 l 2,14,15
 324 375 324 375 370.5 422 c 128,-1,16
 417 469 417 469 417 535 c 0,17,18
 417 597 417 597 377.5 634 c 128,-1,19
 338 671 338 671 266 671 c 0,20,21
 170 671 170 671 121 576 c 1,22,-1
 46 611 l 1,23,24
 74 674 74 674 131.5 713 c 128,-1,25
 189 752 189 752 266 752 c 0,26,27
 388 752 388 752 451.5 695.5 c 128,-1,28
 515 639 515 639 515 544 c 0,29,30
 515 460 515 460 468 402.5 c 128,-1,31
 421 345 421 345 359 321 c 1,32,-1
 359 320 l 1,33,34
 427 302 427 302 477.5 240 c 128,-1,35
 528 178 528 178 528 73 c 0,36,37
 528 -63 528 -63 434.5 -143 c 128,-1,38
 341 -223 341 -223 190 -223 c 0,39,40
 119 -223 119 -223 44 -210 c 1,41,-1
 44 -125 l 1,0,1
EndSplineSet
EndChar

StartChar: uni021D
Encoding: 541 541 479
Width: 450
GlyphClass: 2
Flags: W
LayerCount: 2
Fore
SplineSet
40 -143 m 1,0,1
 93 -154 93 -154 149 -154 c 0,2,3
 223 -154 223 -154 268.5 -112 c 128,-1,4
 314 -70 314 -70 314 7 c 0,5,6
 314 76 314 76 277 115.5 c 128,-1,7
 240 155 240 155 190 155 c 0,8,9
 158 155 158 155 118 142 c 1,10,-1
 118 217 l 1,11,-1
 188 232 l 2,12,13
 244 246 244 246 275 284 c 128,-1,14
 306 322 306 322 306 369 c 0,15,16
 306 414 306 414 282 443 c 128,-1,17
 258 472 258 472 211 472 c 0,18,19
 144 472 144 472 113 402 c 1,20,-1
 43 432 l 1,21,22
 61 483 61 483 106.5 515.5 c 128,-1,23
 152 548 152 548 216 548 c 0,24,25
 302 548 302 548 349 498 c 128,-1,26
 396 448 396 448 396 381 c 0,27,28
 396 253 396 253 282 200 c 1,29,30
 330 185 330 185 368 135.5 c 128,-1,31
 406 86 406 86 406 10 c 0,32,33
 406 -105 406 -105 338 -167.5 c 128,-1,34
 270 -230 270 -230 150 -230 c 0,35,36
 106 -230 106 -230 40 -222 c 1,37,-1
 40 -143 l 1,0,1
EndSplineSet
EndChar

StartChar: uni0220
Encoding: 544 544 482
Width: 711
GlyphClass: 2
Flags: W
LayerCount: 2
Fore
SplineSet
95 0 m 1,0,-1
 95 735 l 1,1,-1
 185 735 l 1,2,-1
 185 646 l 1,3,-1
 186 646 l 1,4,5
 203 669 203 669 226 689.5 c 128,-1,6
 249 710 249 710 297.5 731 c 128,-1,7
 346 752 346 752 400 752 c 0,8,9
 618 752 618 752 618 495 c 2,10,-1
 618 -227 l 1,11,-1
 524 -227 l 1,12,-1
 524 486 l 2,13,14
 524 580 524 580 490 626 c 128,-1,15
 456 672 456 672 378 672 c 0,16,17
 308 672 308 672 248.5 612 c 128,-1,18
 189 552 189 552 189 481 c 2,19,-1
 189 0 l 1,20,-1
 95 0 l 1,0,-1
EndSplineSet
EndChar

StartChar: uni0221
Encoding: 545 545 483
Width: 751
GlyphClass: 2
Flags: W
LayerCount: 2
Fore
SplineSet
519 -100 m 1,0,1
 527 -126 527 -126 551.5 -143 c 128,-1,2
 576 -160 576 -160 608 -160 c 0,3,4
 635 -160 635 -160 651 -146.5 c 128,-1,5
 667 -133 667 -133 667 -110 c 256,6,7
 667 -87 667 -87 650 -71 c 128,-1,8
 633 -55 633 -55 606 -55 c 0,9,10
 555 -55 555 -55 519 -100 c 1,0,1
39 266 m 0,11,12
 39 397 39 397 103 472.5 c 128,-1,13
 167 548 167 548 264 548 c 0,14,15
 319 548 319 548 358.5 518.5 c 128,-1,16
 398 489 398 489 415 450 c 1,17,-1
 415 762 l 1,18,-1
 506 762 l 1,19,-1
 506 39 l 2,20,21
 506 -13 506 -13 508 -21 c 1,22,23
 548 17 548 17 609 17 c 0,24,25
 675 17 675 17 712 -19 c 128,-1,26
 749 -55 749 -55 749 -107 c 0,27,28
 749 -162 749 -162 710.5 -196.5 c 128,-1,29
 672 -231 672 -231 609 -231 c 0,30,31
 529 -231 529 -231 481 -167 c 1,32,33
 464 -194 464 -194 452 -227 c 1,34,-1
 378 -203 l 1,35,36
 403 -136 403 -136 431 -97 c 1,37,38
 417 -65 417 -65 417 13 c 2,39,-1
 417 86 l 1,40,41
 400 44 400 44 359.5 13.5 c 128,-1,42
 319 -17 319 -17 263 -17 c 0,43,44
 223 -17 223 -17 184.5 -1.5 c 128,-1,45
 146 14 146 14 113 46.5 c 128,-1,46
 80 79 80 79 59.5 136 c 128,-1,47
 39 193 39 193 39 266 c 0,11,12
132 266 m 0,48,49
 132 171 132 171 172 115 c 128,-1,50
 212 59 212 59 276 59 c 0,51,52
 335 59 335 59 376 115 c 128,-1,53
 417 171 417 171 417 266 c 0,54,55
 417 359 417 359 376.5 415.5 c 128,-1,56
 336 472 336 472 276 472 c 0,57,58
 210 472 210 472 171 416 c 128,-1,59
 132 360 132 360 132 266 c 0,48,49
EndSplineSet
EndChar

StartChar: uni0222
Encoding: 546 546 484
Width: 691
GlyphClass: 2
Flags: W
LayerCount: 2
Fore
SplineSet
41 239 m 0,0,1
 41 312 41 312 84 372.5 c 128,-1,2
 127 433 127 433 198 466 c 1,3,4
 70 518 70 518 70 654 c 0,5,6
 70 701 70 701 82 735 c 1,7,-1
 173 735 l 1,8,9
 168 698 168 698 168 660 c 0,10,11
 168 595 168 595 216 548 c 128,-1,12
 264 501 264 501 346 501 c 0,13,14
 424 501 424 501 474 547 c 128,-1,15
 524 593 524 593 524 660 c 0,16,17
 524 684 524 684 517 735 c 1,18,-1
 609 735 l 1,19,20
 620 703 620 703 620 654 c 0,21,22
 620 516 620 516 491 466 c 1,23,24
 564 436 564 436 606.5 374.5 c 128,-1,25
 649 313 649 313 649 239 c 0,26,27
 649 192 649 192 631.5 147.5 c 128,-1,28
 614 103 614 103 578.5 65.5 c 128,-1,29
 543 28 543 28 483 5.5 c 128,-1,30
 423 -17 423 -17 346 -17 c 0,31,32
 270 -17 270 -17 209 5.5 c 128,-1,33
 148 28 148 28 113 65.5 c 128,-1,34
 78 103 78 103 59.5 147.5 c 128,-1,35
 41 192 41 192 41 239 c 0,0,1
139 239 m 0,36,37
 139 160 139 160 196.5 111.5 c 128,-1,38
 254 63 254 63 346 63 c 0,39,40
 435 63 435 63 493.5 111 c 128,-1,41
 552 159 552 159 552 239 c 0,42,43
 552 316 552 316 492.5 368 c 128,-1,44
 433 420 433 420 346 420 c 256,45,46
 259 420 259 420 199 369.5 c 128,-1,47
 139 319 139 319 139 239 c 0,36,37
EndSplineSet
EndChar

StartChar: uni0223
Encoding: 547 547 485
Width: 557
GlyphClass: 2
Flags: W
LayerCount: 2
Fore
SplineSet
39 243 m 0,0,1
 39 329 39 329 78.5 392 c 128,-1,2
 118 455 118 455 176 478 c 1,3,4
 63 524 63 524 63 666 c 0,5,6
 63 715 63 715 73 749 c 1,7,-1
 162 749 l 1,8,9
 154 697 154 697 154 671 c 0,10,11
 154 604 154 604 185 558 c 128,-1,12
 216 512 216 512 278 512 c 0,13,14
 337 512 337 512 370 557.5 c 128,-1,15
 403 603 403 603 403 671 c 0,16,17
 403 697 403 697 394 749 c 1,18,-1
 483 749 l 1,19,20
 493 716 493 716 493 666 c 0,21,22
 493 592 493 592 462.5 544.5 c 128,-1,23
 432 497 432 497 380 478 c 1,24,25
 439 457 439 457 478 393 c 128,-1,26
 517 329 517 329 517 243 c 0,27,28
 517 175 517 175 494 118.5 c 128,-1,29
 471 62 471 62 415 22.5 c 128,-1,30
 359 -17 359 -17 278 -17 c 0,31,32
 161 -17 161 -17 100 59 c 128,-1,33
 39 135 39 135 39 243 c 0,0,1
132 243 m 0,34,35
 132 162 132 162 172.5 111 c 128,-1,36
 213 60 213 60 278 60 c 0,37,38
 344 60 344 60 385 109.5 c 128,-1,39
 426 159 426 159 426 243 c 0,40,41
 426 325 426 325 384 379.5 c 128,-1,42
 342 434 342 434 278 434 c 0,43,44
 217 434 217 434 174.5 380.5 c 128,-1,45
 132 327 132 327 132 243 c 0,34,35
EndSplineSet
EndChar

StartChar: uni0224
Encoding: 548 548 486
Width: 607
GlyphClass: 2
Flags: W
LayerCount: 2
Fore
SplineSet
40 0 m 1,0,-1
 40 68 l 1,1,-1
 444 655 l 1,2,-1
 72 655 l 1,3,-1
 72 735 l 1,4,-1
 559 735 l 1,5,-1
 559 665 l 1,6,-1
 155 79 l 1,7,-1
 453 79 l 2,8,9
 538 79 538 79 578 35.5 c 128,-1,10
 618 -8 618 -8 618 -98 c 0,11,12
 618 -163 618 -163 591 -227 c 1,13,-1
 507 -227 l 1,14,15
 535 -164 535 -164 535 -109 c 0,16,17
 535 0 535 0 427 0 c 2,18,-1
 40 0 l 1,0,-1
EndSplineSet
EndChar

StartChar: uni0225
Encoding: 549 549 487
Width: 478
GlyphClass: 2
Flags: W
LayerCount: 2
Fore
SplineSet
29 0 m 1,0,-1
 29 61 l 1,1,-1
 327 458 l 1,2,-1
 54 458 l 1,3,-1
 54 534 l 1,4,-1
 443 534 l 1,5,-1
 443 477 l 1,6,-1
 144 76 l 1,7,-1
 373 76 l 2,8,9
 450 76 450 76 488 34.5 c 128,-1,10
 526 -7 526 -7 526 -95 c 0,11,12
 526 -178 526 -178 506 -227 c 1,13,-1
 426 -227 l 1,14,15
 446 -176 446 -176 446 -110 c 0,16,17
 446 -54 446 -54 424.5 -27 c 128,-1,18
 403 0 403 0 351 0 c 2,19,-1
 29 0 l 1,0,-1
EndSplineSet
EndChar

StartChar: uni0234
Encoding: 564 564 502
Width: 409
GlyphClass: 2
Flags: W
LayerCount: 2
Fore
SplineSet
185 -99 m 1,0,1
 193 -125 193 -125 217.5 -142.5 c 128,-1,2
 242 -160 242 -160 273 -160 c 0,3,4
 300 -160 300 -160 316 -146 c 128,-1,5
 332 -132 332 -132 332 -110 c 0,6,7
 332 -86 332 -86 315.5 -70.5 c 128,-1,8
 299 -55 299 -55 272 -55 c 0,9,10
 221 -55 221 -55 185 -99 c 1,0,1
43 -203 m 1,11,12
 73 -126 73 -126 95 -97 c 1,13,14
 81 -63 81 -63 81 21 c 2,15,-1
 81 762 l 1,16,-1
 171 762 l 1,17,-1
 171 40 l 2,18,19
 171 -8 171 -8 173 -22 c 1,20,21
 213 17 213 17 274 17 c 0,22,23
 339 17 339 17 377 -19 c 128,-1,24
 415 -55 415 -55 415 -107 c 0,25,26
 415 -162 415 -162 376.5 -196.5 c 128,-1,27
 338 -231 338 -231 275 -231 c 0,28,29
 195 -231 195 -231 146 -167 c 1,30,31
 126 -200 126 -200 118 -227 c 1,32,-1
 43 -203 l 1,11,12
EndSplineSet
EndChar

StartChar: uni0235
Encoding: 565 565 503
Width: 734
GlyphClass: 2
Flags: W
LayerCount: 2
Fore
SplineSet
509 -99 m 1,0,1
 516 -125 516 -125 540.5 -142.5 c 128,-1,2
 565 -160 565 -160 596 -160 c 0,3,4
 624 -160 624 -160 640 -146 c 128,-1,5
 656 -132 656 -132 656 -110 c 256,6,7
 656 -88 656 -88 639.5 -71.5 c 128,-1,8
 623 -55 623 -55 594 -55 c 0,9,10
 544 -55 544 -55 509 -99 c 1,0,1
73 0 m 1,11,-1
 73 531 l 1,12,-1
 161 531 l 1,13,-1
 161 448 l 1,14,-1
 162 448 l 1,15,16
 175 482 175 482 217 515 c 128,-1,17
 259 548 259 548 323 548 c 0,18,19
 398 548 398 548 446 500.5 c 128,-1,20
 494 453 494 453 494 342 c 2,21,-1
 494 39 l 2,22,23
 494 -13 494 -13 496 -21 c 1,24,25
 535 17 535 17 597 17 c 0,26,27
 662 17 662 17 700.5 -18.5 c 128,-1,28
 739 -54 739 -54 739 -107 c 0,29,30
 739 -162 739 -162 700 -196.5 c 128,-1,31
 661 -231 661 -231 597 -231 c 0,32,33
 518 -231 518 -231 470 -167 c 1,34,35
 448 -206 448 -206 440 -227 c 1,36,-1
 366 -203 l 1,37,38
 387 -143 387 -143 419 -97 c 1,39,40
 404 -62 404 -62 404 25 c 2,41,-1
 404 329 l 2,42,43
 404 472 404 472 303 472 c 0,44,45
 247 472 247 472 205.5 425.5 c 128,-1,46
 164 379 164 379 164 314 c 2,47,-1
 164 0 l 1,48,-1
 73 0 l 1,11,-1
EndSplineSet
EndChar

StartChar: uni0236
Encoding: 566 566 504
Width: 437
GlyphClass: 2
Flags: W
LayerCount: 2
Fore
SplineSet
212 -99 m 1,0,1
 220 -124 220 -124 244.5 -142 c 128,-1,2
 269 -160 269 -160 300 -160 c 0,3,4
 329 -160 329 -160 344 -145.5 c 128,-1,5
 359 -131 359 -131 359 -110 c 0,6,7
 359 -88 359 -88 343.5 -71.5 c 128,-1,8
 328 -55 328 -55 299 -55 c 0,9,10
 248 -55 248 -55 212 -99 c 1,0,1
18 455 m 1,11,-1
 18 531 l 1,12,-1
 108 531 l 1,13,-1
 108 696 l 1,14,-1
 197 696 l 1,15,-1
 197 531 l 1,16,-1
 331 531 l 1,17,-1
 331 455 l 1,18,-1
 197 455 l 1,19,-1
 197 37 l 2,20,21
 197 -13 197 -13 199 -21 c 1,22,23
 238 17 238 17 301 17 c 0,24,25
 367 17 367 17 404.5 -19 c 128,-1,26
 442 -55 442 -55 442 -107 c 0,27,28
 442 -162 442 -162 403 -196.5 c 128,-1,29
 364 -231 364 -231 301 -231 c 0,30,31
 222 -231 222 -231 173 -167 c 1,32,33
 150 -205 150 -205 144 -227 c 1,34,-1
 70 -203 l 1,35,36
 101 -124 101 -124 122 -97 c 1,37,38
 108 -63 108 -63 108 26 c 2,39,-1
 108 455 l 1,40,-1
 18 455 l 1,11,-1
EndSplineSet
EndChar

StartChar: uni0237
Encoding: 567 567 505
Width: 270
GlyphClass: 2
Flags: W
LayerCount: 2
Fore
SplineSet
-12 -148 m 1,0,-1
 10 -148 l 2,1,2
 92 -148 92 -148 92 -33 c 2,3,-1
 92 531 l 1,4,-1
 183 531 l 1,5,-1
 183 -38 l 2,6,7
 183 -130 183 -130 141.5 -177 c 128,-1,8
 100 -224 100 -224 24 -224 c 2,9,-1
 -12 -224 l 1,10,-1
 -12 -148 l 1,0,-1
EndSplineSet
EndChar

StartChar: uni0238
Encoding: 568 568 506
Width: 920
GlyphClass: 2
Flags: W
LayerCount: 2
Fore
SplineSet
39 266 m 0,0,1
 39 398 39 398 103.5 473 c 128,-1,2
 168 548 168 548 264 548 c 0,3,4
 319 548 319 548 358.5 518.5 c 128,-1,5
 398 489 398 489 415 450 c 1,6,-1
 415 762 l 1,7,-1
 506 762 l 1,8,-1
 506 449 l 1,9,10
 522 486 522 486 562.5 517 c 128,-1,11
 603 548 603 548 658 548 c 0,12,13
 756 548 756 548 818 473 c 128,-1,14
 880 398 880 398 880 266 c 0,15,16
 880 192 880 192 860 135 c 128,-1,17
 840 78 840 78 807 46 c 128,-1,18
 774 14 774 14 736 -1.5 c 128,-1,19
 698 -17 698 -17 658 -17 c 0,20,21
 603 -17 603 -17 562.5 13 c 128,-1,22
 522 43 522 43 505 85 c 1,23,-1
 505 0 l 1,24,-1
 417 0 l 1,25,-1
 417 86 l 1,26,27
 398 41 398 41 357 12 c 128,-1,28
 316 -17 316 -17 263 -17 c 0,29,30
 223 -17 223 -17 185.5 -2 c 128,-1,31
 148 13 148 13 114.5 44.5 c 128,-1,32
 81 76 81 76 60 133.5 c 128,-1,33
 39 191 39 191 39 266 c 0,0,1
132 266 m 0,34,35
 132 169 132 169 172 114 c 128,-1,36
 212 59 212 59 276 59 c 0,37,38
 338 59 338 59 377.5 115 c 128,-1,39
 417 171 417 171 417 260 c 2,40,-1
 417 267 l 2,41,42
 417 355 417 355 376.5 413.5 c 128,-1,43
 336 472 336 472 275 472 c 0,44,45
 211 472 211 472 171.5 417 c 128,-1,46
 132 362 132 362 132 266 c 0,34,35
504 259 m 2,47,48
 504 173 504 173 543.5 116 c 128,-1,49
 583 59 583 59 645 59 c 0,50,51
 709 59 709 59 749 113.5 c 128,-1,52
 789 168 789 168 789 266 c 0,53,54
 789 360 789 360 749.5 416 c 128,-1,55
 710 472 710 472 645 472 c 0,56,57
 583 472 583 472 543.5 413.5 c 128,-1,58
 504 355 504 355 504 267 c 2,59,-1
 504 259 l 2,47,48
EndSplineSet
EndChar

StartChar: uni0239
Encoding: 569 569 507
Width: 922
GlyphClass: 2
Flags: W
LayerCount: 2
Fore
SplineSet
39 266 m 0,0,1
 39 395 39 395 102.5 471.5 c 128,-1,2
 166 548 166 548 264 548 c 0,3,4
 315 548 315 548 354.5 520.5 c 128,-1,5
 394 493 394 493 417 446 c 1,6,-1
 417 531 l 1,7,-1
 506 531 l 1,8,-1
 506 447 l 1,9,10
 527 490 527 490 568.5 519 c 128,-1,11
 610 548 610 548 663 548 c 0,12,13
 760 548 760 548 821 471.5 c 128,-1,14
 882 395 882 395 882 266 c 0,15,16
 882 127 882 127 817 55 c 128,-1,17
 752 -17 752 -17 662 -17 c 0,18,19
 606 -17 606 -17 564.5 12.5 c 128,-1,20
 523 42 523 42 506 84 c 1,21,-1
 506 -227 l 1,22,-1
 415 -227 l 1,23,-1
 415 83 l 1,24,25
 396 40 396 40 356 11.5 c 128,-1,26
 316 -17 316 -17 263 -17 c 0,27,28
 172 -17 172 -17 105.5 55 c 128,-1,29
 39 127 39 127 39 266 c 0,0,1
131 266 m 0,30,31
 131 170 131 170 171.5 114.5 c 128,-1,32
 212 59 212 59 275 59 c 256,33,34
 338 59 338 59 377 115 c 128,-1,35
 416 171 416 171 416 266 c 2,36,-1
 416 272 l 2,37,38
 416 359 416 359 377 415.5 c 128,-1,39
 338 472 338 472 276 472 c 0,40,41
 207 472 207 472 169 414 c 128,-1,42
 131 356 131 356 131 266 c 0,30,31
506 266 m 2,43,44
 506 171 506 171 546 115 c 128,-1,45
 586 59 586 59 650 59 c 0,46,47
 713 59 713 59 752 114.5 c 128,-1,48
 791 170 791 170 791 266 c 0,49,50
 791 357 791 357 754 414.5 c 128,-1,51
 717 472 717 472 650 472 c 0,52,53
 590 472 590 472 548 416 c 128,-1,54
 506 360 506 360 506 273 c 2,55,-1
 506 266 l 2,43,44
EndSplineSet
EndChar

StartChar: uni023A
Encoding: 570 570 508
Width: 644
GlyphClass: 2
Flags: W
LayerCount: 2
Fore
SplineSet
-4 0 m 1,0,-1
 268 735 l 1,1,-1
 378 735 l 1,2,-1
 433 584 l 1,3,-1
 553 774 l 1,4,-1
 624 774 l 1,5,-1
 460 512 l 1,6,-1
 648 0 l 1,7,-1
 547 0 l 1,8,-1
 478 201 l 1,9,-1
 264 201 l 1,10,-1
 80 -92 l 1,11,-1
 8 -92 l 1,12,-1
 66 0 l 1,13,-1
 -4 0 l 1,0,-1
194 277 m 1,14,-1
 240 277 l 1,15,-1
 377 494 l 1,16,-1
 373 505 l 2,17,18
 359 543 359 543 326 647 c 1,19,-1
 320 647 l 1,20,21
 302 590 302 590 273 505 c 2,22,-1
 194 277 l 1,14,-1
312 277 m 1,23,-1
 452 277 l 1,24,-1
 402 421 l 1,25,-1
 312 277 l 1,23,-1
169 201 m 1,26,-1
 139 116 l 1,27,-1
 192 201 l 1,28,-1
 169 201 l 1,26,-1
EndSplineSet
EndChar

StartChar: uni023B
Encoding: 571 571 509
Width: 655
GlyphClass: 2
Flags: W
LayerCount: 2
Fore
SplineSet
47 367 m 0,0,1
 47 544 47 544 135 648 c 128,-1,2
 223 752 223 752 365 752 c 0,3,4
 420 752 420 752 471 730 c 1,5,-1
 494 792 l 1,6,-1
 564 792 l 1,7,-1
 528 696 l 1,8,9
 582 651 582 651 611 586 c 1,10,-1
 531 559 l 1,11,12
 516 586 516 586 495 609 c 1,13,-1
 293 77 l 1,14,15
 328 64 328 64 364 64 c 0,16,17
 428 64 428 64 475 100.5 c 128,-1,18
 522 137 522 137 545 189 c 1,19,-1
 630 162 l 1,20,21
 616 130 616 130 594.5 101 c 128,-1,22
 573 72 573 72 541.5 44 c 128,-1,23
 510 16 510 16 464 -0.5 c 128,-1,24
 418 -17 418 -17 365 -17 c 0,25,26
 315 -17 315 -17 263 0 c 1,27,-1
 239 -66 l 1,28,-1
 170 -66 l 1,29,-1
 204 27 l 1,30,31
 130 73 130 73 88.5 160.5 c 128,-1,32
 47 248 47 248 47 367 c 0,0,1
236 111 m 1,33,-1
 442 653 l 1,34,35
 406 672 406 672 364 672 c 0,36,37
 262 672 262 672 203 588 c 128,-1,38
 144 504 144 504 144 367 c 0,39,40
 144 191 144 191 236 111 c 1,33,-1
EndSplineSet
EndChar

StartChar: uni023C
Encoding: 572 572 510
Width: 507
GlyphClass: 2
Flags: W
LayerCount: 2
Fore
SplineSet
39 266 m 0,0,1
 39 388 39 388 103.5 468 c 128,-1,2
 168 548 168 548 282 548 c 0,3,4
 321 548 321 548 353 534 c 1,5,-1
 377 600 l 1,6,-1
 440 600 l 1,7,-1
 406 503 l 1,8,9
 455 468 455 468 473 404 c 1,10,-1
 399 381 l 1,11,12
 385 409 385 409 377 422 c 1,13,-1
 249 63 l 1,14,15
 261 59 261 59 280 59 c 0,16,17
 328 59 328 59 360.5 88.5 c 128,-1,18
 393 118 393 118 409 156 c 1,19,-1
 486 133 l 1,20,21
 466 75 466 75 412.5 29 c 128,-1,22
 359 -17 359 -17 280 -17 c 0,23,24
 247 -17 247 -17 221 -11 c 1,25,-1
 203 -63 l 1,26,-1
 139 -63 l 1,27,-1
 165 11 l 1,28,29
 103 44 103 44 71 113 c 128,-1,30
 39 182 39 182 39 266 c 0,0,1
196 94 m 1,31,-1
 326 460 l 1,32,33
 307 471 307 471 280 471 c 0,34,35
 211 471 211 471 171.5 413 c 128,-1,36
 132 355 132 355 132 266 c 0,37,38
 132 144 132 144 196 94 c 1,31,-1
EndSplineSet
EndChar

StartChar: uni023D
Encoding: 573 573 511
Width: 540
GlyphClass: 2
Flags: W
LayerCount: 2
Fore
SplineSet
12 380 m 1,0,-1
 12 453 l 1,1,-1
 95 453 l 1,2,-1
 95 735 l 1,3,-1
 189 735 l 1,4,-1
 189 453 l 1,5,-1
 384 453 l 1,6,-1
 384 380 l 1,7,-1
 189 380 l 1,8,-1
 189 79 l 1,9,-1
 533 79 l 1,10,-1
 533 0 l 1,11,-1
 95 0 l 1,12,-1
 95 380 l 1,13,-1
 12 380 l 1,0,-1
EndSplineSet
EndChar

StartChar: uni023E
Encoding: 574 574 512
Width: 553
GlyphClass: 2
Flags: W
LayerCount: 2
Fore
SplineSet
324 655 m 1,0,-1
 324 483 l 1,1,-1
 419 655 l 1,2,-1
 324 655 l 1,0,-1
12 655 m 1,3,-1
 12 735 l 1,4,-1
 463 735 l 1,5,-1
 494 792 l 1,6,-1
 562 792 l 1,7,-1
 531 735 l 1,8,-1
 543 735 l 1,9,-1
 543 655 l 1,10,-1
 487 655 l 1,11,-1
 324 360 l 1,12,-1
 324 0 l 1,13,-1
 230 0 l 1,14,-1
 230 189 l 1,15,-1
 103 -41 l 1,16,-1
 36 -41 l 1,17,-1
 230 312 l 1,18,-1
 230 655 l 1,19,-1
 12 655 l 1,3,-1
EndSplineSet
EndChar

StartChar: uni023F
Encoding: 575 575 513
Width: 490
GlyphClass: 2
Flags: W
LayerCount: 2
Fore
SplineSet
32 107 m 1,0,-1
 97 145 l 1,1,2
 153 58 153 58 251 58 c 0,3,4
 305 58 305 58 337 78.5 c 128,-1,5
 369 99 369 99 369 135 c 0,6,7
 369 148 369 148 364.5 159 c 128,-1,8
 360 170 360 170 349.5 179 c 128,-1,9
 339 188 339 188 330.5 194.5 c 128,-1,10
 322 201 322 201 303 208.5 c 128,-1,11
 284 216 284 216 273.5 219.5 c 128,-1,12
 263 223 263 223 240 230.5 c 128,-1,13
 217 238 217 238 207 241 c 0,14,15
 134 266 134 266 91.5 300.5 c 128,-1,16
 49 335 49 335 49 397 c 0,17,18
 49 467 49 467 105.5 507.5 c 128,-1,19
 162 548 162 548 249 548 c 0,20,21
 317 548 317 548 371 514.5 c 128,-1,22
 425 481 425 481 453 431 c 1,23,-1
 392 392 l 1,24,25
 339 473 339 473 250 473 c 0,26,27
 197 473 197 473 169 452 c 128,-1,28
 141 431 141 431 141 395 c 0,29,30
 141 356 141 356 177 333.5 c 128,-1,31
 213 311 213 311 272 295 c 0,32,33
 310 284 310 284 339 272 c 128,-1,34
 368 260 368 260 398 241.5 c 128,-1,35
 428 223 428 223 444 196 c 128,-1,36
 460 169 460 169 460 135 c 0,37,38
 460 70 460 70 405 26.5 c 128,-1,39
 350 -17 350 -17 251 -17 c 0,40,41
 189 -17 189 -17 148 4 c 1,42,43
 173 -86 173 -86 190 -114 c 0,44,45
 222 -166 222 -166 285 -166 c 0,46,47
 316 -166 316 -166 338 -162 c 1,48,-1
 338 -225 l 1,49,50
 292 -231 292 -231 281 -231 c 0,51,52
 241 -231 241 -231 209 -217 c 128,-1,53
 177 -203 177 -203 157.5 -184 c 128,-1,54
 138 -165 138 -165 122 -130 c 128,-1,55
 106 -95 106 -95 98.5 -70.5 c 128,-1,56
 91 -46 91 -46 80 -5 c 0,57,58
 63 70 63 70 32 107 c 1,0,-1
EndSplineSet
EndChar

StartChar: uni0240
Encoding: 576 576 514
Width: 481
GlyphClass: 2
Flags: W
LayerCount: 2
Fore
SplineSet
29 0 m 1,0,-1
 29 61 l 1,1,-1
 327 455 l 1,2,-1
 54 455 l 1,3,-1
 54 531 l 1,4,-1
 443 531 l 1,5,-1
 443 474 l 1,6,-1
 132 60 l 1,7,8
 169 54 169 54 200 29.5 c 128,-1,9
 231 5 231 5 253.5 -25 c 128,-1,10
 276 -55 276 -55 297.5 -85 c 128,-1,11
 319 -115 319 -115 345 -134.5 c 128,-1,12
 371 -154 371 -154 401 -154 c 0,13,14
 428 -154 428 -154 455 -149 c 1,15,-1
 455 -224 l 1,16,17
 424 -231 424 -231 395 -231 c 0,18,19
 353 -231 353 -231 317.5 -208.5 c 128,-1,20
 282 -186 282 -186 256.5 -152.5 c 128,-1,21
 231 -119 231 -119 206.5 -85.5 c 128,-1,22
 182 -52 182 -52 150.5 -27.5 c 128,-1,23
 119 -3 119 -3 83 0 c 2,24,-1
 29 0 l 1,0,-1
EndSplineSet
EndChar

StartChar: uni0241
Encoding: 577 577 515
Width: 569
GlyphClass: 2
Flags: W
LayerCount: 2
Fore
SplineSet
61 585 m 1,0,1
 85 661 85 661 146 706.5 c 128,-1,2
 207 752 207 752 288 752 c 0,3,4
 382 752 382 752 441 696.5 c 128,-1,5
 500 641 500 641 500 550 c 0,6,7
 500 505 500 505 482 469 c 128,-1,8
 464 433 464 433 438 407 c 128,-1,9
 412 381 412 381 386.5 356.5 c 128,-1,10
 361 332 361 332 343.5 299 c 128,-1,11
 326 266 326 266 326 225 c 2,12,-1
 326 0 l 1,13,-1
 232 0 l 1,14,-1
 232 232 l 2,15,16
 232 278 232 278 250 316 c 128,-1,17
 268 354 268 354 293 380 c 128,-1,18
 318 406 318 406 343.5 430 c 128,-1,19
 369 454 369 454 387 485 c 128,-1,20
 405 516 405 516 405 553 c 0,21,22
 405 607 405 607 373 640 c 128,-1,23
 341 673 341 673 289 673 c 0,24,25
 239 673 239 673 201.5 642 c 128,-1,26
 164 611 164 611 144 559 c 1,27,-1
 61 585 l 1,0,1
EndSplineSet
EndChar

StartChar: uni0250
Encoding: 592 592 516
Width: 550
GlyphClass: 2
Flags: W
LayerCount: 2
Fore
SplineSet
159 256 m 1,0,1
 192 265 192 265 284 279 c 0,2,3
 422 302 422 302 422 390 c 0,4,5
 422 425 422 425 393 448.5 c 128,-1,6
 364 472 364 472 315 472 c 0,7,8
 250 472 250 472 204.5 430 c 128,-1,9
 159 388 159 388 159 324 c 2,10,-1
 159 256 l 1,0,1
68 195 m 2,11,-1
 68 531 l 1,12,-1
 156 531 l 1,13,-1
 156 451 l 1,14,15
 172 489 172 489 218.5 518.5 c 128,-1,16
 265 548 265 548 328 548 c 0,17,18
 413 548 413 548 463 506.5 c 128,-1,19
 513 465 513 465 513 397 c 0,20,21
 513 249 513 249 283 214 c 0,22,23
 201 200 201 200 158 188 c 0,24,25
 158 184 158 184 158.5 172 c 128,-1,26
 159 160 159 160 159 156 c 0,27,28
 159 112 159 112 192.5 83.5 c 128,-1,29
 226 55 226 55 282 55 c 0,30,31
 327 55 327 55 369.5 76 c 128,-1,32
 412 97 412 97 443 134 c 1,33,-1
 500 86 l 1,34,35
 459 38 459 38 402 10.5 c 128,-1,36
 345 -17 345 -17 283 -17 c 0,37,38
 68 -17 68 -17 68 195 c 2,11,-1
EndSplineSet
EndChar

StartChar: uni0251
Encoding: 593 593 517
Width: 578
GlyphClass: 2
Flags: W
LayerCount: 2
Fore
SplineSet
132 266 m 0,0,1
 132 169 132 169 172.5 114 c 128,-1,2
 213 59 213 59 276 59 c 0,3,4
 330 59 330 59 373 112 c 128,-1,5
 416 165 416 165 416 266 c 0,6,7
 416 359 416 359 375.5 415.5 c 128,-1,8
 335 472 335 472 275 472 c 0,9,10
 210 472 210 472 171 416.5 c 128,-1,11
 132 361 132 361 132 266 c 0,0,1
39 266 m 0,12,13
 39 396 39 396 102.5 472 c 128,-1,14
 166 548 166 548 263 548 c 0,15,16
 317 548 317 548 358.5 517 c 128,-1,17
 400 486 400 486 414 450 c 1,18,-1
 414 531 l 1,19,-1
 504 531 l 1,20,-1
 504 0 l 1,21,-1
 416 0 l 1,22,-1
 416 87 l 1,23,24
 398 44 398 44 357 13.5 c 128,-1,25
 316 -17 316 -17 263 -17 c 0,26,27
 173 -17 173 -17 106 54 c 128,-1,28
 39 125 39 125 39 266 c 0,12,13
EndSplineSet
EndChar

StartChar: uni0252
Encoding: 594 594 518
Width: 578
GlyphClass: 2
Flags: W
LayerCount: 2
Fore
SplineSet
74 0 m 1,0,-1
 74 531 l 1,1,-1
 164 531 l 1,2,-1
 164 448 l 1,3,4
 180 486 180 486 221 517 c 128,-1,5
 262 548 262 548 317 548 c 0,6,7
 415 548 415 548 476.5 472.5 c 128,-1,8
 538 397 538 397 538 266 c 0,9,10
 538 192 538 192 518 135 c 128,-1,11
 498 78 498 78 465.5 46 c 128,-1,12
 433 14 433 14 395 -1.5 c 128,-1,13
 357 -17 357 -17 317 -17 c 0,14,15
 262 -17 262 -17 221 13.5 c 128,-1,16
 180 44 180 44 163 86 c 1,17,-1
 163 0 l 1,18,-1
 74 0 l 1,0,-1
163 266 m 0,19,20
 163 171 163 171 203.5 115 c 128,-1,21
 244 59 244 59 303 59 c 0,22,23
 368 59 368 59 407.5 114.5 c 128,-1,24
 447 170 447 170 447 266 c 0,25,26
 447 361 447 361 408 416.5 c 128,-1,27
 369 472 369 472 304 472 c 0,28,29
 244 472 244 472 203.5 415.5 c 128,-1,30
 163 359 163 359 163 266 c 0,19,20
EndSplineSet
EndChar

StartChar: uni0253
Encoding: 595 595 519
Width: 582
GlyphClass: 2
Flags: W
LayerCount: 2
Fore
SplineSet
165 265 m 0,0,1
 165 171 165 171 205.5 115 c 128,-1,2
 246 59 246 59 307 59 c 0,3,4
 372 59 372 59 411.5 114.5 c 128,-1,5
 451 170 451 170 451 266 c 0,6,7
 451 358 451 358 412.5 415 c 128,-1,8
 374 472 374 472 307 472 c 0,9,10
 245 472 245 472 205 414.5 c 128,-1,11
 165 357 165 357 165 265 c 0,0,1
77 0 m 1,12,-1
 77 559 l 2,13,14
 77 661 77 661 126.5 717 c 128,-1,15
 176 773 176 773 265 773 c 0,16,17
 308 773 308 773 377 760 c 1,18,-1
 374 682 l 1,19,20
 304 693 304 693 279 693 c 0,21,22
 223 693 223 693 195 653.5 c 128,-1,23
 167 614 167 614 167 543 c 2,24,-1
 167 448 l 1,25,26
 187 490 187 490 227 519 c 128,-1,27
 267 548 267 548 320 548 c 0,28,29
 421 548 421 548 481.5 471 c 128,-1,30
 542 394 542 394 542 266 c 0,31,32
 542 131 542 131 477 57 c 128,-1,33
 412 -17 412 -17 320 -17 c 0,34,35
 262 -17 262 -17 223 14 c 128,-1,36
 184 45 184 45 166 86 c 1,37,-1
 166 0 l 1,38,-1
 77 0 l 1,12,-1
EndSplineSet
EndChar

StartChar: uni0254
Encoding: 596 596 520
Width: 507
GlyphClass: 2
Flags: W
LayerCount: 2
Fore
SplineSet
22 133 m 1,0,-1
 98 156 l 1,1,2
 113 118 113 118 148 88.5 c 128,-1,3
 183 59 183 59 227 59 c 0,4,5
 292 59 292 59 334 114.5 c 128,-1,6
 376 170 376 170 376 265 c 0,7,8
 376 354 376 354 336 413 c 128,-1,9
 296 472 296 472 227 472 c 0,10,11
 187 472 187 472 156 445.5 c 128,-1,12
 125 419 125 419 112 381 c 1,13,-1
 36 404 l 1,14,15
 52 461 52 461 103.5 504.5 c 128,-1,16
 155 548 155 548 229 548 c 0,17,18
 338 548 338 548 403 470 c 128,-1,19
 468 392 468 392 468 265 c 0,20,21
 468 136 468 136 402.5 59.5 c 128,-1,22
 337 -17 337 -17 229 -17 c 0,23,24
 154 -17 154 -17 97.5 27.5 c 128,-1,25
 41 72 41 72 22 133 c 1,0,-1
EndSplineSet
EndChar

StartChar: uni0255
Encoding: 597 597 521
Width: 509
GlyphClass: 2
Flags: W
LayerCount: 2
Fore
SplineSet
247 65 m 1,0,1
 279 53 279 53 313 53 c 0,2,3
 351 53 351 53 374 68.5 c 128,-1,4
 397 84 397 84 397 104 c 0,5,6
 397 141 397 141 347 141 c 0,7,8
 313 141 313 141 286.5 118 c 128,-1,9
 260 95 260 95 247 65 c 1,0,1
39 271 m 0,10,11
 39 388 39 388 103 468 c 128,-1,12
 167 548 167 548 280 548 c 0,13,14
 355 548 355 548 405.5 503.5 c 128,-1,15
 456 459 456 459 472 404 c 1,16,-1
 396 381 l 1,17,18
 383 417 383 417 352.5 444.5 c 128,-1,19
 322 472 322 472 280 472 c 0,20,21
 211 472 211 472 171.5 413.5 c 128,-1,22
 132 355 132 355 132 266 c 0,23,24
 132 164 132 164 184 107 c 1,25,26
 208 151 208 151 250 181 c 128,-1,27
 292 211 292 211 350 211 c 0,28,29
 409 211 409 211 445 179.5 c 128,-1,30
 481 148 481 148 481 104 c 0,31,32
 481 50 481 50 435.5 16.5 c 128,-1,33
 390 -17 390 -17 310 -17 c 0,34,35
 257 -17 257 -17 217 -6 c 1,36,37
 204 -39 204 -39 199 -65 c 1,38,-1
 120 -46 l 1,39,40
 125 -20 125 -20 145 27 c 1,41,42
 39 104 39 104 39 271 c 0,10,11
EndSplineSet
EndChar

StartChar: uni0256
Encoding: 598 598 522
Width: 583
GlyphClass: 2
Flags: W
LayerCount: 2
Fore
SplineSet
39 266 m 0,0,1
 39 398 39 398 103.5 473 c 128,-1,2
 168 548 168 548 264 548 c 0,3,4
 319 548 319 548 358.5 518.5 c 128,-1,5
 398 489 398 489 415 450 c 1,6,-1
 415 762 l 1,7,-1
 506 762 l 1,8,-1
 506 -34 l 2,9,10
 506 -96 506 -96 526 -123.5 c 128,-1,11
 546 -151 546 -151 588 -151 c 0,12,13
 623 -151 623 -151 656 -145 c 1,14,-1
 656 -223 l 1,15,16
 594 -231 594 -231 572 -231 c 0,17,18
 417 -231 417 -231 417 -39 c 2,19,-1
 417 86 l 1,20,21
 398 41 398 41 357 12 c 128,-1,22
 316 -17 316 -17 263 -17 c 0,23,24
 223 -17 223 -17 184.5 -1.5 c 128,-1,25
 146 14 146 14 113 46.5 c 128,-1,26
 80 79 80 79 59.5 136 c 128,-1,27
 39 193 39 193 39 266 c 0,0,1
132 266 m 256,28,29
 132 171 132 171 171.5 115 c 128,-1,30
 211 59 211 59 276 59 c 0,31,32
 336 59 336 59 376.5 115 c 128,-1,33
 417 171 417 171 417 266 c 0,34,35
 417 359 417 359 376.5 415.5 c 128,-1,36
 336 472 336 472 276 472 c 0,37,38
 212 472 212 472 172 416.5 c 128,-1,39
 132 361 132 361 132 266 c 256,28,29
EndSplineSet
EndChar

StartChar: uni0257
Encoding: 599 599 523
Width: 583
GlyphClass: 2
Flags: W
LayerCount: 2
Fore
SplineSet
39 266 m 0,0,1
 39 398 39 398 103.5 473 c 128,-1,2
 168 548 168 548 264 548 c 0,3,4
 318 548 318 548 358.5 517.5 c 128,-1,5
 399 487 399 487 415 448 c 1,6,-1
 415 616 l 2,7,8
 415 692 415 692 462.5 732.5 c 128,-1,9
 510 773 510 773 586 773 c 0,10,11
 602 773 602 773 665 768 c 1,12,-1
 665 689 l 1,13,14
 640 692 640 692 602 692 c 0,15,16
 559 692 559 692 532.5 667 c 128,-1,17
 506 642 506 642 506 596 c 2,18,-1
 506 0 l 1,19,-1
 418 0 l 1,20,-1
 418 88 l 1,21,22
 401 44 401 44 359 13.5 c 128,-1,23
 317 -17 317 -17 263 -17 c 0,24,25
 174 -17 174 -17 106.5 54 c 128,-1,26
 39 125 39 125 39 266 c 0,0,1
132 266 m 0,27,28
 132 169 132 169 171.5 114 c 128,-1,29
 211 59 211 59 276 59 c 0,30,31
 335 59 335 59 376 114 c 128,-1,32
 417 169 417 169 417 266 c 0,33,34
 417 359 417 359 376.5 415.5 c 128,-1,35
 336 472 336 472 276 472 c 0,36,37
 211 472 211 472 171.5 416 c 128,-1,38
 132 360 132 360 132 266 c 0,27,28
EndSplineSet
EndChar

StartChar: uni0258
Encoding: 600 600 524
Width: 555
GlyphClass: 2
Flags: W
LayerCount: 2
Fore
SplineSet
130 302 m 1,0,-1
 424 302 l 1,1,2
 420 373 420 373 380.5 423.5 c 128,-1,3
 341 474 341 474 274 474 c 256,4,5
 207 474 207 474 169 424 c 128,-1,6
 131 374 131 374 130 302 c 1,0,-1
39 235 m 1,7,-1
 39 277 l 2,8,9
 39 399 39 399 104.5 473.5 c 128,-1,10
 170 548 170 548 274 548 c 0,11,12
 380 548 380 548 448 471.5 c 128,-1,13
 516 395 516 395 516 269 c 0,14,15
 516 137 516 137 447.5 60 c 128,-1,16
 379 -17 379 -17 269 -17 c 0,17,18
 186 -17 186 -17 130 21 c 128,-1,19
 74 59 74 59 49 117 c 1,20,-1
 125 142 l 1,21,22
 144 103 144 103 181.5 80 c 128,-1,23
 219 57 219 57 268 57 c 0,24,25
 340 57 340 57 382 108.5 c 128,-1,26
 424 160 424 160 425 235 c 1,27,-1
 39 235 l 1,7,-1
EndSplineSet
EndChar

StartChar: uni025A
Encoding: 602 602 526
Width: 650
GlyphClass: 2
Flags: W
LayerCount: 2
Fore
SplineSet
38 226 m 1,0,-1
 403 388 l 1,1,2
 357 473 357 473 268 473 c 0,3,4
 219 473 219 473 181.5 450 c 128,-1,5
 144 427 144 427 123 388 c 1,6,-1
 48 413 l 1,7,8
 74 474 74 474 130.5 511 c 128,-1,9
 187 548 187 548 269 548 c 0,10,11
 343 548 343 548 396 514 c 128,-1,12
 449 480 449 480 478 424 c 1,13,-1
 555 462 l 1,14,15
 565 430 565 430 588 410 c 128,-1,16
 611 390 611 390 639 390 c 0,17,18
 661 390 661 390 677 395 c 1,19,-1
 677 324 l 1,20,21
 655 317 655 317 632 317 c 0,22,23
 598 317 598 317 572 331.5 c 128,-1,24
 546 346 546 346 535 367 c 1,25,-1
 505 351 l 1,26,27
 514 314 514 314 514 264 c 0,28,29
 514 141 514 141 448.5 62 c 128,-1,30
 383 -17 383 -17 273 -17 c 0,31,32
 166 -17 166 -17 104.5 55 c 128,-1,33
 43 127 43 127 38 226 c 1,0,-1
132 190 m 1,34,35
 143 127 143 127 182 92 c 128,-1,36
 221 57 221 57 273 57 c 0,37,38
 337 57 337 57 377.5 106.5 c 128,-1,39
 418 156 418 156 420 238 c 0,40,41
 423 260 423 260 423 280 c 0,42,43
 423 298 423 298 421 314 c 1,44,-1
 132 190 l 1,34,35
EndSplineSet
EndChar

StartChar: uni025B
Encoding: 603 603 527
Width: 478
GlyphClass: 2
Flags: W
LayerCount: 2
Fore
SplineSet
39 146 m 0,0,1
 39 197 39 197 69.5 232 c 128,-1,2
 100 267 100 267 144 281 c 1,3,4
 60 317 60 317 60 400 c 0,5,6
 60 465 60 465 111 506.5 c 128,-1,7
 162 548 162 548 250 548 c 0,8,9
 378 548 378 548 442 434 c 1,10,-1
 370 403 l 1,11,12
 351 433 351 433 319.5 452.5 c 128,-1,13
 288 472 288 472 252 472 c 0,14,15
 202 472 202 472 176.5 451 c 128,-1,16
 151 430 151 430 151 394 c 0,17,18
 151 357 151 357 181 333.5 c 128,-1,19
 211 310 211 310 271 310 c 2,20,-1
 319 310 l 1,21,-1
 319 243 l 1,22,-1
 271 243 l 2,23,24
 198 243 198 243 165 215 c 128,-1,25
 132 187 132 187 132 147 c 0,26,27
 132 106 132 106 167.5 82.5 c 128,-1,28
 203 59 203 59 254 59 c 0,29,30
 295 59 295 59 331.5 79.5 c 128,-1,31
 368 100 368 100 387 128 c 1,32,-1
 457 95 l 1,33,34
 428 45 428 45 374.5 14 c 128,-1,35
 321 -17 321 -17 253 -17 c 0,36,37
 160 -17 160 -17 99.5 26 c 128,-1,38
 39 69 39 69 39 146 c 0,0,1
EndSplineSet
EndChar

StartChar: uni025C
Encoding: 604 604 528
Width: 479
GlyphClass: 2
Flags: W
LayerCount: 2
Fore
SplineSet
21 95 m 1,0,-1
 92 128 l 1,1,2
 111 100 111 100 147 79.5 c 128,-1,3
 183 59 183 59 223 59 c 0,4,5
 275 59 275 59 311.5 82.5 c 128,-1,6
 348 106 348 106 348 147 c 0,7,8
 348 187 348 187 314.5 215 c 128,-1,9
 281 243 281 243 209 243 c 2,10,-1
 160 243 l 1,11,-1
 160 310 l 1,12,-1
 209 310 l 2,13,14
 269 310 269 310 298.5 333.5 c 128,-1,15
 328 357 328 357 328 394 c 0,16,17
 328 430 328 430 302 451 c 128,-1,18
 276 472 276 472 226 472 c 0,19,20
 191 472 191 472 160 452.5 c 128,-1,21
 129 433 129 433 110 403 c 1,22,-1
 36 434 l 1,23,24
 100 548 100 548 227 548 c 0,25,26
 316 548 316 548 367.5 506.5 c 128,-1,27
 419 465 419 465 419 400 c 0,28,29
 419 317 419 317 335 281 c 1,30,-1
 336 281 l 1,31,32
 380 267 380 267 409.5 232 c 128,-1,33
 439 197 439 197 439 146 c 0,34,35
 439 69 439 69 379 26 c 128,-1,36
 319 -17 319 -17 225 -17 c 0,37,38
 158 -17 158 -17 104 14 c 128,-1,39
 50 45 50 45 21 95 c 1,0,-1
EndSplineSet
EndChar

StartChar: uni025D
Encoding: 605 605 529
Width: 547
GlyphClass: 2
Flags: W
LayerCount: 2
Fore
SplineSet
21 95 m 1,0,-1
 92 128 l 1,1,2
 108 102 108 102 145 80.5 c 128,-1,3
 182 59 182 59 223 59 c 0,4,5
 280 59 280 59 314 84 c 128,-1,6
 348 109 348 109 348 148 c 0,7,8
 348 188 348 188 313.5 215.5 c 128,-1,9
 279 243 279 243 208 243 c 2,10,-1
 160 243 l 1,11,-1
 160 310 l 1,12,-1
 208 310 l 2,13,14
 269 310 269 310 298.5 333.5 c 128,-1,15
 328 357 328 357 328 394 c 0,16,17
 328 430 328 430 302.5 451 c 128,-1,18
 277 472 277 472 226 472 c 0,19,20
 153 472 153 472 110 403 c 1,21,-1
 36 434 l 1,22,23
 102 548 102 548 227 548 c 0,24,25
 349 548 349 548 398 472 c 1,26,-1
 471 513 l 1,27,28
 483 480 483 480 507.5 457.5 c 128,-1,29
 532 435 532 435 560 435 c 0,30,31
 582 435 582 435 598 440 c 1,32,-1
 598 368 l 1,33,34
 580 362 580 362 553 362 c 0,35,36
 519 362 519 362 491 378.5 c 128,-1,37
 463 395 463 395 452 417 c 1,38,-1
 418 399 l 1,39,40
 418 390 418 390 416 375 c 0,41,42
 410 343 410 343 387 318.5 c 128,-1,43
 364 294 364 294 336 282 c 1,44,-1
 336 281 l 1,45,46
 379 267 379 267 409 232.5 c 128,-1,47
 439 198 439 198 439 147 c 0,48,49
 439 69 439 69 380 26 c 128,-1,50
 321 -17 321 -17 223 -17 c 0,51,52
 156 -17 156 -17 101.5 15 c 128,-1,53
 47 47 47 47 21 95 c 1,0,-1
EndSplineSet
EndChar

StartChar: uni025E
Encoding: 606 606 530
Width: 554
GlyphClass: 2
Flags: W
LayerCount: 2
Fore
SplineSet
39 267 m 0,0,1
 39 392 39 392 104 470 c 128,-1,2
 169 548 169 548 291 548 c 0,3,4
 378 548 378 548 435 508.5 c 128,-1,5
 492 469 492 469 492 397 c 0,6,7
 492 354 492 354 470.5 322.5 c 128,-1,8
 449 291 449 291 417 276 c 1,9,10
 458 263 458 263 485 230.5 c 128,-1,11
 512 198 512 198 512 146 c 0,12,13
 512 66 512 66 451 24.5 c 128,-1,14
 390 -17 390 -17 292 -17 c 0,15,16
 173 -17 173 -17 106 58.5 c 128,-1,17
 39 134 39 134 39 267 c 0,0,1
132 267 m 0,18,19
 132 208 132 208 147 165 c 128,-1,20
 162 122 162 122 187 100 c 128,-1,21
 212 78 212 78 238.5 68.5 c 128,-1,22
 265 59 265 59 293 59 c 0,23,24
 356 59 356 59 388.5 81.5 c 128,-1,25
 421 104 421 104 421 144 c 0,26,27
 421 181 421 181 390 208.5 c 128,-1,28
 359 236 359 236 292 236 c 2,29,-1
 255 236 l 1,30,-1
 255 306 l 1,31,-1
 292 306 l 2,32,33
 348 306 348 306 374.5 331 c 128,-1,34
 401 356 401 356 401 390 c 0,35,36
 401 430 401 430 371.5 451 c 128,-1,37
 342 472 342 472 292 472 c 0,38,39
 225 472 225 472 178.5 421 c 128,-1,40
 132 370 132 370 132 267 c 0,18,19
EndSplineSet
EndChar

StartChar: uni025F
Encoding: 607 607 531
Width: 274
GlyphClass: 2
Flags: W
LayerCount: 2
Fore
SplineSet
-13 263 m 1,0,-1
 -13 336 l 1,1,-1
 94 336 l 1,2,-1
 94 531 l 1,3,-1
 185 531 l 1,4,-1
 185 336 l 1,5,-1
 284 336 l 1,6,-1
 284 263 l 1,7,-1
 185 263 l 1,8,-1
 185 -38 l 2,9,10
 185 -130 185 -130 144 -177 c 128,-1,11
 103 -224 103 -224 27 -224 c 2,12,-1
 -10 -224 l 1,13,-1
 -10 -148 l 1,14,-1
 12 -148 l 2,15,16
 94 -148 94 -148 94 -33 c 2,17,-1
 94 263 l 1,18,-1
 -13 263 l 1,0,-1
EndSplineSet
EndChar

StartChar: uni0260
Encoding: 608 608 532
Width: 574
GlyphClass: 2
Flags: W
LayerCount: 2
Fore
SplineSet
40 276 m 0,0,1
 40 399 40 399 102 473.5 c 128,-1,2
 164 548 164 548 260 548 c 0,3,4
 316 548 316 548 352.5 519.5 c 128,-1,5
 389 491 389 491 407 453 c 1,6,-1
 407 615 l 2,7,8
 407 690 407 690 455.5 731.5 c 128,-1,9
 504 773 504 773 578 773 c 0,10,11
 608 773 608 773 656 769 c 1,12,-1
 656 690 l 1,13,14
 632 693 632 693 594 693 c 0,15,16
 552 693 552 693 524 667.5 c 128,-1,17
 496 642 496 642 496 596 c 2,18,-1
 496 66 l 2,19,20
 496 0 496 0 486 -50 c 128,-1,21
 476 -100 476 -100 451.5 -143 c 128,-1,22
 427 -186 427 -186 380 -208.5 c 128,-1,23
 333 -231 333 -231 266 -231 c 0,24,25
 139 -231 139 -231 66 -132 c 1,26,-1
 126 -91 l 1,27,28
 187 -157 187 -157 268 -157 c 0,29,30
 338 -157 338 -157 371.5 -103.5 c 128,-1,31
 405 -50 405 -50 406 31 c 2,32,-1
 407 93 l 1,33,34
 388 53 388 53 350.5 28 c 128,-1,35
 313 3 313 3 263 3 c 0,36,37
 165 3 165 3 102.5 77.5 c 128,-1,38
 40 152 40 152 40 276 c 0,0,1
132 276 m 0,39,40
 132 182 132 182 171.5 130.5 c 128,-1,41
 211 79 211 79 271 79 c 0,42,43
 334 79 334 79 370.5 131 c 128,-1,44
 407 183 407 183 407 276 c 0,45,46
 407 366 407 366 369.5 419 c 128,-1,47
 332 472 332 472 272 472 c 0,48,49
 210 472 210 472 171 418.5 c 128,-1,50
 132 365 132 365 132 276 c 0,39,40
EndSplineSet
EndChar

StartChar: uni0262
Encoding: 610 610 534
Width: 566
GlyphClass: 2
Flags: W
LayerCount: 2
Fore
SplineSet
39 264 m 0,0,1
 39 393 39 393 106.5 470.5 c 128,-1,2
 174 548 174 548 294 548 c 0,3,4
 427 548 427 548 496 422 c 1,5,-1
 421 390 l 1,6,7
 372 471 372 471 294 471 c 0,8,9
 219 471 219 471 175.5 415 c 128,-1,10
 132 359 132 359 132 264 c 256,11,12
 132 169 132 169 176 114.5 c 128,-1,13
 220 60 220 60 293 60 c 0,14,15
 354 60 354 60 389.5 96.5 c 128,-1,16
 425 133 425 133 427 188 c 2,17,-1
 427 222 l 1,18,-1
 279 222 l 1,19,-1
 279 293 l 1,20,-1
 512 293 l 1,21,-1
 512 0 l 1,22,-1
 443 0 l 1,23,-1
 440 63 l 1,24,25
 424 31 424 31 383.5 7 c 128,-1,26
 343 -17 343 -17 288 -17 c 0,27,28
 177 -17 177 -17 108 57 c 128,-1,29
 39 131 39 131 39 264 c 0,0,1
EndSplineSet
EndChar

StartChar: uni0263
Encoding: 611 611 535
Width: 504
GlyphClass: 2
Flags: W
LayerCount: 2
Fore
SplineSet
8 531 m 1,0,-1
 107 531 l 1,1,-1
 241 144 l 1,2,-1
 250 111 l 1,3,-1
 251 111 l 1,4,-1
 264 143 l 1,5,-1
 398 531 l 1,6,-1
 496 531 l 1,7,-1
 313 58 l 1,8,9
 388 -22 388 -22 388 -94 c 0,10,11
 388 -154 388 -154 349.5 -192.5 c 128,-1,12
 311 -231 311 -231 251 -231 c 0,13,14
 194 -231 194 -231 155.5 -193.5 c 128,-1,15
 117 -156 117 -156 117 -94 c 0,16,17
 117 -27 117 -27 191 56 c 1,18,-1
 8 531 l 1,0,-1
193 -94 m 0,19,20
 193 -124 193 -124 209 -145.5 c 128,-1,21
 225 -167 225 -167 251 -167 c 0,22,23
 279 -167 279 -167 296 -145 c 128,-1,24
 313 -123 313 -123 313 -94 c 0,25,26
 313 -41 313 -41 251 22 c 1,27,28
 193 -35 193 -35 193 -94 c 0,19,20
EndSplineSet
Substitution2: "'sups' Superscript lookup 5 subtable" uni02E0
Substitution2: "'aalt' Access All Alternates lookup 0 subtable" uni02E0
EndChar

StartChar: uni0264
Encoding: 612 612 536
Width: 480
GlyphClass: 2
Flags: W
LayerCount: 2
Fore
SplineSet
240 333 m 1,0,1
 167 242 167 242 167 158 c 0,2,3
 167 115 167 115 187 87.5 c 128,-1,4
 207 60 207 60 243 60 c 0,5,6
 276 60 276 60 295 89 c 128,-1,7
 314 118 314 118 314 158 c 0,8,9
 314 208 314 208 295 247.5 c 128,-1,10
 276 287 276 287 240 333 c 1,0,1
24 465 m 1,11,-1
 24 539 l 1,12,13
 55 548 55 548 82 548 c 0,14,15
 129 548 129 548 164 526.5 c 128,-1,16
 199 505 199 505 240 460 c 1,17,18
 317 548 317 548 400 548 c 0,19,20
 429 548 429 548 458 540 c 1,21,-1
 458 463 l 1,22,23
 430 471 430 471 402 471 c 0,24,25
 371 471 371 471 347 453 c 128,-1,26
 323 435 323 435 295 402 c 1,27,28
 351 333 351 333 377.5 279.5 c 128,-1,29
 404 226 404 226 404 157 c 0,30,31
 404 80 404 80 361 31.5 c 128,-1,32
 318 -17 318 -17 243 -17 c 0,33,34
 163 -17 163 -17 120.5 32 c 128,-1,35
 78 81 78 81 78 157 c 0,36,37
 78 206 78 206 96 254 c 128,-1,38
 114 302 114 302 133 330.5 c 128,-1,39
 152 359 152 359 187 402 c 1,40,41
 160 435 160 435 135.5 453 c 128,-1,42
 111 471 111 471 78 471 c 0,43,44
 76 471 76 471 24 465 c 1,11,-1
EndSplineSet
EndChar

StartChar: uni0265
Encoding: 613 613 537
Width: 567
GlyphClass: 2
Flags: W
LayerCount: 2
Fore
SplineSet
68 188 m 2,0,-1
 68 531 l 1,1,-1
 158 531 l 1,2,-1
 158 200 l 2,3,4
 158 59 158 59 261 59 c 0,5,6
 317 59 317 59 358 107 c 128,-1,7
 399 155 399 155 399 220 c 2,8,-1
 399 531 l 1,9,-1
 488 531 l 1,10,-1
 488 -227 l 1,11,-1
 399 -227 l 1,12,-1
 399 75 l 1,13,-1
 398 75 l 1,14,15
 379 39 379 39 338 11 c 128,-1,16
 297 -17 297 -17 243 -17 c 0,17,18
 209 -17 209 -17 180.5 -8 c 128,-1,19
 152 1 152 1 125.5 22 c 128,-1,20
 99 43 99 43 83.5 85.5 c 128,-1,21
 68 128 68 128 68 188 c 2,0,-1
EndSplineSet
EndChar

StartChar: uni0266
Encoding: 614 614 538
Width: 567
GlyphClass: 2
Flags: W
LayerCount: 2
Fore
SplineSet
79 0 m 1,0,-1
 79 603 l 2,1,2
 79 685 79 685 128.5 729 c 128,-1,3
 178 773 178 773 254 773 c 0,4,5
 303 773 303 773 355 766 c 1,6,-1
 355 688 l 1,7,8
 323 693 323 693 269 693 c 0,9,10
 222 693 222 693 196 661.5 c 128,-1,11
 170 630 170 630 170 588 c 2,12,-1
 170 456 l 1,13,-1
 171 456 l 1,14,15
 192 494 192 494 232 521 c 128,-1,16
 272 548 272 548 325 548 c 0,17,18
 357 548 357 548 385 539.5 c 128,-1,19
 413 531 413 531 440 510 c 128,-1,20
 467 489 467 489 483 446 c 128,-1,21
 499 403 499 403 499 342 c 2,22,-1
 499 0 l 1,23,-1
 409 0 l 1,24,-1
 409 329 l 2,25,26
 409 472 409 472 308 472 c 0,27,28
 251 472 251 472 210.5 424.5 c 128,-1,29
 170 377 170 377 170 311 c 2,30,-1
 170 0 l 1,31,-1
 79 0 l 1,0,-1
EndSplineSet
Substitution2: "'sups' Superscript lookup 5 subtable" uni02B1
Substitution2: "'aalt' Access All Alternates lookup 0 subtable" uni02B1
EndChar

StartChar: uni0267
Encoding: 615 615 539
Width: 571
GlyphClass: 2
Flags: W
LayerCount: 2
Fore
SplineSet
79 0 m 1,0,-1
 79 602 l 2,1,2
 79 684 79 684 128.5 728.5 c 128,-1,3
 178 773 178 773 254 773 c 0,4,5
 303 773 303 773 355 766 c 1,6,-1
 355 688 l 1,7,8
 323 693 323 693 269 693 c 0,9,10
 221 693 221 693 195.5 661 c 128,-1,11
 170 629 170 629 170 585 c 2,12,-1
 170 456 l 1,13,-1
 171 456 l 1,14,15
 192 494 192 494 232 521 c 128,-1,16
 272 548 272 548 325 548 c 0,17,18
 356 548 356 548 384 539.5 c 128,-1,19
 412 531 412 531 439.5 510 c 128,-1,20
 467 489 467 489 483 446.5 c 128,-1,21
 499 404 499 404 499 342 c 2,22,-1
 499 -40 l 2,23,24
 499 -136 499 -136 459.5 -183 c 128,-1,25
 420 -230 420 -230 331 -230 c 0,26,27
 305 -230 305 -230 255 -226 c 1,28,-1
 255 -150 l 1,29,30
 296 -154 296 -154 315 -154 c 0,31,32
 364 -154 364 -154 386.5 -128.5 c 128,-1,33
 409 -103 409 -103 409 -37 c 2,34,-1
 409 329 l 2,35,36
 409 472 409 472 308 472 c 0,37,38
 251 472 251 472 210.5 423.5 c 128,-1,39
 170 375 170 375 170 311 c 2,40,-1
 170 0 l 1,41,-1
 79 0 l 1,0,-1
EndSplineSet
EndChar

StartChar: uni0268
Encoding: 616 616 540
Width: 269
GlyphClass: 2
Flags: W
LayerCount: 2
Fore
SplineSet
82 636 m 1,0,-1
 82 746 l 1,1,-1
 188 746 l 1,2,-1
 188 636 l 1,3,-1
 82 636 l 1,0,-1
7 256 m 1,4,-1
 7 330 l 1,5,-1
 91 330 l 1,6,-1
 91 531 l 1,7,-1
 180 531 l 1,8,-1
 180 330 l 1,9,-1
 262 330 l 1,10,-1
 262 256 l 1,11,-1
 180 256 l 1,12,-1
 180 0 l 1,13,-1
 91 0 l 1,14,-1
 91 256 l 1,15,-1
 7 256 l 1,4,-1
EndSplineSet
EndChar

StartChar: uni0269
Encoding: 617 617 541
Width: 329
GlyphClass: 2
Flags: W
LayerCount: 2
Fore
SplineSet
70 150 m 2,0,-1
 70 531 l 1,1,-1
 161 531 l 1,2,-1
 161 155 l 2,3,4
 161 63 161 63 237 63 c 0,5,6
 277 63 277 63 309 67 c 1,7,-1
 309 -10 l 1,8,9
 243 -17 243 -17 220 -17 c 0,10,11
 152 -17 152 -17 111 24.5 c 128,-1,12
 70 66 70 66 70 150 c 2,0,-1
EndSplineSet
EndChar

StartChar: uni026B
Encoding: 619 619 543
Width: 255
GlyphClass: 2
Flags: W
LayerCount: 2
Fore
SplineSet
-17 355 m 1,0,-1
 -17 433 l 1,1,2
 26 447 26 447 53 447 c 0,3,4
 60 447 60 447 83 444 c 1,5,-1
 83 762 l 1,6,-1
 172 762 l 1,7,-1
 172 428 l 1,8,9
 192 426 192 426 208 426 c 0,10,11
 214 426 214 426 219 426 c 0,12,13
 245 427 245 427 274 438 c 1,14,-1
 274 361 l 1,15,16
 247 351 247 351 221 350 c 0,17,18
 215 350 215 350 209 350 c 0,19,20
 192 350 192 350 172 352 c 1,21,-1
 172 0 l 1,22,-1
 83 0 l 1,23,-1
 83 368 l 1,24,25
 60 371 60 371 53 371 c 0,26,27
 29 371 29 371 -17 355 c 1,0,-1
EndSplineSet
EndChar

StartChar: uni026C
Encoding: 620 620 544
Width: 443
GlyphClass: 2
Flags: W
LayerCount: 2
Fore
SplineSet
38 415 m 0,0,1
 38 462 38 462 71 497 c 128,-1,2
 104 532 104 532 159 532 c 0,3,4
 190 532 190 532 217 518 c 128,-1,5
 244 504 244 504 258 486 c 1,6,-1
 258 762 l 1,7,-1
 349 762 l 1,8,-1
 349 354 l 1,9,-1
 455 354 l 1,10,-1
 455 282 l 1,11,-1
 349 282 l 1,12,-1
 349 0 l 1,13,-1
 258 0 l 1,14,-1
 258 282 l 1,15,-1
 205 282 l 2,16,17
 133 282 133 282 85.5 318 c 128,-1,18
 38 354 38 354 38 415 c 0,0,1
121 415 m 0,19,20
 121 388 121 388 144.5 371 c 128,-1,21
 168 354 168 354 198 354 c 2,22,-1
 258 354 l 1,23,-1
 257 377 l 2,24,25
 256 409 256 409 228 434.5 c 128,-1,26
 200 460 200 460 170 460 c 0,27,28
 149 460 149 460 135 447 c 128,-1,29
 121 434 121 434 121 415 c 0,19,20
EndSplineSet
EndChar

StartChar: uni026D
Encoding: 621 621 545
Width: 339
GlyphClass: 2
Flags: W
LayerCount: 2
Fore
SplineSet
82 -64 m 2,0,-1
 82 762 l 1,1,-1
 171 762 l 1,2,-1
 171 -60 l 2,3,4
 171 -151 171 -151 247 -151 c 0,5,6
 281 -151 281 -151 320 -145 c 1,7,-1
 320 -223 l 1,8,9
 253 -231 253 -231 230 -231 c 0,10,11
 163 -231 163 -231 122.5 -189.5 c 128,-1,12
 82 -148 82 -148 82 -64 c 2,0,-1
EndSplineSet
EndChar

StartChar: uni026E
Encoding: 622 622 546
Width: 664
GlyphClass: 2
Flags: W
LayerCount: 2
Fore
SplineSet
156 -118 m 1,0,-1
 234 -91 l 1,1,2
 280 -154 280 -154 359 -154 c 256,3,4
 438 -154 438 -154 482.5 -108.5 c 128,-1,5
 527 -63 527 -63 527 10 c 0,6,7
 527 84 527 84 478 130.5 c 128,-1,8
 429 177 429 177 341 177 c 2,9,-1
 255 177 l 1,10,-1
 255 238 l 1,11,-1
 459 455 l 1,12,-1
 171 455 l 1,13,-1
 171 0 l 1,14,-1
 80 0 l 1,15,-1
 80 762 l 1,16,-1
 171 762 l 1,17,-1
 171 531 l 1,18,-1
 590 531 l 1,19,-1
 590 474 l 1,20,-1
 371 245 l 1,21,-1
 379 242 l 1,22,23
 484 240 484 240 551 175 c 128,-1,24
 618 110 618 110 618 10 c 0,25,26
 618 -97 618 -97 548.5 -164 c 128,-1,27
 479 -231 479 -231 363 -231 c 0,28,29
 218 -231 218 -231 156 -118 c 1,0,-1
EndSplineSet
EndChar

StartChar: uni026F
Encoding: 623 623 547
Width: 831
GlyphClass: 2
Flags: W
LayerCount: 2
Fore
SplineSet
67 188 m 2,0,-1
 67 531 l 1,1,-1
 158 531 l 1,2,-1
 158 194 l 2,3,4
 158 124 158 124 177 92 c 128,-1,5
 196 60 196 60 245 60 c 0,6,7
 298 60 298 60 333 104 c 128,-1,8
 368 148 368 148 368 216 c 2,9,-1
 368 531 l 1,10,-1
 458 531 l 1,11,-1
 458 192 l 2,12,13
 458 60 458 60 546 60 c 0,14,15
 603 60 603 60 636 102 c 128,-1,16
 669 144 669 144 669 213 c 2,17,-1
 669 531 l 1,18,-1
 758 531 l 1,19,-1
 758 0 l 1,20,-1
 670 0 l 1,21,-1
 670 73 l 1,22,-1
 669 73 l 1,23,24
 661 54 661 54 647.5 37 c 128,-1,25
 634 20 634 20 601 2 c 128,-1,26
 568 -16 568 -16 527 -16 c 0,27,28
 431 -16 431 -16 391 93 c 1,29,30
 389 87 389 87 383 76 c 128,-1,31
 377 65 377 65 363 48 c 128,-1,32
 349 31 349 31 331 17.5 c 128,-1,33
 313 4 313 4 284.5 -6 c 128,-1,34
 256 -16 256 -16 224 -16 c 0,35,36
 67 -16 67 -16 67 188 c 2,0,-1
EndSplineSet
EndChar

StartChar: uni0270
Encoding: 624 624 548
Width: 852
GlyphClass: 2
Flags: W
LayerCount: 2
Fore
SplineSet
67 188 m 2,0,-1
 67 531 l 1,1,-1
 158 531 l 1,2,-1
 158 194 l 2,3,4
 158 126 158 126 176.5 93 c 128,-1,5
 195 60 195 60 245 60 c 0,6,7
 299 60 299 60 333.5 104.5 c 128,-1,8
 368 149 368 149 368 216 c 2,9,-1
 368 531 l 1,10,-1
 458 531 l 1,11,-1
 458 192 l 2,12,13
 458 60 458 60 546 60 c 0,14,15
 603 60 603 60 636 102 c 128,-1,16
 669 144 669 144 669 213 c 2,17,-1
 669 531 l 1,18,-1
 758 531 l 1,19,-1
 758 -227 l 1,20,-1
 670 -227 l 1,21,-1
 670 73 l 1,22,-1
 669 73 l 1,23,24
 654 39 654 39 618.5 11.5 c 128,-1,25
 583 -16 583 -16 527 -16 c 0,26,27
 430 -16 430 -16 391 93 c 1,28,29
 377 57 377 57 334.5 20.5 c 128,-1,30
 292 -16 292 -16 224 -16 c 0,31,32
 67 -16 67 -16 67 188 c 2,0,-1
EndSplineSet
EndChar

